{
.appVersion = "1350";
DisplayStrings = (
"Huske/space Kjøle/space Omtaler/space Deltid/space Elgen/space Terroristen/space Herude/space Turneen/space Bestiller/space Godbit/space Ryggraden/space Ruinene/space Springs/space Rapport/space Systemene/space Helte/space Føderale/space Silke/space Tolke/space Vansker/space Hogg/space Godkendt/space Trekker/space Konvolutten/space Rettighetene/space Omtenksom/space Bestige/space Vegg/space Styrter/space Mask/space Tvilen/space Vrir/space Pannen/space Benådning/space Først/space Banditter/space Lander/space Nøklene/space Møkka/space Patronene/space Glem/space Framtidige/space Kelner/space Andersen/space Løslat/space Kneppet/space Ondskapsfull/space Lyd/space Voldtektsmenn/space Utseende/space Tvunget/space Landsbyer/space Lojalitet/space Ulik/space Forsker/space Flatt/space Manns/space Neseblod/space Skapene/space Flo/space Fortait/space Filosofi/space Ivan/space Hjelper"
);
classes = (
{
automatic = 1;

glyphs = (
{
glyphname = A;
lastChange = "2021-06-05 00:12:59 +0000";
layers = (
{
anchors = (
{
name = dotbelow;
position = "{341, 0}";
},
{
name = top;
position = "{347, 700}";
}
);
layerId = "DFC09A70-1A82-4D07-97CF-EECDCA771356";
paths = (
{
closed = 1;
nodes = (
"170 125 LINE",
"499 125 LINE",
"499 250 LINE",
"170 250 LINE"
);
},
{
closed = 1;
nodes = (
"169 0 LINE",
"403 700 LINE",
"255 700 LINE",
"15 0 LINE"
);
},
{
closed = 1;
nodes = (
"431 700 LINE",
"283 700 LINE",
"517 0 LINE",
"671 0 LINE"
);
}
);
width = 686;
},
{
anchors = (
{
name = dotbelow;
position = "{288, 0}";
},
{
name = top;
position = "{290, 695}";
}
);
layerId = "B950CEFC-B47C-4E26-91C8-4EFB806DAEDB";
paths = (
{
closed = 1;
nodes = (
"125 224 LINE",
"454 224 LINE",
"454 250 LINE",
"125 250 LINE"
);
},
{
closed = 1;
nodes = (
"57 0 LINE",
"297 700 LINE",
"270 700 LINE",
"30 0 LINE"
);
},
{
closed = 1;
nodes = (
"308 700 LINE",
"281 700 LINE",
"521 0 LINE",
"548 0 LINE"
);
}
);
width = 578;
},
{
anchors = (
{
name = dotbelow;
position = "{311, 0}";
},
{
name = top;
position = "{314, 697}";
}
);
layerId = "38A022BC-B010-4522-83EC-9E43C5A6F806";
paths = (
{
closed = 1;
nodes = (
"144 182 LINE",
"473 182 LINE",
"473 250 LINE",
"144 250 LINE"
);
},
{
closed = 1;
nodes = (
"105 0 LINE",
"342 700 LINE",
"264 700 LINE",
"24 0 LINE"
);
},
{
closed = 1;
nodes = (
"361 700 LINE",
"282 700 LINE",
"519 0 LINE",
"601 0 LINE"
);
}
);
width = 624;
},
{
anchors = (
{
name = dotbelow;
position = "{239, 0}";
},
{
name = top;
position = "{376, 695}";
}
);
layerId = "8272A2C0-77E7-4CE8-91FB-35293E9750F3";
paths = (
{
closed = 1;
nodes = (
"120 224 LINE",
"449 224 LINE",
"454 250 LINE",
"125 250 LINE"
);
},
{
closed = 1;
nodes = (
"8 0 LINE",
"384 700 LINE",
"357 700 LINE",
"-19 0 LINE"
);
},
{
closed = 1;
nodes = (
"395 700 LINE",
"368 700 LINE",
"472 0 LINE",
"499 0 LINE"
);
}
);
width = 578;
},
{
anchors = (
{
name = dotbelow;
position = "{262, 0}";
},
{
name = top;
position = "{401, 697}";
}
);
layerId = "49D7192B-8546-40FB-A974-820F9CFADE69";
paths = (
{
closed = 1;
nodes = (
"131 182 LINE",
"460 182 LINE",
"473 250 LINE",
"144 250 LINE"
);
},
{
closed = 1;
nodes = (
"56 0 LINE",
"429 700 LINE",
"351 700 LINE",
"-25 0 LINE"
);
},
{
closed = 1;
nodes = (
"448 700 LINE",
"369 700 LINE",
"470 0 LINE",
"552 0 LINE"
);
}
);
width = 624;
},
{
anchors = (
{
name = dotbelow;
position = "{292, 0}";
},
{
name = top;
position = "{434, 700}";
}
);
layerId = "C6B97978-DABE-4FCE-AE9B-6B243E6FFD49";
paths = (
{
closed = 1;
nodes = (
"146 125 LINE",
"475 125 LINE",
"499 250 LINE",
"170 250 LINE"
);
},
{
closed = 1;
nodes = (
"120 0 LINE",
"490 700 LINE",
"342 700 LINE",
"-34 0 LINE"
);
},
{
closed = 1;
nodes = (
"518 700 LINE",
"370 700 LINE",
"468 0 LINE",
"622 0 LINE"
);
}
);
width = 686;
}
);
leftKerningGroup = A;
rightKerningGroup = A;
unicode = 0041;
},
{
glyphname = AE;
lastChange = "2021-06-05 00:12:59 +0000";
layers = (
{
layerId = "DFC09A70-1A82-4D07-97CF-EECDCA771356";
paths = (
{
closed = 1;
nodes = (
"155 125 LINE",
"484 125 LINE",
"484 250 LINE",
"155 250 LINE"
);
},
{
closed = 1;
nodes = (
"154 0 LINE",
"488 700 LINE",
"340 700 LINE",
"0 0 LINE"
);
},
{
closed = 1;
nodes = (
"436 0 LINE",
"581 0 LINE",
"581 700 LINE",
"436 700 LINE"
);
},
{
closed = 1;
nodes = (
"456 296 LINE",
"800 296 LINE",
"800 431 LINE",
"456 431 LINE"
);
},
{
closed = 1;
nodes = (
"368 565 LINE",
"910 565 LINE",
"910 700 LINE",
"368 700 LINE"
);
},
{
closed = 1;
nodes = (
"456 0 LINE",
"910 0 LINE",
"910 135 LINE",
"456 135 LINE"
);
}
);
width = 931;
},
{
layerId = "B950CEFC-B47C-4E26-91C8-4EFB806DAEDB";
paths = (
{
closed = 1;
nodes = (
"127 224 LINE",
"396 224 LINE",
"396 250 LINE",
"127 250 LINE"
);
},
{
closed = 1;
nodes = (
"29 0 LINE",
"359 700 LINE",
"330 700 LINE",
"0 0 LINE"
);
},
{
closed = 1;
nodes = (
"384 0 LINE",
"410 0 LINE",
"410 700 LINE",
"384 700 LINE"
);
},
{
closed = 1;
nodes = (
"404 347 LINE",
"688 347 LINE",
"688 373 LINE",
"404 373 LINE"
);
},
{
closed = 1;
nodes = (
"339 674 LINE",
"768 674 LINE",
"768 700 LINE",
"339 700 LINE"
);
},
{
closed = 1;
nodes = (
"404 0 LINE",
"768 0 LINE",
"768 26 LINE",
"404 26 LINE"
);
}
);
width = 816;
},
{
layerId = "38A022BC-B010-4522-83EC-9E43C5A6F806";
paths = (
{
closed = 1;
nodes = (
"139 182 LINE",
"434 182 LINE",
"434 250 LINE",
"139 250 LINE"
);
},
{
closed = 1;
nodes = (
"83 0 LINE",
"414 700 LINE",
"334 700 LINE",
"0 0 LINE"
);
},
{
closed = 1;
nodes = (
"406 0 LINE",
"483 0 LINE",
"483 700 LINE",
"406 700 LINE"
);
},
{
closed = 1;
nodes = (
"426 325 LINE",
"736 325 LINE",
"736 398 LINE",
"426 398 LINE"
);
},
{
closed = 1;
nodes = (
"351 627 LINE",
"829 627 LINE",
"829 700 LINE",
"351 700 LINE"
);
},
{
closed = 1;
nodes = (
"426 0 LINE",
"829 0 LINE",
"829 73 LINE",
"426 73 LINE"
);
}
);
width = 865;
},
{
layerId = "8272A2C0-77E7-4CE8-91FB-35293E9750F3";
paths = (
{
closed = 1;
nodes = (
"122 224 LINE",
"391 224 LINE",
"396 250 LINE",
"127 250 LINE"
);
},
{
closed = 1;
nodes = (
"-20 0 LINE",
"446 700 LINE",
"417 700 LINE",
"-49 0 LINE"
);
},
{
closed = 1;
nodes = (
"335 0 LINE",
"361 0 LINE",
"497 700 LINE",
"471 700 LINE"
);
},
{
closed = 1;
nodes = (
"423 347 LINE",
"707 347 LINE",
"712 373 LINE",
"428 373 LINE"
);
},
{
closed = 1;
nodes = (
"421 674 LINE",
"850 674 LINE",
"855 700 LINE",
"426 700 LINE"
);
},
{
closed = 1;
nodes = (
"355 0 LINE",
"719 0 LINE",
"724 26 LINE",
"360 26 LINE"
);
}
);
width = 816;
},
{
layerId = "49D7192B-8546-40FB-A974-820F9CFADE69";
paths = (
{
closed = 1;
nodes = (
"126 182 LINE",
"421 182 LINE",
"434 250 LINE",
"139 250 LINE"
);
},
{
closed = 1;
nodes = (
"34 0 LINE",
"501 700 LINE",
"421 700 LINE",
"-49 0 LINE"
);
},
{
closed = 1;
nodes = (
"357 0 LINE",
"434 0 LINE",
"570 700 LINE",
"493 700 LINE"
);
},
{
closed = 1;
nodes = (
"441 325 LINE",
"751 325 LINE",
"765 398 LINE",
"455 398 LINE"
);
},
{
closed = 1;
nodes = (
"424 627 LINE",
"902 627 LINE",
"916 700 LINE",
"438 700 LINE"
);
},
{
closed = 1;
nodes = (
"377 0 LINE",
"780 0 LINE",
"795 73 LINE",
"392 73 LINE"
);
}
);
width = 865;
},
{
layerId = "C6B97978-DABE-4FCE-AE9B-6B243E6FFD49";
paths = (
{
closed = 1;
nodes = (
"131 125 LINE",
"460 125 LINE",
"484 250 LINE",
"155 250 LINE"
);
},
{
closed = 1;
nodes = (
"105 0 LINE",
"575 700 LINE",
"427 700 LINE",
"-49 0 LINE"
);
},
{
closed = 1;
nodes = (
"387 0 LINE",
"532 0 LINE",
"668 700 LINE",
"523 700 LINE"
);
},
{
closed = 1;
nodes = (
"465 296 LINE",
"809 296 LINE",
"835 431 LINE",
"491 431 LINE"
);
},
{
closed = 1;
nodes = (
"429 565 LINE",
"971 565 LINE",
"997 700 LINE",
"455 700 LINE"
);
},
{
closed = 1;
nodes = (
"407 0 LINE",
"861 0 LINE",
"888 135 LINE",
"434 135 LINE"
);
}
);
width = 931;
}
);
unicode = 00C6;
},
{
glyphname = B;
lastChange = "2021-06-05 00:12:59 +0000";
layers = (
{
layerId = "DFC09A70-1A82-4D07-97CF-EECDCA771356";
paths = (
{
closed = 1;
nodes = (
"332 0 LINE SMOOTH",
"465 0 OFFCURVE",
"574 65 OFFCURVE",
"574 205 CURVE SMOOTH",
"574 259 OFFCURVE",
"534 353 OFFCURVE",
"417 364 CURVE",
"526 380 OFFCURVE",
"544 460 OFFCURVE",
"544 508 CURVE SMOOTH",
"544 638 OFFCURVE",
"435 700 OFFCURVE",
"302 700 CURVE SMOOTH",
"58 700 LINE",
"58 0 LINE"
);
},
{
closed = 1;
nodes = (
"203 296 LINE",
"332 296 LINE SMOOTH",
"409 296 OFFCURVE",
"429 257 OFFCURVE",
"429 215 CURVE SMOOTH",
"429 174 OFFCURVE",
"405 135 OFFCURVE",
"332 135 CURVE SMOOTH",
"203 135 LINE"
);
},
{
closed = 1;
nodes = (
"203 565 LINE",
"302 565 LINE SMOOTH",
"379 565 OFFCURVE",
"399 540 OFFCURVE",
"399 498 CURVE SMOOTH",
"399 457 OFFCURVE",
"375 431 OFFCURVE",
"302 431 CURVE SMOOTH",
"203 431 LINE"
);
}
);
width = 604;
},
{
layerId = "B950CEFC-B47C-4E26-91C8-4EFB806DAEDB";
paths = (
{
closed = 1;
nodes = (
"347 0 LINE SMOOTH",
"478 0 OFFCURVE",
"555 75 OFFCURVE",
"555 183 CURVE SMOOTH",
"555 279 OFFCURVE",
"489 345 OFFCURVE",
"405 371 CURVE",
"476 394 OFFCURVE",
"515 443 OFFCURVE",
"515 520 CURVE SMOOTH",
"515 634 OFFCURVE",
"438 700 OFFCURVE",
"307 700 CURVE SMOOTH",
"103 700 LINE",
"103 0 LINE"
);
},
{
closed = 1;
nodes = (
"129 357 LINE",
"327 357 LINE SMOOTH",
"419 357 OFFCURVE",
"529 297 OFFCURVE",
"529 183 CURVE SMOOTH",
"529 75 OFFCURVE",
"452 26 OFFCURVE",
"347 26 CURVE SMOOTH",
"129 26 LINE"
);
},
{
closed = 1;
nodes = (
"129 674 LINE",
"307 674 LINE SMOOTH",
"412 674 OFFCURVE",
"489 634 OFFCURVE",
"489 520 CURVE SMOOTH",
"489 412 OFFCURVE",
"412 383 OFFCURVE",
"307 383 CURVE SMOOTH",
"129 383 LINE"
);
}
);
width = 617;
},
{
layerId = "38A022BC-B010-4522-83EC-9E43C5A6F806";
paths = (
{
closed = 1;
nodes = (
"341 0 LINE SMOOTH",
"472 0 OFFCURVE",
"563 71 OFFCURVE",
"563 192 CURVE SMOOTH",
"563 270 OFFCURVE",
"508 348 OFFCURVE",
"410 368 CURVE",
"497 388 OFFCURVE",
"527 450 OFFCURVE",
"527 515 CURVE SMOOTH",
"527 636 OFFCURVE",
"437 700 OFFCURVE",
"305 700 CURVE SMOOTH",
"84 700 LINE",
"84 0 LINE"
);
},
{
closed = 1;
nodes = (
"161 331 LINE",
"329 331 LINE SMOOTH",
"415 331 OFFCURVE",
"486 280 OFFCURVE",
"486 197 CURVE SMOOTH",
"486 117 OFFCURVE",
"432 73 OFFCURVE",
"341 73 CURVE SMOOTH",
"161 73 LINE"
);
},
{
closed = 1;
nodes = (
"161 627 LINE",
"305 627 LINE SMOOTH",
"398 627 OFFCURVE",
"450 594 OFFCURVE",
"450 511 CURVE SMOOTH",
"450 431 OFFCURVE",
"396 404 OFFCURVE",
"305 404 CURVE SMOOTH",
"161 404 LINE"
);
}
);
width = 611;
},
{
layerId = "8272A2C0-77E7-4CE8-91FB-35293E9750F3";
paths = (
{
closed = 1;
nodes = (
"298 0 LINE SMOOTH",
"429 0 OFFCURVE",
"521 75 OFFCURVE",
"542 183 CURVE SMOOTH",
"561 279 OFFCURVE",
"507 345 OFFCURVE",
"429 371 CURVE",
"504 394 OFFCURVE",
"553 443 OFFCURVE",
"567 520 CURVE SMOOTH",
"590 634 OFFCURVE",
"525 700 OFFCURVE",
"394 700 CURVE SMOOTH",
"190 700 LINE",
"54 0 LINE"
);
},
{
closed = 1;
nodes = (
"150 357 LINE",
"348 357 LINE SMOOTH",
"440 357 OFFCURVE",
"538 297 OFFCURVE",
"516 183 CURVE SMOOTH",
"495 75 OFFCURVE",
"408 26 OFFCURVE",
"303 26 CURVE SMOOTH",
"85 26 LINE"
);
},
{
closed = 1;
nodes = (
"211 674 LINE",
"389 674 LINE SMOOTH",
"494 674 OFFCURVE",
"564 634 OFFCURVE",
"541 520 CURVE SMOOTH",
"520 412 OFFCURVE",
"438 383 OFFCURVE",
"333 383 CURVE SMOOTH",
"155 383 LINE"
);
}
);
width = 617;
},
{
layerId = "49D7192B-8546-40FB-A974-820F9CFADE69";
paths = (
{
closed = 1;
nodes = (
"292 0 LINE SMOOTH",
"423 0 OFFCURVE",
"528 71 OFFCURVE",
"552 192 CURVE SMOOTH",
"567 270 OFFCURVE",
"527 348 OFFCURVE",
"433 368 CURVE",
"524 388 OFFCURVE",
"566 450 OFFCURVE",
"579 515 CURVE SMOOTH",
"602 636 OFFCURVE",
"524 700 OFFCURVE",
"392 700 CURVE SMOOTH",
"171 700 LINE",
"35 0 LINE"
);
},
{
closed = 1;
nodes = (
"177 331 LINE",
"345 331 LINE SMOOTH",
"431 331 OFFCURVE",
"492 280 OFFCURVE",
"476 197 CURVE SMOOTH",
"460 117 OFFCURVE",
"398 73 OFFCURVE",
"307 73 CURVE SMOOTH",
"127 73 LINE"
);
},
{
closed = 1;
nodes = (
"234 627 LINE",
"378 627 LINE SMOOTH",
"471 627 OFFCURVE",
"517 594 OFFCURVE",
"501 511 CURVE SMOOTH",
"485 431 OFFCURVE",
"426 404 OFFCURVE",
"335 404 CURVE SMOOTH",
"191 404 LINE"
);
}
);
width = 611;
},
{
layerId = "C6B97978-DABE-4FCE-AE9B-6B243E6FFD49";
paths = (
{
closed = 1;
nodes = (
"283 0 LINE SMOOTH",
"416 0 OFFCURVE",
"538 65 OFFCURVE",
"565 205 CURVE SMOOTH",
"576 259 OFFCURVE",
"554 353 OFFCURVE",
"439 364 CURVE",
"551 380 OFFCURVE",
"585 460 OFFCURVE",
"594 508 CURVE SMOOTH",
"619 638 OFFCURVE",
"522 700 OFFCURVE",
"389 700 CURVE SMOOTH",
"145 700 LINE",
"9 0 LINE"
);
},
{
closed = 1;
nodes = (
"212 296 LINE",
"341 296 LINE SMOOTH",
"418 296 OFFCURVE",
"430 257 OFFCURVE",
"422 215 CURVE SMOOTH",
"414 174 OFFCURVE",
"383 135 OFFCURVE",
"310 135 CURVE SMOOTH",
"181 135 LINE"
);
},
{
closed = 1;
nodes = (
"264 565 LINE",
"363 565 LINE SMOOTH",
"440 565 OFFCURVE",
"455 540 OFFCURVE",
"447 498 CURVE SMOOTH",
"439 457 OFFCURVE",
"410 431 OFFCURVE",
"337 431 CURVE SMOOTH",
"238 431 LINE"
);
}
);
width = 604;
}
);
unicode = 0042;
},
{
glyphname = C;
lastChange = "2021-06-05 00:12:59 +0000";
layers = (
{
anchors = (
{
name = bottom;
position = "{315, 0}";
},
{
name = top;
position = "{353, 700}";
}
);
layerId = "DFC09A70-1A82-4D07-97CF-EECDCA771356";
paths = (
{
closed = 1;
nodes = (
"480 169 OFFCURVE",
"435 126 OFFCURVE",
"353 126 CURVE SMOOTH",
"233 126 OFFCURVE",
"184 237 OFFCURVE",
"184 343 CURVE SMOOTH",
"184 468 OFFCURVE",
"233 574 OFFCURVE",
"353 574 CURVE SMOOTH",
"443 574 OFFCURVE",
"489 525 OFFCURVE",
"509 453 CURVE",
"650 497 LINE",
"612 635 OFFCURVE",
"514 710 OFFCURVE",
"353 710 CURVE",
"149 710 OFFCURVE",
"38 578 OFFCURVE",
"38 343 CURVE",
"38 127 OFFCURVE",
"149 -10 OFFCURVE",
"353 -10 CURVE",
"514 -10 OFFCURVE",
"611 68 OFFCURVE",
"649 199 CURVE",
"503 227 LINE"
);
}
);
width = 672;
},
{
anchors = (
{
name = bottom;
position = "{324, 0}";
},
{
name = top;
position = "{362, 700}";
}
);
layerId = "B950CEFC-B47C-4E26-91C8-4EFB806DAEDB";
paths = (
{
closed = 1;
nodes = (
"525 66 OFFCURVE",
"442 16 OFFCURVE",
"342 16 CURVE SMOOTH",
"202 16 OFFCURVE",
"93 117 OFFCURVE",
"93 343 CURVE SMOOTH",
"93 588 OFFCURVE",
"202 684 OFFCURVE",
"342 684 CURVE SMOOTH",
"442 684 OFFCURVE",
"525 636 OFFCURVE",
"565 521 CURVE",
"589 533 LINE",
"548 651 OFFCURVE",
"463 710 OFFCURVE",
"342 710 CURVE",
"168 710 OFFCURVE",
"67 588 OFFCURVE",
"67 343 CURVE",
"67 117 OFFCURVE",
"168 -10 OFFCURVE",
"342 -10 CURVE",
"465 -10 OFFCURVE",
"551 53 OFFCURVE",
"591 170 CURVE",
"565 176 LINE"
);
}
);
width = 648;
},
{
anchors = (
{
name = bottom;
position = "{320, 0}";
},
{
name = top;
position = "{358, 700}";
}
);
layerId = "38A022BC-B010-4522-83EC-9E43C5A6F806";
paths = (
{
closed = 1;
nodes = (
"506 110 OFFCURVE",
"439 63 OFFCURVE",
"347 63 CURVE SMOOTH",
"215 63 OFFCURVE",
"132 168 OFFCURVE",
"132 343 CURVE SMOOTH",
"132 537 OFFCURVE",
"215 637 OFFCURVE",
"347 637 CURVE SMOOTH",
"442 637 OFFCURVE",
"510 588 OFFCURVE",
"541 492 CURVE",
"615 518 LINE",
"575 644 OFFCURVE",
"485 710 OFFCURVE",
"347 710 CURVE",
"160 710 OFFCURVE",
"55 584 OFFCURVE",
"55 343 CURVE",
"55 121 OFFCURVE",
"160 -10 OFFCURVE",
"347 -10 CURVE",
"486 -10 OFFCURVE",
"577 59 OFFCURVE",
"616 182 CURVE",
"538 198 LINE"
);
}
);
width = 658;
},
{
anchors = (
{
name = bottom;
position = "{275, 0}";
},
{
name = top;
position = "{449, 700}";
}
);
layerId = "8272A2C0-77E7-4CE8-91FB-35293E9750F3";
paths = (
{
closed = 1;
nodes = (
"489 66 OFFCURVE",
"397 16 OFFCURVE",
"297 16 CURVE SMOOTH",
"157 16 OFFCURVE",
"67 117 OFFCURVE",
"111 343 CURVE SMOOTH",
"159 588 OFFCURVE",
"286 684 OFFCURVE",
"426 684 CURVE SMOOTH",
"526 684 OFFCURVE",
"600 636 OFFCURVE",
"618 521 CURVE",
"644 533 LINE",
"626 651 OFFCURVE",
"552 710 OFFCURVE",
"431 710 CURVE",
"257 710 OFFCURVE",
"133 588 OFFCURVE",
"85 343 CURVE",
"41 117 OFFCURVE",
"117 -10 OFFCURVE",
"291 -10 CURVE",
"414 -10 OFFCURVE",
"513 53 OFFCURVE",
"575 170 CURVE",
"551 176 LINE"
);
}
);
width = 648;
},
{
anchors = (
{
name = bottom;
position = "{271, 0}";
},
{
name = top;
position = "{445, 700}";
}
);
layerId = "49D7192B-8546-40FB-A974-820F9CFADE69";
paths = (
{
closed = 1;
nodes = (
"479 110 OFFCURVE",
"403 63 OFFCURVE",
"311 63 CURVE SMOOTH",
"179 63 OFFCURVE",
"116 168 OFFCURVE",
"150 343 CURVE SMOOTH",
"188 537 OFFCURVE",
"290 637 OFFCURVE",
"422 637 CURVE SMOOTH",
"517 637 OFFCURVE",
"576 588 OFFCURVE",
"588 492 CURVE",
"667 518 LINE",
"652 644 OFFCURVE",
"574 710 OFFCURVE",
"436 710 CURVE",
"249 710 OFFCURVE",
"120 584 OFFCURVE",
"73 343 CURVE",
"30 121 OFFCURVE",
"109 -10 OFFCURVE",
"296 -10 CURVE",
"435 -10 OFFCURVE",
"540 59 OFFCURVE",
"603 182 CURVE",
"528 198 LINE"
);
}
);
width = 658;
},
{
anchors = (
{
name = bottom;
position = "{266, 0}";
},
{
name = top;
position = "{440, 700}";
}
);
layerId = "C6B97978-DABE-4FCE-AE9B-6B243E6FFD49";
paths = (
{
closed = 1;
nodes = (
"464 169 OFFCURVE",
"411 126 OFFCURVE",
"329 126 CURVE SMOOTH",
"209 126 OFFCURVE",
"181 237 OFFCURVE",
"202 343 CURVE SMOOTH",
"226 468 OFFCURVE",
"296 574 OFFCURVE",
"416 574 CURVE SMOOTH",
"506 574 OFFCURVE",
"542 525 OFFCURVE",
"548 453 CURVE",
"698 497 LINE",
"687 635 OFFCURVE",
"603 710 OFFCURVE",
"442 710 CURVE",
"238 710 OFFCURVE",
"102 578 OFFCURVE",
"56 343 CURVE",
"14 127 OFFCURVE",
"98 -10 OFFCURVE",
"302 -10 CURVE",
"463 -10 OFFCURVE",
"576 68 OFFCURVE",
"639 199 CURVE",
"499 227 LINE"
);
}
);
width = 672;
}
);
leftKerningGroup = O;
unicode = 0043;
},
{
glyphname = D;
lastChange = "2021-06-05 00:12:59 +0000";
layers = (
{
anchors = (
{
name = top;
position = "{294, 700}";
}
);
layerId = "DFC09A70-1A82-4D07-97CF-EECDCA771356";
paths = (
{
closed = 1;
nodes = (
"312 0 LINE SMOOTH",
"485 0 OFFCURVE",
"614 127 OFFCURVE",
"614 350 CURVE SMOOTH",
"614 563 OFFCURVE",
"466 700 OFFCURVE",
"312 700 CURVE SMOOTH",
"58 700 LINE",
"58 0 LINE"
);
},
{
closed = 1;
nodes = (
"203 565 LINE",
"292 565 LINE SMOOTH",
"389 565 OFFCURVE",
"469 505 OFFCURVE",
"469 350 CURVE SMOOTH",
"469 186 OFFCURVE",
"385 135 OFFCURVE",
"292 135 CURVE SMOOTH",
"203 135 LINE"
);
}
);
width = 652;
},
{
anchors = (
{
name = top;
position = "{276, 700}";
}
);
layerId = "B950CEFC-B47C-4E26-91C8-4EFB806DAEDB";
paths = (
{
closed = 1;
nodes = (
"277 0 LINE SMOOTH",
"478 0 OFFCURVE",
"575 162 OFFCURVE",
"575 350 CURVE SMOOTH",
"575 524 OFFCURVE",
"478 700 OFFCURVE",
"277 700 CURVE SMOOTH",
"103 700 LINE",
"103 0 LINE"
);
},
{
closed = 1;
nodes = (
"129 674 LINE",
"277 674 LINE SMOOTH",
"452 674 OFFCURVE",
"549 519 OFFCURVE",
"549 350 CURVE SMOOTH",
"549 167 OFFCURVE",
"452 26 OFFCURVE",
"277 26 CURVE SMOOTH",
"129 26 LINE"
);
}
);
width = 642;
},
{
anchors = (
{
name = top;
position = "{284, 700}";
}
);
layerId = "38A022BC-B010-4522-83EC-9E43C5A6F806";
paths = (
{
closed = 1;
nodes = (
"292 0 LINE SMOOTH",
"481 0 OFFCURVE",
"592 147 OFFCURVE",
"592 350 CURVE SMOOTH",
"592 541 OFFCURVE",
"473 700 OFFCURVE",
"292 700 CURVE SMOOTH",
"84 700 LINE",
"84 0 LINE"
);
},
{
closed = 1;
nodes = (
"161 627 LINE",
"283 627 LINE SMOOTH",
"425 627 OFFCURVE",
"515 513 OFFCURVE",
"515 350 CURVE SMOOTH",
"515 175 OFFCURVE",
"423 73 OFFCURVE",
"283 73 CURVE SMOOTH",
"161 73 LINE"
);
}
);
width = 646;
},
{
anchors = (
{
name = top;
position = "{363, 700}";
}
);
layerId = "8272A2C0-77E7-4CE8-91FB-35293E9750F3";
paths = (
{
closed = 1;
nodes = (
"228 0 LINE SMOOTH",
"429 0 OFFCURVE",
"558 162 OFFCURVE",
"594 350 CURVE SMOOTH",
"628 524 OFFCURVE",
"565 700 OFFCURVE",
"364 700 CURVE SMOOTH",
"190 700 LINE",
"54 0 LINE"
);
},
{
closed = 1;
nodes = (
"211 674 LINE",
"359 674 LINE SMOOTH",
"534 674 OFFCURVE",
"601 519 OFFCURVE",
"568 350 CURVE SMOOTH",
"533 167 OFFCURVE",
"408 26 OFFCURVE",
"233 26 CURVE SMOOTH",
"85 26 LINE"
);
}
);
width = 642;
},
{
anchors = (
{
name = top;
position = "{371, 700}";
}
);
layerId = "49D7192B-8546-40FB-A974-820F9CFADE69";
paths = (
{
closed = 1;
nodes = (
"243 0 LINE SMOOTH",
"432 0 OFFCURVE",
"572 147 OFFCURVE",
"611 350 CURVE SMOOTH",
"649 541 OFFCURVE",
"560 700 OFFCURVE",
"379 700 CURVE SMOOTH",
"171 700 LINE",
"35 0 LINE"
);
},
{
closed = 1;
nodes = (
"234 627 LINE",
"356 627 LINE SMOOTH",
"498 627 OFFCURVE",
"566 513 OFFCURVE",
"534 350 CURVE SMOOTH",
"500 175 OFFCURVE",
"389 73 OFFCURVE",
"249 73 CURVE SMOOTH",
"127 73 LINE"
);
}
);
width = 646;
},
{
anchors = (
{
name = top;
position = "{381, 700}";
}
);
layerId = "C6B97978-DABE-4FCE-AE9B-6B243E6FFD49";
paths = (
{
closed = 1;
nodes = (
"263 0 LINE SMOOTH",
"436 0 OFFCURVE",
"590 127 OFFCURVE",
"633 350 CURVE SMOOTH",
"675 563 OFFCURVE",
"553 700 OFFCURVE",
"399 700 CURVE SMOOTH",
"145 700 LINE",
"9 0 LINE"
);
},
{
closed = 1;
nodes = (
"264 565 LINE",
"353 565 LINE SMOOTH",
"450 565 OFFCURVE",
"519 505 OFFCURVE",
"488 350 CURVE SMOOTH",
"457 186 OFFCURVE",
"363 135 OFFCURVE",
"270 135 CURVE SMOOTH",
"181 135 LINE"
);
}
);
width = 652;
}
);
rightKerningGroup = O;
unicode = 0044;
},
{
glyphname = Eth;
lastChange = "2021-06-05 00:12:59 +0000";
layers = (
{
components = (
{
name = D;
transform = "{1, 0, 0, 1, -5, 0}";
}
);
layerId = "DFC09A70-1A82-4D07-97CF-EECDCA771356";
paths = (
{
closed = 1;
nodes = (
"15 294 LINE",
"368 294 LINE",
"368 410 LINE",
"15 410 LINE"
);
}
);
width = 661;
},
{
components = (
{
name = D;
transform = "{1, 0, 0, 1, -1, 0}";
}
);
layerId = "B950CEFC-B47C-4E26-91C8-4EFB806DAEDB";
paths = (
{
closed = 1;
nodes = (
"19 338 LINE",
"345 338 LINE",
"345 364 LINE",
"19 364 LINE"
);
}
);
width = 645;
},
{
components = (
{
alignment = -1;
name = D;
transform = "{1, 0, 0, 1, -3, 0}";
}
);
layerId = "38A022BC-B010-4522-83EC-9E43C5A6F806";
paths = (
{
closed = 1;
nodes = (
"17 319 LINE",
"355 319 LINE",
"355 384 LINE",
"17 384 LINE"
);
}
);
width = 652;
},
{
components = (
{
name = D;
transform = "{1, 0, 0, 1, -1, 0}";
}
);
layerId = "8272A2C0-77E7-4CE8-91FB-35293E9750F3";
paths = (
{
closed = 1;
nodes = (
"36 338 LINE",
"362 338 LINE",
"367 364 LINE",
"41 364 LINE"
);
}
);
width = 645;
},
{
components = (
{
alignment = -1;
name = D;
transform = "{1, 0, 0, 1, -3, 0}";
}
);
layerId = "49D7192B-8546-40FB-A974-820F9CFADE69";
paths = (
{
closed = 1;
nodes = (
"30 319 LINE",
"368 319 LINE",
"381 384 LINE",
"43 384 LINE"
);
}
);
width = 652;
},
{
components = (
{
name = D;
transform = "{1, 0, 0, 1, -5, 0}";
}
);
layerId = "C6B97978-DABE-4FCE-AE9B-6B243E6FFD49";
paths = (
{
closed = 1;
nodes = (
"24 294 LINE",
"377 294 LINE",
"399 410 LINE",
"46 410 LINE"
);
}
);
width = 661;
}
);
rightKerningGroup = O;
unicode = 00D0;
},
{
glyphname = E;
lastChange = "2021-06-05 00:12:59 +0000";
layers = (
{
anchors = (
{
name = dotbelow;
position = "{305, 0}";
},
{
name = top;
position = "{288, 700}";
}
);
layerId = "DFC09A70-1A82-4D07-97CF-EECDCA771356";
paths = (
{
closed = 1;
nodes = (
"58 0 LINE",
"203 0 LINE",
"203 700 LINE",
"58 700 LINE"
);
},
{
closed = 1;
nodes = (
"78 296 LINE",
"422 296 LINE",
"422 431 LINE",
"78 431 LINE"
);
},
{
closed = 1;
nodes = (
"78 565 LINE",
"532 565 LINE",
"532 700 LINE",
"78 700 LINE"
);
},
{
closed = 1;
nodes = (
"78 0 LINE",
"532 0 LINE",
"532 135 LINE",
"78 135 LINE"
);
}
);
width = 573;
},
{
anchors = (
{
name = dotbelow;
position = "{305, 0}";
},
{
name = top;
position = "{292, 730}";
}
);
layerId = "B950CEFC-B47C-4E26-91C8-4EFB806DAEDB";
paths = (
{
closed = 1;
nodes = (
"103 0 LINE",
"129 0 LINE",
"129 700 LINE",
"103 700 LINE"
);
},
{
closed = 1;
nodes = (
"123 347 LINE",
"407 347 LINE",
"407 373 LINE",
"123 373 LINE"
);
},
{
closed = 1;
nodes = (
"123 674 LINE",
"487 674 LINE",
"487 700 LINE",
"123 700 LINE"
);
},
{
closed = 1;
nodes = (
"123 0 LINE",
"487 0 LINE",
"487 26 LINE",
"123 26 LINE"
);
}
);
width = 555;
},
{
anchors = (
{
name = dotbelow;
position = "{305, 0}";
},
{
name = top;
position = "{290, 717}";
}
);
layerId = "38A022BC-B010-4522-83EC-9E43C5A6F806";
paths = (
{
closed = 1;
nodes = (
"84 0 LINE",
"161 0 LINE",
"161 700 LINE",
"84 700 LINE"
);
},
{
closed = 1;
nodes = (
"104 325 LINE",
"413 325 LINE",
"413 398 LINE",
"104 398 LINE"
);
},
{
closed = 1;
nodes = (
"104 627 LINE",
"506 627 LINE",
"506 700 LINE",
"104 700 LINE"
);
},
{
closed = 1;
nodes = (
"104 0 LINE",
"506 0 LINE",
"506 73 LINE",
"104 73 LINE"
);
}
);
width = 563;
},
{
anchors = (
{
name = dotbelow;
position = "{256, 0}";
},
{
name = top;
position = "{385, 730}";
}
);
layerId = "8272A2C0-77E7-4CE8-91FB-35293E9750F3";
paths = (
{
closed = 1;
nodes = (
"54 0 LINE",
"80 0 LINE",
"216 700 LINE",
"190 700 LINE"
);
},
{
closed = 1;
nodes = (
"142 347 LINE",
"426 347 LINE",
"431 373 LINE",
"147 373 LINE"
);
},
{
closed = 1;
nodes = (
"205 674 LINE",
"569 674 LINE",
"574 700 LINE",
"210 700 LINE"
);
},
{
closed = 1;
nodes = (
"74 0 LINE",
"438 0 LINE",
"443 26 LINE",
"79 26 LINE"
);
}
);
width = 555;
},
{
anchors = (
{
name = dotbelow;
position = "{256, 0}";
},
{
name = top;
position = "{381, 717}";
}
);
layerId = "49D7192B-8546-40FB-A974-820F9CFADE69";
paths = (
{
closed = 1;
nodes = (
"35 0 LINE",
"112 0 LINE",
"248 700 LINE",
"171 700 LINE"
);
},
{
closed = 1;
nodes = (
"119 325 LINE",
"428 325 LINE",
"442 398 LINE",
"133 398 LINE"
);
},
{
closed = 1;
nodes = (
"177 627 LINE",
"579 627 LINE",
"593 700 LINE",
"191 700 LINE"
);
},
{
closed = 1;
nodes = (
"55 0 LINE",
"457 0 LINE",
"472 73 LINE",
"70 73 LINE"
);
}
);
width = 563;
},
{
anchors = (
{
name = dotbelow;
position = "{256, 0}";
},
{
name = top;
position = "{375, 700}";
}
);
layerId = "C6B97978-DABE-4FCE-AE9B-6B243E6FFD49";
paths = (
{
closed = 1;
nodes = (
"9 0 LINE",
"154 0 LINE",
"290 700 LINE",
"145 700 LINE"
);
},
{
closed = 1;
nodes = (
"87 296 LINE",
"431 296 LINE",
"457 431 LINE",
"113 431 LINE"
);
},
{
closed = 1;
nodes = (
"139 565 LINE",
"593 565 LINE",
"619 700 LINE",
"165 700 LINE"
);
},
{
closed = 1;
nodes = (
"29 0 LINE",
"483 0 LINE",
"510 135 LINE",
"56 135 LINE"
);
}
);
width = 573;
}
);
unicode = 0045;
},
{
glyphname = F;
lastChange = "2021-06-05 00:12:59 +0000";
layers = (
{
layerId = "DFC09A70-1A82-4D07-97CF-EECDCA771356";
paths = (
{
closed = 1;
nodes = (
"58 0 LINE",
"203 0 LINE",
"203 700 LINE",
"58 700 LINE"
);
},
{
closed = 1;
nodes = (
"78 276 LINE",
"442 276 LINE",
"442 411 LINE",
"78 411 LINE"
);
},
{
closed = 1;
nodes = (
"78 565 LINE",
"522 565 LINE",
"522 700 LINE",
"78 700 LINE"
);
}
);
width = 556;
},
{
layerId = "B950CEFC-B47C-4E26-91C8-4EFB806DAEDB";
paths = (
{
closed = 1;
nodes = (
"103 0 LINE",
"129 0 LINE",
"129 700 LINE",
"103 700 LINE"
);
},
{
closed = 1;
nodes = (
"123 327 LINE",
"427 327 LINE",
"427 353 LINE",
"123 353 LINE"
);
},
{
closed = 1;
nodes = (
"123 674 LINE",
"477 674 LINE",
"477 700 LINE",
"123 700 LINE"
);
}
);
width = 528;
},
{
layerId = "38A022BC-B010-4522-83EC-9E43C5A6F806";
paths = (
{
closed = 1;
nodes = (
"84 0 LINE",
"161 0 LINE",
"161 700 LINE",
"84 700 LINE"
);
},
{
closed = 1;
nodes = (
"104 305 LINE",
"433 305 LINE",
"433 378 LINE",
"104 378 LINE"
);
},
{
closed = 1;
nodes = (
"104 627 LINE",
"496 627 LINE",
"496 700 LINE",
"104 700 LINE"
);
}
);
width = 540;
},
{
layerId = "8272A2C0-77E7-4CE8-91FB-35293E9750F3";
paths = (
{
closed = 1;
nodes = (
"54 0 LINE",
"80 0 LINE",
"216 700 LINE",
"190 700 LINE"
);
},
{
closed = 1;
nodes = (
"138 327 LINE",
"442 327 LINE",
"447 353 LINE",
"143 353 LINE"
);
},
{
closed = 1;
nodes = (
"205 674 LINE",
"559 674 LINE",
"564 700 LINE",
"210 700 LINE"
);
}
);
width = 528;
},
{
layerId = "49D7192B-8546-40FB-A974-820F9CFADE69";
paths = (
{
closed = 1;
nodes = (
"35 0 LINE",
"112 0 LINE",
"248 700 LINE",
"171 700 LINE"
);
},
{
closed = 1;
nodes = (
"115 305 LINE",
"444 305 LINE",
"458 378 LINE",
"129 378 LINE"
);
},
{
closed = 1;
nodes = (
"177 627 LINE",
"569 627 LINE",
"583 700 LINE",
"191 700 LINE"
);
}
);
width = 540;
},
{
layerId = "C6B97978-DABE-4FCE-AE9B-6B243E6FFD49";
paths = (
{
closed = 1;
nodes = (
"9 0 LINE",
"154 0 LINE",
"290 700 LINE",
"145 700 LINE"
);
},
{
closed = 1;
nodes = (
"83 276 LINE",
"447 276 LINE",
"473 411 LINE",
"109 411 LINE"
);
},
{
closed = 1;
nodes = (
"139 565 LINE",
"583 565 LINE",
"609 700 LINE",
"165 700 LINE"
);
}
);
width = 556;
}
);
rightKerningGroup = V;
unicode = 0046;
},
{
glyphname = G;
lastChange = "2021-06-05 00:12:59 +0000";
layers = (
{
anchors = (
{
name = bottom;
position = "{355, 0}";
},
{
name = top;
position = "{363, 700}";
}
);
layerId = "DFC09A70-1A82-4D07-97CF-EECDCA771356";
paths = (
{
closed = 1;
nodes = (
"547 -10 OFFCURVE",
"568 187 OFFCURVE",
"569 403 CURVE",
"533 403 LINE",
"533 297 OFFCURVE",
"514 126 OFFCURVE",
"363 126 CURVE SMOOTH",
"243 126 OFFCURVE",
"194 237 OFFCURVE",
"194 343 CURVE SMOOTH",
"194 468 OFFCURVE",
"243 574 OFFCURVE",
"363 574 CURVE SMOOTH",
"452 574 OFFCURVE",
"498 525 OFFCURVE",
"519 454 CURVE",
"659 497 LINE",
"621 635 OFFCURVE",
"524 710 OFFCURVE",
"363 710 CURVE",
"159 710 OFFCURVE",
"48 578 OFFCURVE",
"48 343 CURVE",
"48 127 OFFCURVE",
"159 -10 OFFCURVE",
"363 -10 CURVE"
);
},
{
closed = 1;
nodes = (
"533 403 LINE",
"533 156 LINE",
"533 123 OFFCURVE",
"567 0 OFFCURVE",
"593 0 CURVE",
"668 0 LINE",
"668 403 LINE"
);
},
{
closed = 1;
nodes = (
"320 277 LINE",
"668 277 LINE",
"668 403 LINE",
"320 403 LINE"
);
}
);
width = 731;
},
{
anchors = (
{
name = bottom;
position = "{352, 0}";
},
{
name = top;
position = "{342, 700}";
}
);
layerId = "B950CEFC-B47C-4E26-91C8-4EFB806DAEDB";
paths = (
{
closed = 1;
nodes = (
"496 -10 OFFCURVE",
"592 119 OFFCURVE",
"592 343 CURVE",
"571 343 LINE",
"571 117 OFFCURVE",
"464 16 OFFCURVE",
"333 16 CURVE SMOOTH",
"205 16 OFFCURVE",
"93 127 OFFCURVE",
"93 343 CURVE SMOOTH",
"93 588 OFFCURVE",
"202 684 OFFCURVE",
"342 684 CURVE SMOOTH",
"442 684 OFFCURVE",
"525 636 OFFCURVE",
"565 520 CURVE",
"590 533 LINE",
"548 651 OFFCURVE",
"463 710 OFFCURVE",
"342 710 CURVE",
"168 710 OFFCURVE",
"67 588 OFFCURVE",
"67 343 CURVE",
"67 117 OFFCURVE",
"188 -10 OFFCURVE",
"332 -10 CURVE"
);
},
{
closed = 1;
nodes = (
"573 343 LINE",
"573 85 LINE",
"573 52 OFFCURVE",
"574 0 OFFCURVE",
"580 0 CURVE",
"597 0 LINE",
"597 343 LINE"
);
},
{
closed = 1;
nodes = (
"299 317 LINE",
"587 317 LINE",
"592 343 LINE",
"299 343 LINE"
);
}
);
width = 673;
},
{
anchors = (
{
name = bottom;
position = "{353, 0}";
},
{
name = top;
position = "{351, 700}";
}
);
layerId = "38A022BC-B010-4522-83EC-9E43C5A6F806";
paths = (
{
closed = 1;
nodes = (
"518 -10 OFFCURVE",
"582 148 OFFCURVE",
"582 369 CURVE",
"555 369 LINE",
"555 194 OFFCURVE",
"485 63 OFFCURVE",
"346 63 CURVE SMOOTH",
"221 63 OFFCURVE",
"136 174 OFFCURVE",
"136 343 CURVE SMOOTH",
"136 537 OFFCURVE",
"220 637 OFFCURVE",
"351 637 CURVE SMOOTH",
"446 637 OFFCURVE",
"513 588 OFFCURVE",
"545 492 CURVE",
"620 518 LINE",
"579 644 OFFCURVE",
"489 710 OFFCURVE",
"351 710 CURVE",
"164 710 OFFCURVE",
"59 584 OFFCURVE",
"59 343 CURVE",
"59 121 OFFCURVE",
"176 -10 OFFCURVE",
"345 -10 CURVE"
);
},
{
closed = 1;
nodes = (
"556 369 LINE",
"556 115 LINE",
"556 82 OFFCURVE",
"571 0 OFFCURVE",
"586 0 CURVE",
"627 0 LINE",
"627 369 LINE"
);
},
{
closed = 1;
nodes = (
"308 300 LINE",
"622 300 LINE",
"625 369 LINE",
"308 369 LINE"
);
}
);
width = 698;
},
{
anchors = (
{
name = bottom;
position = "{303, 0}";
},
{
name = top;
position = "{429, 700}";
}
);
layerId = "8272A2C0-77E7-4CE8-91FB-35293E9750F3";
paths = (
{
closed = 1;
nodes = (
"445 -10 OFFCURVE",
"567 119 OFFCURVE",
"610 343 CURVE",
"589 343 LINE",
"545 117 OFFCURVE",
"419 16 OFFCURVE",
"288 16 CURVE SMOOTH",
"160 16 OFFCURVE",
"69 127 OFFCURVE",
"111 343 CURVE SMOOTH",
"159 588 OFFCURVE",
"286 684 OFFCURVE",
"426 684 CURVE SMOOTH",
"526 684 OFFCURVE",
"600 636 OFFCURVE",
"617 520 CURVE",
"645 533 LINE",
"626 651 OFFCURVE",
"552 710 OFFCURVE",
"431 710 CURVE",
"257 710 OFFCURVE",
"133 588 OFFCURVE",
"85 343 CURVE",
"41 117 OFFCURVE",
"137 -10 OFFCURVE",
"281 -10 CURVE"
);
},
{
closed = 1;
nodes = (
"591 343 LINE",
"541 85 LINE",
"535 52 OFFCURVE",
"525 0 OFFCURVE",
"531 0 CURVE",
"548 0 LINE",
"615 343 LINE"
);
},
{
closed = 1;
nodes = (
"312 317 LINE",
"600 317 LINE",
"610 343 LINE",
"317 343 LINE"
);
}
);
width = 673;
},
{
anchors = (
{
name = bottom;
position = "{304, 0}";
},
{
name = top;
position = "{438, 700}";
}
);
layerId = "49D7192B-8546-40FB-A974-820F9CFADE69";
paths = (
{
closed = 1;
nodes = (
"467 -10 OFFCURVE",
"562 148 OFFCURVE",
"605 369 CURVE",
"578 369 LINE",
"544 194 OFFCURVE",
"449 63 OFFCURVE",
"310 63 CURVE SMOOTH",
"185 63 OFFCURVE",
"121 174 OFFCURVE",
"154 343 CURVE SMOOTH",
"192 537 OFFCURVE",
"295 637 OFFCURVE",
"426 637 CURVE SMOOTH",
"521 637 OFFCURVE",
"579 588 OFFCURVE",
"592 492 CURVE",
"672 518 LINE",
"656 644 OFFCURVE",
"578 710 OFFCURVE",
"440 710 CURVE",
"253 710 OFFCURVE",
"124 584 OFFCURVE",
"77 343 CURVE",
"34 121 OFFCURVE",
"125 -10 OFFCURVE",
"294 -10 CURVE"
);
},
{
closed = 1;
nodes = (
"579 369 LINE",
"530 115 LINE",
"523 82 OFFCURVE",
"522 0 OFFCURVE",
"537 0 CURVE",
"578 0 LINE",
"650 369 LINE"
);
},
{
closed = 1;
nodes = (
"318 300 LINE",
"632 300 LINE",
"648 369 LINE",
"331 369 LINE"
);
}
);
width = 698;
},
{
anchors = (
{
name = bottom;
position = "{306, 0}";
},
{
name = top;
position = "{450, 700}";
}
);
layerId = "C6B97978-DABE-4FCE-AE9B-6B243E6FFD49";
paths = (
{
closed = 1;
nodes = (
"496 -10 OFFCURVE",
"556 187 OFFCURVE",
"599 403 CURVE",
"563 403 LINE",
"542 297 OFFCURVE",
"490 126 OFFCURVE",
"339 126 CURVE SMOOTH",
"219 126 OFFCURVE",
"191 237 OFFCURVE",
"212 343 CURVE SMOOTH",
"236 468 OFFCURVE",
"306 574 OFFCURVE",
"426 574 CURVE SMOOTH",
"515 574 OFFCURVE",
"551 525 OFFCURVE",
"559 454 CURVE",
"707 497 LINE",
"696 635 OFFCURVE",
"613 710 OFFCURVE",
"452 710 CURVE",
"248 710 OFFCURVE",
"112 578 OFFCURVE",
"66 343 CURVE",
"24 127 OFFCURVE",
"108 -10 OFFCURVE",
"312 -10 CURVE"
);
},
{
closed = 1;
nodes = (
"563 403 LINE",
"515 156 LINE",
"508 123 OFFCURVE",
"518 0 OFFCURVE",
"544 0 CURVE",
"619 0 LINE",
"698 403 LINE"
);
},
{
closed = 1;
nodes = (
"325 277 LINE",
"673 277 LINE",
"698 403 LINE",
"350 403 LINE"
);
}
);
width = 731;
}
);
leftKerningGroup = O;
unicode = 0047;
},
{
glyphname = H;
lastChange = "2021-06-05 00:12:59 +0000";
layers = (
{
layerId = "DFC09A70-1A82-4D07-97CF-EECDCA771356";
paths = (
{
closed = 1;
nodes = (
"78 0 LINE",
"223 0 LINE",
"223 700 LINE",
"78 700 LINE"
);
},
{
closed = 1;
nodes = (
"467 0 LINE",
"612 0 LINE",
"612 700 LINE",
"467 700 LINE"
);
},
{
closed = 1;
nodes = (
"217 233 LINE",
"481 233 LINE",
"481 368 LINE",
"217 368 LINE"
);
}
);
width = 690;
},
{
layerId = "B950CEFC-B47C-4E26-91C8-4EFB806DAEDB";
paths = (
{
closed = 1;
nodes = (
"103 0 LINE",
"129 0 LINE",
"129 700 LINE",
"103 700 LINE"
);
},
{
closed = 1;
nodes = (
"523 0 LINE",
"549 0 LINE",
"549 700 LINE",
"523 700 LINE"
);
},
{
closed = 1;
nodes = (
"123 287 LINE",
"537 287 LINE",
"537 313 LINE",
"123 313 LINE"
);
}
);
width = 652;
},
{
layerId = "38A022BC-B010-4522-83EC-9E43C5A6F806";
paths = (
{
closed = 1;
nodes = (
"92 0 LINE",
"169 0 LINE",
"169 700 LINE",
"92 700 LINE"
);
},
{
closed = 1;
nodes = (
"499 0 LINE",
"576 0 LINE",
"576 700 LINE",
"499 700 LINE"
);
},
{
closed = 1;
nodes = (
"163 264 LINE",
"513 264 LINE",
"513 337 LINE",
"163 337 LINE"
);
}
);
width = 668;
},
{
layerId = "8272A2C0-77E7-4CE8-91FB-35293E9750F3";
paths = (
{
closed = 1;
nodes = (
"54 0 LINE",
"80 0 LINE",
"216 700 LINE",
"190 700 LINE"
);
},
{
closed = 1;
nodes = (
"474 0 LINE",
"500 0 LINE",
"636 700 LINE",
"610 700 LINE"
);
},
{
closed = 1;
nodes = (
"130 287 LINE",
"544 287 LINE",
"549 313 LINE",
"135 313 LINE"
);
}
);
width = 652;
},
{
layerId = "49D7192B-8546-40FB-A974-820F9CFADE69";
paths = (
{
closed = 1;
nodes = (
"43 0 LINE",
"120 0 LINE",
"256 700 LINE",
"179 700 LINE"
);
},
{
closed = 1;
nodes = (
"450 0 LINE",
"527 0 LINE",
"663 700 LINE",
"586 700 LINE"
);
},
{
closed = 1;
nodes = (
"166 264 LINE",
"516 264 LINE",
"530 337 LINE",
"180 337 LINE"
);
}
);
width = 668;
},
{
layerId = "C6B97978-DABE-4FCE-AE9B-6B243E6FFD49";
paths = (
{
closed = 1;
nodes = (
"29 0 LINE",
"174 0 LINE",
"310 700 LINE",
"165 700 LINE"
);
},
{
closed = 1;
nodes = (
"418 0 LINE",
"563 0 LINE",
"699 700 LINE",
"554 700 LINE"
);
},
{
closed = 1;
nodes = (
"214 233 LINE",
"478 233 LINE",
"504 368 LINE",
"240 368 LINE"
);
}
);
width = 690;
}
);
unicode = 0048;
},
{
glyphname = Hbar;
lastChange = "2021-06-05 00:12:59 +0000";
layers = (
{
components = (
{
name = H;
transform = "{1, 0, 0, 1, -4, 0}";
}
);
layerId = "DFC09A70-1A82-4D07-97CF-EECDCA771356";
paths = (
{
closed = 1;
nodes = (
"14 500 LINE",
"668 500 LINE",
"668 615 LINE",
"14 615 LINE"
);
}
);
width = 680;
},
{
components = (
{
name = H;
transform = "{1, 0, 0, 1, 1, 0}";
}
);
layerId = "B950CEFC-B47C-4E26-91C8-4EFB806DAEDB";
paths = (
{
closed = 1;
nodes = (
"55 500 LINE",
"599 500 LINE",
"599 526 LINE",
"55 526 LINE"
);
}
);
width = 656;
},
{
components = (
{
alignment = -1;
name = H;
transform = "{1, 0, 0, 1, -1, 0}";
}
);
layerId = "38A022BC-B010-4522-83EC-9E43C5A6F806";
paths = (
{
closed = 1;
nodes = (
"37 500 LINE",
"629 500 LINE",
"629 564 LINE",
"37 564 LINE"
);
}
);
width = 666;
},
{
components = (
{
name = H;
transform = "{1, 0, 0, 1, 1, 0}";
}
);
layerId = "8272A2C0-77E7-4CE8-91FB-35293E9750F3";
paths = (
{
closed = 1;
nodes = (
"104 500 LINE",
"648 500 LINE",
"653 526 LINE",
"109 526 LINE"
);
}
);
width = 656;
},
{
components = (
{
alignment = -1;
name = H;
transform = "{1, 0, 0, 1, -1, 0}";
}
);
layerId = "49D7192B-8546-40FB-A974-820F9CFADE69";
paths = (
{
closed = 1;
nodes = (
"86 500 LINE",
"678 500 LINE",
"690 564 LINE",
"98 564 LINE"
);
}
);
width = 666;
},
{
components = (
{
name = H;
transform = "{1, 0, 0, 1, -4, 0}";
}
);
layerId = "C6B97978-DABE-4FCE-AE9B-6B243E6FFD49";
paths = (
{
closed = 1;
nodes = (
"63 500 LINE",
"717 500 LINE",
"739 615 LINE",
"85 615 LINE"
);
}
);
width = 680;
}
);
unicode = 0126;
},
{
glyphname = I;
lastChange = "2021-06-05 00:12:59 +0000";
layers = (
{
anchors = (
{
name = dotbelow;
position = "{131, 0}";
},
{
name = top;
position = "{128, 700}";
}
);
layerId = "DFC09A70-1A82-4D07-97CF-EECDCA771356";
paths = (
{
closed = 1;
nodes = (
"58 0 LINE",
"203 0 LINE",
"203 700 LINE",
"58 700 LINE"
);
}
);
width = 261;
},
{
anchors = (
{
name = dotbelow;
position = "{116, 0}";
},
{
name = top;
position = "{116, 700}";
}
);
layerId = "B950CEFC-B47C-4E26-91C8-4EFB806DAEDB";
paths = (
{
closed = 1;
nodes = (
"103 0 LINE",
"129 0 LINE",
"129 700 LINE",
"103 700 LINE"
);
}
);
width = 232;
},
{
anchors = (
{
name = dotbelow;
position = "{122, 0}";
},
{
name = top;
position = "{121, 700}";
}
);
layerId = "38A022BC-B010-4522-83EC-9E43C5A6F806";
paths = (
{
closed = 1;
nodes = (
"84 0 LINE",
"161 0 LINE",
"161 700 LINE",
"84 700 LINE"
);
}
);
width = 244;
},
{
anchors = (
{
name = dotbelow;
position = "{67, 0}";
},
{
name = top;
position = "{203, 700}";
}
);
layerId = "8272A2C0-77E7-4CE8-91FB-35293E9750F3";
paths = (
{
closed = 1;
nodes = (
"54 0 LINE",
"80 0 LINE",
"216 700 LINE",
"190 700 LINE"
);
}
);
width = 232;
},
{
anchors = (
{
name = dotbelow;
position = "{73, 0}";
},
{
name = top;
position = "{208, 700}";
}
);
layerId = "49D7192B-8546-40FB-A974-820F9CFADE69";
paths = (
{
closed = 1;
nodes = (
"35 0 LINE",
"112 0 LINE",
"248 700 LINE",
"171 700 LINE"
);
}
);
width = 244;
},
{
anchors = (
{
name = dotbelow;
position = "{82, 0}";
},
{
name = top;
position = "{215, 700}";
}
);
layerId = "C6B97978-DABE-4FCE-AE9B-6B243E6FFD49";
paths = (
{
closed = 1;
nodes = (
"9 0 LINE",
"154 0 LINE",
"290 700 LINE",
"145 700 LINE"
);
}
);
width = 261;
}
);
unicode = 0049;
},
{
glyphname = J;
lastChange = "2021-06-05 00:12:59 +0000";
layers = (
{
layerId = "DFC09A70-1A82-4D07-97CF-EECDCA771356";
paths = (
{
closed = 1;
nodes = (
"45 79 OFFCURVE",
"123 -10 OFFCURVE",
"261 -10 CURVE SMOOTH",
"431 -10 OFFCURVE",
"504 113 OFFCURVE",
"504 258 CURVE SMOOTH",
"504 700 LINE",
"359 700 LINE",
"359 261 LINE SMOOTH",
"359 150 OFFCURVE",
"314 125 OFFCURVE",
"263 125 CURVE SMOOTH",
"212 125 OFFCURVE",
"171 154 OFFCURVE",
"158 224 CURVE",
"19 188 LINE"
);
}
);
width = 559;
},
{
layerId = "B950CEFC-B47C-4E26-91C8-4EFB806DAEDB";
paths = (
{
closed = 1;
nodes = (
"25 94 OFFCURVE",
"95 -10 OFFCURVE",
"213 -10 CURVE SMOOTH",
"363 -10 OFFCURVE",
"406 113 OFFCURVE",
"406 258 CURVE SMOOTH",
"406 700 LINE",
"380 700 LINE",
"380 253 LINE SMOOTH",
"380 100 OFFCURVE",
"328 16 OFFCURVE",
"213 16 CURVE SMOOTH",
"114 16 OFFCURVE",
"53 103 OFFCURVE",
"47 190 CURVE",
"21 190 LINE"
);
}
);
width = 501;
},
{
layerId = "38A022BC-B010-4522-83EC-9E43C5A6F806";
paths = (
{
closed = 1;
nodes = (
"34 88 OFFCURVE",
"107 -10 OFFCURVE",
"234 -10 CURVE SMOOTH",
"392 -10 OFFCURVE",
"448 113 OFFCURVE",
"448 258 CURVE SMOOTH",
"448 700 LINE",
"371 700 LINE",
"371 256 LINE SMOOTH",
"371 121 OFFCURVE",
"322 63 OFFCURVE",
"234 63 CURVE SMOOTH",
"156 63 OFFCURVE",
"104 125 OFFCURVE",
"95 205 CURVE",
"20 189 LINE"
);
}
);
width = 526;
},
{
layerId = "8272A2C0-77E7-4CE8-91FB-35293E9750F3";
paths = (
{
closed = 1;
nodes = (
"-5 94 OFFCURVE",
"44 -10 OFFCURVE",
"162 -10 CURVE SMOOTH",
"312 -10 OFFCURVE",
"379 113 OFFCURVE",
"408 258 CURVE SMOOTH",
"493 700 LINE",
"467 700 LINE",
"381 253 LINE SMOOTH",
"351 100 OFFCURVE",
"283 16 OFFCURVE",
"168 16 CURVE SMOOTH",
"69 16 OFFCURVE",
"24 103 OFFCURVE",
"35 190 CURVE",
"9 190 LINE"
);
}
);
width = 501;
},
{
layerId = "49D7192B-8546-40FB-A974-820F9CFADE69";
paths = (
{
closed = 1;
nodes = (
"3 88 OFFCURVE",
"56 -10 OFFCURVE",
"183 -10 CURVE SMOOTH",
"341 -10 OFFCURVE",
"421 113 OFFCURVE",
"450 258 CURVE SMOOTH",
"535 700 LINE",
"458 700 LINE",
"372 256 LINE SMOOTH",
"346 121 OFFCURVE",
"286 63 OFFCURVE",
"198 63 CURVE SMOOTH",
"120 63 OFFCURVE",
"80 125 OFFCURVE",
"86 205 CURVE",
"8 189 LINE"
);
}
);
width = 526;
},
{
layerId = "C6B97978-DABE-4FCE-AE9B-6B243E6FFD49";
paths = (
{
closed = 1;
nodes = (
"12 79 OFFCURVE",
"72 -10 OFFCURVE",
"210 -10 CURVE SMOOTH",
"380 -10 OFFCURVE",
"477 113 OFFCURVE",
"506 258 CURVE SMOOTH",
"591 700 LINE",
"446 700 LINE",
"361 261 LINE SMOOTH",
"340 150 OFFCURVE",
"290 125 OFFCURVE",
"239 125 CURVE SMOOTH",
"188 125 OFFCURVE",
"152 154 OFFCURVE",
"153 224 CURVE",
"7 188 LINE"
);
}
);
width = 559;
}
);
unicode = 004A;
},
{
glyphname = K;
lastChange = "2021-06-05 00:12:59 +0000";
layers = (
{
layerId = "DFC09A70-1A82-4D07-97CF-EECDCA771356";
paths = (
{
closed = 1;
nodes = (
"203 0 LINE",
"203 214 LINE",
"289 317 LINE",
"475 0 LINE",
"640 0 LINE",
"387 429 LINE",
"623 700 LINE",
"434 700 LINE",
"203 422 LINE",
"203 700 LINE",
"58 700 LINE",
"58 0 LINE"
);
}
);
width = 649;
},
{
layerId = "B950CEFC-B47C-4E26-91C8-4EFB806DAEDB";
paths = (
{
closed = 1;
nodes = (
"129 0 LINE",
"129 188 LINE",
"308 397 LINE",
"538 0 LINE",
"568 0 LINE",
"326 418 LINE",
"563 700 LINE",
"529 700 LINE",
"129 227 LINE",
"129 700 LINE",
"103 700 LINE",
"103 0 LINE"
);
}
);
width = 587;
},
{
layerId = "38A022BC-B010-4522-83EC-9E43C5A6F806";
paths = (
{
closed = 1;
nodes = (
"161 0 LINE",
"161 199 LINE",
"300 363 LINE",
"511 0 LINE",
"599 0 LINE",
"352 423 LINE",
"589 700 LINE",
"488 700 LINE",
"161 311 LINE",
"161 700 LINE",
"84 700 LINE",
"84 0 LINE"
);
}
);
width = 614;
},
{
layerId = "8272A2C0-77E7-4CE8-91FB-35293E9750F3";
paths = (
{
closed = 1;
nodes = (
"80 0 LINE",
"117 188 LINE",
"337 397 LINE",
"489 0 LINE",
"519 0 LINE",
"359 418 LINE",
"650 700 LINE",
"616 700 LINE",
"125 227 LINE",
"216 700 LINE",
"190 700 LINE",
"54 0 LINE"
);
}
);
width = 587;
},
{
layerId = "49D7192B-8546-40FB-A974-820F9CFADE69";
paths = (
{
closed = 1;
nodes = (
"112 0 LINE",
"151 199 LINE",
"322 363 LINE",
"462 0 LINE",
"550 0 LINE",
"386 423 LINE",
"676 700 LINE",
"575 700 LINE",
"173 311 LINE",
"248 700 LINE",
"171 700 LINE",
"35 0 LINE"
);
}
);
width = 614;
},
{
layerId = "C6B97978-DABE-4FCE-AE9B-6B243E6FFD49";
paths = (
{
closed = 1;
nodes = (
"154 0 LINE",
"196 214 LINE",
"302 317 LINE",
"426 0 LINE",
"591 0 LINE",
"422 429 LINE",
"710 700 LINE",
"521 700 LINE",
"236 422 LINE",
"290 700 LINE",
"145 700 LINE",
"9 0 LINE"
);
}
);
width = 649;
}
);
unicode = 004B;
},
{
glyphname = L;
lastChange = "2021-06-05 00:12:59 +0000";
layers = (
{
layerId = "DFC09A70-1A82-4D07-97CF-EECDCA771356";
paths = (
{
closed = 1;
nodes = (
"58 0 LINE",
"203 0 LINE",
"203 700 LINE",
"58 700 LINE"
);
},
{
closed = 1;
nodes = (
"78 0 LINE",
"512 0 LINE",
"512 135 LINE",
"78 135 LINE"
);
}
);
width = 538;
},
{
layerId = "B950CEFC-B47C-4E26-91C8-4EFB806DAEDB";
paths = (
{
closed = 1;
nodes = (
"103 0 LINE",
"129 0 LINE",
"129 700 LINE",
"103 700 LINE"
);
},
{
closed = 1;
nodes = (
"123 0 LINE",
"467 0 LINE",
"467 26 LINE",
"123 26 LINE"
);
}
);
width = 486;
},
{
layerId = "38A022BC-B010-4522-83EC-9E43C5A6F806";
paths = (
{
closed = 1;
nodes = (
"84 0 LINE",
"161 0 LINE",
"161 700 LINE",
"84 700 LINE"
);
},
{
closed = 1;
nodes = (
"104 0 LINE",
"486 0 LINE",
"486 73 LINE",
"104 73 LINE"
);
}
);
width = 508;
},
{
layerId = "8272A2C0-77E7-4CE8-91FB-35293E9750F3";
paths = (
{
closed = 1;
nodes = (
"54 0 LINE",
"80 0 LINE",
"216 700 LINE",
"190 700 LINE"
);
},
{
closed = 1;
nodes = (
"74 0 LINE",
"418 0 LINE",
"423 26 LINE",
"79 26 LINE"
);
}
);
width = 486;
},
{
layerId = "49D7192B-8546-40FB-A974-820F9CFADE69";
paths = (
{
closed = 1;
nodes = (
"35 0 LINE",
"112 0 LINE",
"248 700 LINE",
"171 700 LINE"
);
},
{
closed = 1;
nodes = (
"55 0 LINE",
"437 0 LINE",
"452 73 LINE",
"70 73 LINE"
);
}
);
width = 508;
},
{
layerId = "C6B97978-DABE-4FCE-AE9B-6B243E6FFD49";
paths = (
{
closed = 1;
nodes = (
"9 0 LINE",
"154 0 LINE",
"290 700 LINE",
"145 700 LINE"
);
},
{
closed = 1;
nodes = (
"29 0 LINE",
"463 0 LINE",
"490 135 LINE",
"56 135 LINE"
);
}
);
width = 538;
}
);
unicode = 004C;
},
{
glyphname = Lslash;
lastChange = "2021-06-05 00:12:59 +0000";
layers = (
{
components = (
{
name = L;
}
);
layerId = "DFC09A70-1A82-4D07-97CF-EECDCA771356";
paths = (
{
closed = 1;
nodes = (
"0 281 LINE",
"340 397 LINE",
"340 516 LINE",
"0 400 LINE"
);
}
);
width = 553;
},
{
components = (
{
name = L;
}
);
layerId = "B950CEFC-B47C-4E26-91C8-4EFB806DAEDB";
paths = (
{
closed = 1;
nodes = (
"0 373 LINE",
"251 473 LINE",
"251 500 LINE",
"0 400 LINE"
);
}
);
width = 491;
},
{
components = (
{
alignment = -1;
name = L;
}
);
layerId = "38A022BC-B010-4522-83EC-9E43C5A6F806";
paths = (
{
closed = 1;
nodes = (
"0 334 LINE",
"289 440 LINE",
"289 507 LINE",
"0 400 LINE"
);
}
);
width = 518;
},
{
components = (
{
name = L;
}
);
layerId = "8272A2C0-77E7-4CE8-91FB-35293E9750F3";
paths = (
{
closed = 1;
nodes = (
"24 373 LINE",
"294 473 LINE",
"300 500 LINE",
"29 400 LINE"
);
}
);
width = 491;
},
{
components = (
{
alignment = -1;
name = L;
}
);
layerId = "49D7192B-8546-40FB-A974-820F9CFADE69";
paths = (
{
closed = 1;
nodes = (
"16 334 LINE",
"326 440 LINE",
"339 507 LINE",
"29 400 LINE"
);
}
);
width = 518;
},
{
components = (
{
name = L;
}
);
layerId = "C6B97978-DABE-4FCE-AE9B-6B243E6FFD49";
paths = (
{
closed = 1;
nodes = (
"6 281 LINE",
"369 397 LINE",
"392 516 LINE",
"29 400 LINE"
);
}
);
width = 553;
}
);
unicode = 0141;
},
{
glyphname = M;
lastChange = "2021-06-05 00:12:59 +0000";
layers = (
{
layerId = "DFC09A70-1A82-4D07-97CF-EECDCA771356";
paths = (
{
closed = 1;
nodes = (
"203 0 LINE",
"203 415 LINE",
"340 145 LINE",
"434 145 LINE",
"570 415 LINE",
"570 0 LINE",
"715 0 LINE",
"715 712 LINE",
"587 712 LINE",
"387 347 LINE",
"186 712 LINE",
"58 712 LINE",
"58 0 LINE"
);
}
);
width = 773;
},
{
layerId = "B950CEFC-B47C-4E26-91C8-4EFB806DAEDB";
paths = (
{
closed = 1;
nodes = (
"129 0 LINE",
"129 658 LINE",
"363 171 LINE",
"387 171 LINE",
"617 658 LINE",
"617 0 LINE",
"643 0 LINE",
"643 712 LINE",
"614 712 LINE",
"375 203 LINE",
"132 712 LINE",
"103 712 LINE",
"103 0 LINE"
);
}
);
width = 746;
},
{
layerId = "38A022BC-B010-4522-83EC-9E43C5A6F806";
paths = (
{
closed = 1;
nodes = (
"161 0 LINE",
"161 554 LINE",
"353 160 LINE",
"407 160 LINE",
"597 554 LINE",
"597 0 LINE",
"674 0 LINE",
"674 712 LINE",
"602 712 LINE",
"380 265 LINE",
"155 712 LINE",
"84 712 LINE",
"84 0 LINE"
);
}
);
width = 758;
},
{
layerId = "8272A2C0-77E7-4CE8-91FB-35293E9750F3";
paths = (
{
closed = 1;
nodes = (
"80 0 LINE",
"208 658 LINE",
"348 171 LINE",
"372 171 LINE",
"696 658 LINE",
"568 0 LINE",
"594 0 LINE",
"733 712 LINE",
"704 712 LINE",
"366 203 LINE",
"222 712 LINE",
"193 712 LINE",
"54 0 LINE"
);
}
);
width = 746;
},
{
layerId = "49D7192B-8546-40FB-A974-820F9CFADE69";
paths = (
{
closed = 1;
nodes = (
"112 0 LINE",
"220 554 LINE",
"336 160 LINE",
"390 160 LINE",
"656 554 LINE",
"548 0 LINE",
"625 0 LINE",
"764 712 LINE",
"692 712 LINE",
"383 265 LINE",
"245 712 LINE",
"174 712 LINE",
"35 0 LINE"
);
}
);
width = 758;
},
{
layerId = "C6B97978-DABE-4FCE-AE9B-6B243E6FFD49";
paths = (
{
closed = 1;
nodes = (
"154 0 LINE",
"235 415 LINE",
"320 145 LINE",
"414 145 LINE",
"602 415 LINE",
"521 0 LINE",
"666 0 LINE",
"805 712 LINE",
"677 712 LINE",
"406 347 LINE",
"276 712 LINE",
"148 712 LINE",
"9 0 LINE"
);
}
);
width = 773;
}
);
unicode = 004D;
},
{
glyphname = N;
lastChange = "2021-06-05 00:12:59 +0000";
layers = (
{
anchors = (
{
name = top;
position = "{327, 700}";
}
);
layerId = "DFC09A70-1A82-4D07-97CF-EECDCA771356";
paths = (
{
closed = 1;
nodes = (
"203 0 LINE",
"203 414 LINE",
"478 0 LINE",
"598 0 LINE",
"598 700 LINE",
"453 700 LINE",
"453 285 LINE",
"178 700 LINE",
"58 700 LINE",
"58 0 LINE"
);
}
);
width = 656;
},
{
anchors = (
{
name = top;
position = "{339, 700}";
}
);
layerId = "B950CEFC-B47C-4E26-91C8-4EFB806DAEDB";
paths = (
{
closed = 1;
nodes = (
"129 -1 LINE",
"129 671 LINE",
"498 -1 LINE",
"537 -1 LINE",
"537 700 LINE",
"511 700 LINE",
"511 28 LINE",
"142 700 LINE",
"103 700 LINE",
"103 -1 LINE"
);
}
);
width = 640;
},
{
anchors = (
{
name = top;
position = "{334, 700}";
}
);
layerId = "38A022BC-B010-4522-83EC-9E43C5A6F806";
paths = (
{
closed = 1;
nodes = (
"161 -1 LINE",
"161 561 LINE",
"489 -1 LINE",
"563 -1 LINE",
"563 700 LINE",
"486 700 LINE",
"486 138 LINE",
"157 700 LINE",
"84 700 LINE",
"84 -1 LINE"
);
}
);
width = 647;
},
{
anchors = (
{
name = top;
position = "{426, 700}";
}
);
layerId = "8272A2C0-77E7-4CE8-91FB-35293E9750F3";
paths = (
{
closed = 1;
nodes = (
"80 -1 LINE",
"211 671 LINE",
"449 -1 LINE",
"488 -1 LINE",
"624 700 LINE",
"598 700 LINE",
"468 28 LINE",
"229 700 LINE",
"190 700 LINE",
"54 -1 LINE"
);
}
);
width = 640;
},
{
anchors = (
{
name = top;
position = "{421, 700}";
}
);
layerId = "49D7192B-8546-40FB-A974-820F9CFADE69";
paths = (
{
closed = 1;
nodes = (
"112 -1 LINE",
"221 561 LINE",
"440 -1 LINE",
"514 -1 LINE",
"650 700 LINE",
"573 700 LINE",
"464 138 LINE",
"244 700 LINE",
"171 700 LINE",
"35 -1 LINE"
);
}
);
width = 647;
},
{
anchors = (
{
name = top;
position = "{414, 700}";
}
);
layerId = "C6B97978-DABE-4FCE-AE9B-6B243E6FFD49";
paths = (
{
closed = 1;
nodes = (
"154 0 LINE",
"235 414 LINE",
"429 0 LINE",
"549 0 LINE",
"685 700 LINE",
"540 700 LINE",
"460 285 LINE",
"265 700 LINE",
"145 700 LINE",
"9 0 LINE"
);
}
);
width = 656;
}
);
unicode = 004E;
},
{
glyphname = Eng;
lastChange = "2021-06-05 00:12:59 +0000";
layers = (
{
components = (
{
name = N;
transform = "{1, 0, 0, 1, 1, 0}";
}
);
layerId = "DFC09A70-1A82-4D07-97CF-EECDCA771356";
paths = (
{
closed = 1;
nodes = (
"470 35 LINE",
"470 -6 LINE",
"470 -46 OFFCURVE",
"469 -73 OFFCURVE",
"409 -73 CURVE",
"342 -73 LINE",
"342 -192 LINE",
"468 -192 LINE SMOOTH",
"559 -192 OFFCURVE",
"598 -121 OFFCURVE",
"598 3 CURVE SMOOTH",
"598 8 LINE"
);
}
);
width = 656;
},
{
components = (
{
name = N;
}
);
layerId = "B950CEFC-B47C-4E26-91C8-4EFB806DAEDB";
paths = (
{
closed = 1;
nodes = (
"511 73 LINE",
"511 9 LINE",
"511 -48 OFFCURVE",
"513 -103 OFFCURVE",
"441 -103 CURVE SMOOTH",
"376 -103 LINE",
"376 -127 LINE",
"442 -127 LINE SMOOTH",
"531 -127 OFFCURVE",
"537 -66 OFFCURVE",
"537 8 CURVE SMOOTH",
"537 73 LINE"
);
}
);
width = 640;
},
{
components = (
{
alignment = -1;
name = N;
}
);
layerId = "38A022BC-B010-4522-83EC-9E43C5A6F806";
paths = (
{
closed = 1;
nodes = (
"493 57 LINE",
"493 3 LINE",
"493 -47 OFFCURVE",
"494 -90 OFFCURVE",
"427 -90 CURVE",
"361 -90 LINE",
"361 -155 LINE",
"453 -155 LINE SMOOTH",
"543 -155 OFFCURVE",
"563 -90 OFFCURVE",
"563 6 CURVE SMOOTH",
"563 45 LINE"
);
}
);
width = 647;
},
{
components = (
{
name = N;
}
);
layerId = "8272A2C0-77E7-4CE8-91FB-35293E9750F3";
paths = (
{
closed = 1;
nodes = (
"477 73 LINE",
"464 9 LINE",
"453 -48 OFFCURVE",
"444 -103 OFFCURVE",
"372 -103 CURVE SMOOTH",
"307 -103 LINE",
"303 -127 LINE",
"369 -127 LINE SMOOTH",
"458 -127 OFFCURVE",
"476 -66 OFFCURVE",
"490 8 CURVE SMOOTH",
"503 73 LINE"
);
}
);
width = 640;
},
{
components = (
{
alignment = -1;
name = N;
}
);
layerId = "49D7192B-8546-40FB-A974-820F9CFADE69";
paths = (
{
closed = 1;
nodes = (
"455 57 LINE",
"445 3 LINE",
"435 -47 OFFCURVE",
"428 -90 OFFCURVE",
"361 -90 CURVE",
"295 -90 LINE",
"282 -155 LINE",
"374 -155 LINE SMOOTH",
"464 -155 OFFCURVE",
"497 -90 OFFCURVE",
"516 6 CURVE SMOOTH",
"523 45 LINE"
);
}
);
width = 647;
},
{
components = (
{
name = N;
transform = "{1, 0, 0, 1, 1, 0}";
}
);
layerId = "C6B97978-DABE-4FCE-AE9B-6B243E6FFD49";
paths = (
{
closed = 1;
nodes = (
"428 35 LINE",
"420 -6 LINE",
"412 -46 OFFCURVE",
"406 -73 OFFCURVE",
"346 -73 CURVE",
"279 -73 LINE",
"256 -192 LINE",
"382 -192 LINE SMOOTH",
"473 -192 OFFCURVE",
"526 -121 OFFCURVE",
"550 3 CURVE SMOOTH",
"551 8 LINE"
);
}
);
width = 656;
}
);
unicode = 014A;
},
{
glyphname = O;
lastChange = "2021-06-05 00:12:59 +0000";
layers = (
{
anchors = (
{
name = dotbelow;
position = "{353, 0}";
},
{
name = horn;
position = "{423, 700}";
},
{
name = top;
position = "{353, 700}";
}
);
layerId = "DFC09A70-1A82-4D07-97CF-EECDCA771356";
paths = (
{
closed = 1;
nodes = (
"38 127 OFFCURVE",
"149 -10 OFFCURVE",
"353 -10 CURVE",
"567 -10 OFFCURVE",
"668 127 OFFCURVE",
"668 343 CURVE",
"668 578 OFFCURVE",
"567 710 OFFCURVE",
"353 710 CURVE",
"149 710 OFFCURVE",
"38 578 OFFCURVE",
"38 343 CURVE"
);
},
{
closed = 1;
nodes = (
"233 126 OFFCURVE",
"184 237 OFFCURVE",
"184 343 CURVE SMOOTH",
"184 468 OFFCURVE",
"233 574 OFFCURVE",
"353 574 CURVE SMOOTH",
"484 574 OFFCURVE",
"522 468 OFFCURVE",
"522 343 CURVE SMOOTH",
"522 237 OFFCURVE",
"484 126 OFFCURVE",
"353 126 CURVE SMOOTH"
);
}
);
width = 706;
},
{
anchors = (
{
name = dotbelow;
position = "{332, 0}";
},
{
name = horn;
position = "{414, 700}";
},
{
name = top;
position = "{332, 700}";
}
);
layerId = "B950CEFC-B47C-4E26-91C8-4EFB806DAEDB";
paths = (
{
closed = 1;
nodes = (
"57 117 OFFCURVE",
"158 -10 OFFCURVE",
"332 -10 CURVE",
"506 -10 OFFCURVE",
"607 117 OFFCURVE",
"607 343 CURVE",
"607 588 OFFCURVE",
"506 710 OFFCURVE",
"332 710 CURVE",
"158 710 OFFCURVE",
"57 588 OFFCURVE",
"57 343 CURVE"
);
},
{
closed = 1;
nodes = (
"192 16 OFFCURVE",
"83 117 OFFCURVE",
"83 343 CURVE SMOOTH",
"83 588 OFFCURVE",
"192 684 OFFCURVE",
"332 684 CURVE SMOOTH",
"473 684 OFFCURVE",
"581 588 OFFCURVE",
"581 343 CURVE SMOOTH",
"581 117 OFFCURVE",
"473 16 OFFCURVE",
"332 16 CURVE SMOOTH"
);
}
);
width = 664;
},
{
anchors = (
{
name = dotbelow;
position = "{341, 0}";
},
{
name = horn;
position = "{418, 700}";
},
{
name = top;
position = "{341, 700}";
}
);
layerId = "38A022BC-B010-4522-83EC-9E43C5A6F806";
paths = (
{
closed = 1;
nodes = (
"49 121 OFFCURVE",
"154 -10 OFFCURVE",
"341 -10 CURVE",
"532 -10 OFFCURVE",
"633 121 OFFCURVE",
"633 343 CURVE",
"633 584 OFFCURVE",
"532 710 OFFCURVE",
"341 710 CURVE",
"154 710 OFFCURVE",
"49 584 OFFCURVE",
"49 343 CURVE"
);
},
{
closed = 1;
nodes = (
"210 63 OFFCURVE",
"126 168 OFFCURVE",
"126 343 CURVE SMOOTH",
"126 537 OFFCURVE",
"210 637 OFFCURVE",
"341 637 CURVE SMOOTH",
"478 637 OFFCURVE",
"556 537 OFFCURVE",
"556 343 CURVE SMOOTH",
"556 168 OFFCURVE",
"478 63 OFFCURVE",
"341 63 CURVE SMOOTH"
);
}
);
width = 682;
},
{
anchors = (
{
name = dotbelow;
position = "{283, 0}";
},
{
name = horn;
position = "{501, 700}";
},
{
name = top;
position = "{419, 700}";
}
);
layerId = "8272A2C0-77E7-4CE8-91FB-35293E9750F3";
paths = (
{
closed = 1;
nodes = (
"31 117 OFFCURVE",
"107 -10 OFFCURVE",
"281 -10 CURVE",
"455 -10 OFFCURVE",
"581 117 OFFCURVE",
"625 343 CURVE",
"673 588 OFFCURVE",
"595 710 OFFCURVE",
"421 710 CURVE",
"247 710 OFFCURVE",
"123 588 OFFCURVE",
"75 343 CURVE"
);
},
{
closed = 1;
nodes = (
"147 16 OFFCURVE",
"57 117 OFFCURVE",
"101 343 CURVE SMOOTH",
"149 588 OFFCURVE",
"276 684 OFFCURVE",
"416 684 CURVE SMOOTH",
"557 684 OFFCURVE",
"647 588 OFFCURVE",
"599 343 CURVE SMOOTH",
"555 117 OFFCURVE",
"428 16 OFFCURVE",
"287 16 CURVE SMOOTH"
);
}
);
width = 664;
},
{
anchors = (
{
name = dotbelow;
position = "{292, 0}";
},
{
name = horn;
position = "{505, 700}";
},
{
name = top;
position = "{428, 700}";
}
);
layerId = "49D7192B-8546-40FB-A974-820F9CFADE69";
paths = (
{
closed = 1;
nodes = (
"24 121 OFFCURVE",
"103 -10 OFFCURVE",
"290 -10 CURVE",
"481 -10 OFFCURVE",
"608 121 OFFCURVE",
"651 343 CURVE",
"698 584 OFFCURVE",
"621 710 OFFCURVE",
"430 710 CURVE",
"243 710 OFFCURVE",
"114 584 OFFCURVE",
"67 343 CURVE"
);
},
{
closed = 1;
nodes = (
"174 63 OFFCURVE",
"110 168 OFFCURVE",
"144 343 CURVE SMOOTH",
"182 537 OFFCURVE",
"285 637 OFFCURVE",
"416 637 CURVE SMOOTH",
"553 637 OFFCURVE",
"612 537 OFFCURVE",
"574 343 CURVE SMOOTH",
"540 168 OFFCURVE",
"442 63 OFFCURVE",
"305 63 CURVE SMOOTH"
);
}
);
width = 682;
},
{
anchors = (
{
name = dotbelow;
position = "{304, 0}";
},
{
name = horn;
position = "{510, 700}";
},
{
name = top;
position = "{440, 700}";
}
);
layerId = "C6B97978-DABE-4FCE-AE9B-6B243E6FFD49";
paths = (
{
closed = 1;
nodes = (
"14 127 OFFCURVE",
"98 -10 OFFCURVE",
"302 -10 CURVE",
"516 -10 OFFCURVE",
"644 127 OFFCURVE",
"686 343 CURVE",
"732 578 OFFCURVE",
"656 710 OFFCURVE",
"442 710 CURVE",
"238 710 OFFCURVE",
"102 578 OFFCURVE",
"56 343 CURVE"
);
},
{
closed = 1;
nodes = (
"209 126 OFFCURVE",
"181 237 OFFCURVE",
"202 343 CURVE SMOOTH",
"226 468 OFFCURVE",
"296 574 OFFCURVE",
"416 574 CURVE SMOOTH",
"547 574 OFFCURVE",
"564 468 OFFCURVE",
"540 343 CURVE SMOOTH",
"519 237 OFFCURVE",
"460 126 OFFCURVE",
"329 126 CURVE SMOOTH"
);
}
);
width = 706;
}
);
leftKerningGroup = O;
rightKerningGroup = O;
unicode = 004F;
},
{
glyphname = Oslash;
lastChange = "2021-06-05 00:12:59 +0000";
layers = (
{
components = (
{
name = O;
transform = "{1, 0, 0, 1, -10, 0}";
}
);
layerId = "DFC09A70-1A82-4D07-97CF-EECDCA771356";
paths = (
{
closed = 1;
nodes = (
"39 15 LINE",
"140 -60 LINE",
"668 681 LINE",
"566 755 LINE"
);
}
);
width = 708;
},
{
components = (
{
name = O;
transform = "{1, 0, 0, 1, -3, 0}";
}
);
layerId = "B950CEFC-B47C-4E26-91C8-4EFB806DAEDB";
paths = (
{
closed = 1;
nodes = (
"96 15 LINE",
"117 0 LINE",
"589 688 LINE",
"567 702 LINE"
);
}
);
width = 683;
},
{
components = (
{
alignment = -1;
name = O;
transform = "{1, 0, 0, 1, -6, 0}";
}
);
layerId = "38A022BC-B010-4522-83EC-9E43C5A6F806";
paths = (
{
closed = 1;
nodes = (
"72 15 LINE",
"127 -26 LINE",
"623 685 LINE",
"567 725 LINE"
);
}
);
width = 694;
},
{
components = (
{
name = O;
transform = "{1, 0, 0, 1, -3, 0}";
}
);
layerId = "8272A2C0-77E7-4CE8-91FB-35293E9750F3";
paths = (
{
closed = 1;
nodes = (
"50 15 LINE",
"68 0 LINE",
"674 688 LINE",
"655 702 LINE"
);
}
);
width = 683;
},
{
components = (
{
alignment = -1;
name = O;
transform = "{1, 0, 0, 1, -6, 0}";
}
);
layerId = "49D7192B-8546-40FB-A974-820F9CFADE69";
paths = (
{
closed = 1;
nodes = (
"26 15 LINE",
"73 -26 LINE",
"708 685 LINE",
"659 725 LINE"
);
}
);
width = 694;
},
{
components = (
{
name = O;
transform = "{1, 0, 0, 1, -10, 0}";
}
);
layerId = "C6B97978-DABE-4FCE-AE9B-6B243E6FFD49";
paths = (
{
closed = 1;
nodes = (
"-7 15 LINE",
"80 -60 LINE",
"752 681 LINE",
"664 755 LINE"
);
}
);
width = 708;
}
);
leftKerningGroup = O;
rightKerningGroup = O;
unicode = 00D8;
},
{
glyphname = OE;
lastChange = "2021-06-05 00:12:59 +0000";
layers = (
{
components = (
{
alignment = -1;
name = E;
transform = "{1, 0, 0, 1, 449, 0}";
}
);
layerId = "DFC09A70-1A82-4D07-97CF-EECDCA771356";
paths = (
{
closed = 1;
nodes = (
"23 127 OFFCURVE",
"114 -10 OFFCURVE",
"318 -10 CURVE",
"492 -10 OFFCURVE",
"573 118 OFFCURVE",
"573 343 CURVE",
"573 567 OFFCURVE",
"492 709 OFFCURVE",
"318 710 CURVE",
"114 710 OFFCURVE",
"23 578 OFFCURVE",
"23 343 CURVE"
);
},
{
closed = 1;
nodes = (
"218 126 OFFCURVE",
"169 237 OFFCURVE",
"169 343 CURVE SMOOTH",
"169 468 OFFCURVE",
"218 574 OFFCURVE",
"338 574 CURVE SMOOTH",
"469 574 OFFCURVE",
"506 448 OFFCURVE",
"506 343 CURVE SMOOTH",
"506 257 OFFCURVE",
"469 126 OFFCURVE",
"338 126 CURVE SMOOTH"
);
}
);
width = 1037;
},
{
components = (
{
alignment = -1;
name = E;
transform = "{1, 0, 0, 1, 483, 0}";
}
);
layerId = "B950CEFC-B47C-4E26-91C8-4EFB806DAEDB";
paths = (
{
closed = 1;
nodes = (
"67 117 OFFCURVE",
"168 -10 OFFCURVE",
"342 -10 CURVE",
"516 -10 OFFCURVE",
"617 117 OFFCURVE",
"617 343 CURVE",
"617 588 OFFCURVE",
"516 710 OFFCURVE",
"342 710 CURVE",
"168 710 OFFCURVE",
"67 588 OFFCURVE",
"67 343 CURVE"
);
},
{
closed = 1;
nodes = (
"202 16 OFFCURVE",
"93 117 OFFCURVE",
"93 343 CURVE SMOOTH",
"93 588 OFFCURVE",
"202 684 OFFCURVE",
"342 684 CURVE SMOOTH",
"483 684 OFFCURVE",
"591 588 OFFCURVE",
"591 343 CURVE SMOOTH",
"591 117 OFFCURVE",
"483 16 OFFCURVE",
"342 16 CURVE SMOOTH"
);
}
);
width = 1043;
},
{
components = (
{
alignment = -1;
name = E;
transform = "{1, 0, 0, 1, 468, 0}";
}
);
layerId = "38A022BC-B010-4522-83EC-9E43C5A6F806";
paths = (
{
closed = 1;
nodes = (
"48 121 OFFCURVE",
"145 -10 OFFCURVE",
"332 -10 CURVE",
"506 -10 OFFCURVE",
"598 117 OFFCURVE",
"598 343 CURVE",
"598 579 OFFCURVE",
"506 710 OFFCURVE",
"332 710 CURVE",
"145 710 OFFCURVE",
"48 584 OFFCURVE",
"48 343 CURVE"
);
},
{
closed = 1;
nodes = (
"209 63 OFFCURVE",
"126 168 OFFCURVE",
"126 343 CURVE SMOOTH",
"126 537 OFFCURVE",
"209 637 OFFCURVE",
"340 637 CURVE SMOOTH",
"477 637 OFFCURVE",
"555 528 OFFCURVE",
"555 343 CURVE SMOOTH",
"555 177 OFFCURVE",
"477 63 OFFCURVE",
"340 63 CURVE SMOOTH"
);
}
);
width = 1040;
},
{
components = (
{
alignment = -1;
name = E;
transform = "{1, 0, 0, 1, 483, 0}";
}
);
layerId = "8272A2C0-77E7-4CE8-91FB-35293E9750F3";
paths = (
{
closed = 1;
nodes = (
"41 117 OFFCURVE",
"117 -10 OFFCURVE",
"291 -10 CURVE",
"465 -10 OFFCURVE",
"591 117 OFFCURVE",
"635 343 CURVE",
"683 588 OFFCURVE",
"605 710 OFFCURVE",
"431 710 CURVE",
"257 710 OFFCURVE",
"133 588 OFFCURVE",
"85 343 CURVE"
);
},
{
closed = 1;
nodes = (
"157 16 OFFCURVE",
"67 117 OFFCURVE",
"111 343 CURVE SMOOTH",
"159 588 OFFCURVE",
"286 684 OFFCURVE",
"426 684 CURVE SMOOTH",
"567 684 OFFCURVE",
"657 588 OFFCURVE",
"609 343 CURVE SMOOTH",
"565 117 OFFCURVE",
"438 16 OFFCURVE",
"297 16 CURVE SMOOTH"
);
}
);
width = 1043;
},
{
components = (
{
alignment = -1;
name = E;
transform = "{1, 0, 0, 1, 468, 0}";
}
);
layerId = "49D7192B-8546-40FB-A974-820F9CFADE69";
paths = (
{
closed = 1;
nodes = (
"23 121 OFFCURVE",
"94 -10 OFFCURVE",
"281 -10 CURVE",
"455 -10 OFFCURVE",
"572 117 OFFCURVE",
"616 343 CURVE",
"662 579 OFFCURVE",
"595 710 OFFCURVE",
"421 710 CURVE",
"234 710 OFFCURVE",
"113 584 OFFCURVE",
"66 343 CURVE"
);
},
{
closed = 1;
nodes = (
"173 63 OFFCURVE",
"110 168 OFFCURVE",
"144 343 CURVE SMOOTH",
"182 537 OFFCURVE",
"284 637 OFFCURVE",
"415 637 CURVE SMOOTH",
"552 637 OFFCURVE",
"609 528 OFFCURVE",
"573 343 CURVE SMOOTH",
"541 177 OFFCURVE",
"441 63 OFFCURVE",
"304 63 CURVE SMOOTH"
);
}
);
width = 1040;
},
{
components = (
{
alignment = -1;
name = E;
transform = "{1, 0, 0, 1, 449, 0}";
}
);
layerId = "C6B97978-DABE-4FCE-AE9B-6B243E6FFD49";
paths = (
{
closed = 1;
nodes = (
"-1 127 OFFCURVE",
"63 -10 OFFCURVE",
"267 -10 CURVE",
"441 -10 OFFCURVE",
"547 118 OFFCURVE",
"591 343 CURVE",
"635 567 OFFCURVE",
"581 709 OFFCURVE",
"407 710 CURVE",
"203 710 OFFCURVE",
"87 578 OFFCURVE",
"41 343 CURVE"
);
},
{
closed = 1;
nodes = (
"194 126 OFFCURVE",
"166 237 OFFCURVE",
"187 343 CURVE SMOOTH",
"211 468 OFFCURVE",
"281 574 OFFCURVE",
"401 574 CURVE SMOOTH",
"532 574 OFFCURVE",
"544 448 OFFCURVE",
"524 343 CURVE SMOOTH",
"507 257 OFFCURVE",
"445 126 OFFCURVE",
"314 126 CURVE SMOOTH"
);
}
);
width = 1037;
}
);
leftKerningGroup = O;
unicode = 0152;
},
{
glyphname = P;
lastChange = "2021-06-05 00:12:59 +0000";
layers = (
{
layerId = "DFC09A70-1A82-4D07-97CF-EECDCA771356";
paths = (
{
closed = 1;
nodes = (
"58 0 LINE",
"203 0 LINE",
"203 700 LINE",
"58 700 LINE"
);
},
{
closed = 1;
nodes = (
"78 246 LINE",
"332 246 LINE",
"332 381 LINE",
"78 381 LINE"
);
},
{
closed = 1;
nodes = (
"78 565 LINE",
"332 565 LINE",
"332 700 LINE",
"78 700 LINE"
);
},
{
closed = 1;
nodes = (
"409 565 OFFCURVE",
"429 528 OFFCURVE",
"429 473 CURVE SMOOTH",
"429 409 OFFCURVE",
"405 382 OFFCURVE",
"332 381 CURVE",
"332 246 LINE",
"465 246 OFFCURVE",
"574 320 OFFCURVE",
"574 473 CURVE",
"574 616 OFFCURVE",
"465 700 OFFCURVE",
"332 700 CURVE",
"332 565 LINE"
);
}
);
width = 602;
},
{
layerId = "B950CEFC-B47C-4E26-91C8-4EFB806DAEDB";
paths = (
{
closed = 1;
nodes = (
"103 0 LINE",
"129 0 LINE",
"129 700 LINE",
"103 700 LINE"
);
},
{
closed = 1;
nodes = (
"123 307 LINE",
"327 307 LINE",
"327 333 LINE",
"123 333 LINE"
);
},
{
closed = 1;
nodes = (
"123 674 LINE",
"327 674 LINE",
"327 700 LINE",
"123 700 LINE"
);
},
{
closed = 1;
nodes = (
"432 672 OFFCURVE",
"509 624 OFFCURVE",
"509 500 CURVE SMOOTH",
"509 362 OFFCURVE",
"432 335 OFFCURVE",
"327 333 CURVE",
"327 307 LINE",
"458 309 OFFCURVE",
"535 362 OFFCURVE",
"535 500 CURVE",
"535 624 OFFCURVE",
"458 699 OFFCURVE",
"327 700 CURVE",
"327 674 LINE"
);
}
);
width = 577;
},
{
layerId = "38A022BC-B010-4522-83EC-9E43C5A6F806";
paths = (
{
closed = 1;
nodes = (
"84 0 LINE",
"161 0 LINE",
"161 700 LINE",
"84 700 LINE"
);
},
{
closed = 1;
nodes = (
"104 281 LINE",
"329 281 LINE",
"329 354 LINE",
"104 354 LINE"
);
},
{
closed = 1;
nodes = (
"104 627 LINE",
"329 627 LINE",
"329 700 LINE",
"104 700 LINE"
);
},
{
closed = 1;
nodes = (
"422 626 OFFCURVE",
"475 583 OFFCURVE",
"475 488 CURVE SMOOTH",
"475 382 OFFCURVE",
"420 355 OFFCURVE",
"329 354 CURVE",
"329 281 LINE",
"461 282 OFFCURVE",
"552 344 OFFCURVE",
"552 488 CURVE",
"552 621 OFFCURVE",
"461 699 OFFCURVE",
"329 700 CURVE",
"329 627 LINE"
);
}
);
width = 588;
},
{
layerId = "8272A2C0-77E7-4CE8-91FB-35293E9750F3";
paths = (
{
closed = 1;
nodes = (
"54 0 LINE",
"80 0 LINE",
"216 700 LINE",
"190 700 LINE"
);
},
{
closed = 1;
nodes = (
"134 307 LINE",
"338 307 LINE",
"343 333 LINE",
"139 333 LINE"
);
},
{
closed = 1;
nodes = (
"205 674 LINE",
"409 674 LINE",
"414 700 LINE",
"210 700 LINE"
);
},
{
closed = 1;
nodes = (
"514 672 OFFCURVE",
"582 624 OFFCURVE",
"558 500 CURVE SMOOTH",
"531 362 OFFCURVE",
"449 335 OFFCURVE",
"343 333 CURVE",
"338 307 LINE",
"469 309 OFFCURVE",
"557 362 OFFCURVE",
"584 500 CURVE",
"608 624 OFFCURVE",
"545 699 OFFCURVE",
"414 700 CURVE",
"409 674 LINE"
);
}
);
width = 577;
},
{
layerId = "49D7192B-8546-40FB-A974-820F9CFADE69";
paths = (
{
closed = 1;
nodes = (
"35 0 LINE",
"112 0 LINE",
"248 700 LINE",
"171 700 LINE"
);
},
{
closed = 1;
nodes = (
"110 281 LINE",
"335 281 LINE",
"349 354 LINE",
"124 354 LINE"
);
},
{
closed = 1;
nodes = (
"177 627 LINE",
"402 627 LINE",
"416 700 LINE",
"191 700 LINE"
);
},
{
closed = 1;
nodes = (
"495 626 OFFCURVE",
"540 583 OFFCURVE",
"521 488 CURVE SMOOTH",
"501 382 OFFCURVE",
"440 355 OFFCURVE",
"349 354 CURVE",
"335 281 LINE",
"467 282 OFFCURVE",
"570 344 OFFCURVE",
"598 488 CURVE",
"624 621 OFFCURVE",
"548 699 OFFCURVE",
"416 700 CURVE",
"402 627 LINE"
);
}
);
width = 588;
},
{
layerId = "C6B97978-DABE-4FCE-AE9B-6B243E6FFD49";
paths = (
{
closed = 1;
nodes = (
"9 0 LINE",
"154 0 LINE",
"290 700 LINE",
"145 700 LINE"
);
},
{
closed = 1;
nodes = (
"77 246 LINE",
"331 246 LINE",
"357 381 LINE",
"103 381 LINE"
);
},
{
closed = 1;
nodes = (
"139 565 LINE",
"393 565 LINE",
"419 700 LINE",
"165 700 LINE"
);
},
{
closed = 1;
nodes = (
"470 565 OFFCURVE",
"483 528 OFFCURVE",
"472 473 CURVE SMOOTH",
"460 409 OFFCURVE",
"431 382 OFFCURVE",
"357 381 CURVE",
"331 246 LINE",
"464 246 OFFCURVE",
"588 320 OFFCURVE",
"617 473 CURVE",
"645 616 OFFCURVE",
"552 700 OFFCURVE",
"419 700 CURVE",
"393 565 LINE"
);
}
);
width = 602;
}
);
unicode = 0050;
},
{
glyphname = Thorn;
lastChange = "2021-06-05 00:12:59 +0000";
layers = (
{
layerId = "DFC09A70-1A82-4D07-97CF-EECDCA771356";
paths = (
{
closed = 1;
nodes = (
"58 0 LINE",
"203 0 LINE",
"203 700 LINE",
"58 700 LINE"
);
},
{
closed = 1;
nodes = (
"78 136 LINE",
"332 136 LINE",
"332 271 LINE",
"78 271 LINE"
);
},
{
closed = 1;
nodes = (
"78 455 LINE",
"332 455 LINE",
"332 590 LINE",
"78 590 LINE"
);
},
{
closed = 1;
nodes = (
"409 455 OFFCURVE",
"429 418 OFFCURVE",
"429 363 CURVE SMOOTH",
"429 299 OFFCURVE",
"405 272 OFFCURVE",
"332 271 CURVE",
"332 136 LINE",
"465 136 OFFCURVE",
"574 210 OFFCURVE",
"574 363 CURVE",
"574 506 OFFCURVE",
"465 590 OFFCURVE",
"332 590 CURVE",
"332 455 LINE"
);
}
);
width = 602;
},
{
layerId = "B950CEFC-B47C-4E26-91C8-4EFB806DAEDB";
paths = (
{
closed = 1;
nodes = (
"103 0 LINE",
"129 0 LINE",
"129 700 LINE",
"103 700 LINE"
);
},
{
closed = 1;
nodes = (
"123 167 LINE",
"327 167 LINE",
"327 193 LINE",
"123 193 LINE"
);
},
{
closed = 1;
nodes = (
"123 534 LINE",
"327 534 LINE",
"327 560 LINE",
"123 560 LINE"
);
},
{
closed = 1;
nodes = (
"432 532 OFFCURVE",
"509 484 OFFCURVE",
"509 360 CURVE SMOOTH",
"509 222 OFFCURVE",
"432 195 OFFCURVE",
"327 193 CURVE",
"327 167 LINE",
"458 169 OFFCURVE",
"535 222 OFFCURVE",
"535 360 CURVE",
"535 484 OFFCURVE",
"458 559 OFFCURVE",
"327 560 CURVE",
"327 534 LINE"
);
}
);
width = 577;
},
{
layerId = "38A022BC-B010-4522-83EC-9E43C5A6F806";
paths = (
{
closed = 1;
nodes = (
"84 0 LINE",
"161 0 LINE",
"161 700 LINE",
"84 700 LINE"
);
},
{
closed = 1;
nodes = (
"104 154 LINE",
"329 154 LINE",
"329 226 LINE",
"104 226 LINE"
);
},
{
closed = 1;
nodes = (
"104 500 LINE",
"329 500 LINE",
"329 573 LINE",
"104 573 LINE"
);
},
{
closed = 1;
nodes = (
"422 499 OFFCURVE",
"475 456 OFFCURVE",
"475 361 CURVE SMOOTH",
"475 255 OFFCURVE",
"420 228 OFFCURVE",
"329 226 CURVE",
"329 154 LINE",
"461 155 OFFCURVE",
"552 217 OFFCURVE",
"552 361 CURVE",
"552 493 OFFCURVE",
"461 572 OFFCURVE",
"329 573 CURVE",
"329 500 LINE"
);
}
);
width = 588;
},
{
layerId = "8272A2C0-77E7-4CE8-91FB-35293E9750F3";
paths = (
{
closed = 1;
nodes = (
"54 0 LINE",
"80 0 LINE",
"216 700 LINE",
"190 700 LINE"
);
},
{
closed = 1;
nodes = (
"107 167 LINE",
"311 167 LINE",
"316 193 LINE",
"112 193 LINE"
);
},
{
closed = 1;
nodes = (
"178 534 LINE",
"382 534 LINE",
"387 560 LINE",
"183 560 LINE"
);
},
{
closed = 1;
nodes = (
"487 532 OFFCURVE",
"554 484 OFFCURVE",
"530 360 CURVE SMOOTH",
"504 222 OFFCURVE",
"421 195 OFFCURVE",
"316 193 CURVE",
"311 167 LINE",
"442 169 OFFCURVE",
"530 222 OFFCURVE",
"556 360 CURVE",
"580 484 OFFCURVE",
"518 559 OFFCURVE",
"387 560 CURVE",
"382 534 LINE"
);
}
);
width = 577;
},
{
layerId = "49D7192B-8546-40FB-A974-820F9CFADE69";
paths = (
{
closed = 1;
nodes = (
"35 0 LINE",
"112 0 LINE",
"248 700 LINE",
"171 700 LINE"
);
},
{
closed = 1;
nodes = (
"85 154 LINE",
"310 154 LINE",
"324 226 LINE",
"99 226 LINE"
);
},
{
closed = 1;
nodes = (
"153 500 LINE",
"378 500 LINE",
"392 573 LINE",
"167 573 LINE"
);
},
{
closed = 1;
nodes = (
"470 499 OFFCURVE",
"515 456 OFFCURVE",
"497 361 CURVE SMOOTH",
"476 255 OFFCURVE",
"416 228 OFFCURVE",
"324 226 CURVE",
"310 154 LINE",
"443 155 OFFCURVE",
"546 217 OFFCURVE",
"574 361 CURVE",
"599 493 OFFCURVE",
"524 572 OFFCURVE",
"392 573 CURVE",
"378 500 LINE"
);
}
);
width = 588;
},
{
layerId = "C6B97978-DABE-4FCE-AE9B-6B243E6FFD49";
paths = (
{
closed = 1;
nodes = (
"9 0 LINE",
"154 0 LINE",
"290 700 LINE",
"145 700 LINE"
);
},
{
closed = 1;
nodes = (
"56 136 LINE",
"310 136 LINE",
"336 271 LINE",
"82 271 LINE"
);
},
{
closed = 1;
nodes = (
"118 455 LINE",
"372 455 LINE",
"398 590 LINE",
"144 590 LINE"
);
},
{
closed = 1;
nodes = (
"449 455 OFFCURVE",
"462 418 OFFCURVE",
"451 363 CURVE SMOOTH",
"439 299 OFFCURVE",
"409 272 OFFCURVE",
"336 271 CURVE",
"310 136 LINE",
"443 136 OFFCURVE",
"566 210 OFFCURVE",
"596 363 CURVE",
"624 506 OFFCURVE",
"531 590 OFFCURVE",
"398 590 CURVE",
"372 455 LINE"
);
}
);
width = 602;
}
);
unicode = 00DE;
},
{
glyphname = Q;
lastChange = "2021-06-05 00:12:59 +0000";
layers = (
{
layerId = "DFC09A70-1A82-4D07-97CF-EECDCA771356";
paths = (
{
closed = 1;
nodes = (
"566 -10 OFFCURVE",
"667 127 OFFCURVE",
"668 343 CURVE",
"668 578 OFFCURVE",
"567 710 OFFCURVE",
"353 710 CURVE",
"149 710 OFFCURVE",
"38 578 OFFCURVE",
"38 343 CURVE",
"38 127 OFFCURVE",
"149 -10 OFFCURVE",
"353 -10 CURVE"
);
},
{
closed = 1;
nodes = (
"233 126 OFFCURVE",
"184 237 OFFCURVE",
"184 343 CURVE SMOOTH",
"184 468 OFFCURVE",
"233 574 OFFCURVE",
"353 574 CURVE SMOOTH",
"484 574 OFFCURVE",
"522 468 OFFCURVE",
"522 343 CURVE SMOOTH",
"522 237 OFFCURVE",
"484 126 OFFCURVE",
"353 126 CURVE SMOOTH"
);
},
{
closed = 1;
nodes = (
"300 -53 LINE SMOOTH",
"335 -137 OFFCURVE",
"393 -178 OFFCURVE",
"466 -178 CURVE SMOOTH",
"585 -178 LINE",
"585 -53 LINE",
"523 -53 LINE SMOOTH",
"459 -53 OFFCURVE",
"441 -32 OFFCURVE",
"434 -11 CURVE SMOOTH",
"397 101 LINE",
"254 57 LINE"
);
}
);
width = 706;
},
{
layerId = "B950CEFC-B47C-4E26-91C8-4EFB806DAEDB";
paths = (
{
closed = 1;
nodes = (
"516 -10 OFFCURVE",
"617 117 OFFCURVE",
"617 343 CURVE",
"617 588 OFFCURVE",
"516 710 OFFCURVE",
"342 710 CURVE",
"168 710 OFFCURVE",
"67 588 OFFCURVE",
"67 343 CURVE",
"67 117 OFFCURVE",
"168 -10 OFFCURVE",
"342 -10 CURVE"
);
},
{
closed = 1;
nodes = (
"202 16 OFFCURVE",
"93 117 OFFCURVE",
"93 343 CURVE SMOOTH",
"93 588 OFFCURVE",
"202 684 OFFCURVE",
"342 684 CURVE SMOOTH",
"483 684 OFFCURVE",
"591 588 OFFCURVE",
"591 343 CURVE SMOOTH",
"591 117 OFFCURVE",
"483 16 OFFCURVE",
"342 16 CURVE SMOOTH"
);
},
{
closed = 1;
nodes = (
"370 -75 LINE SMOOTH",
"383 -126 OFFCURVE",
"428 -163 OFFCURVE",
"488 -163 CURVE SMOOTH",
"559 -163 LINE",
"559 -139 LINE",
"500 -139 LINE SMOOTH",
"433 -139 OFFCURVE",
"401 -107 OFFCURVE",
"388 -52 CURVE SMOOTH",
"374 9 LINE",
"350 5 LINE"
);
}
);
width = 684;
},
{
layerId = "38A022BC-B010-4522-83EC-9E43C5A6F806";
paths = (
{
closed = 1;
nodes = (
"537 -10 OFFCURVE",
"638 121 OFFCURVE",
"639 343 CURVE",
"639 584 OFFCURVE",
"538 710 OFFCURVE",
"347 710 CURVE",
"160 710 OFFCURVE",
"55 584 OFFCURVE",
"55 343 CURVE",
"55 121 OFFCURVE",
"160 -10 OFFCURVE",
"347 -10 CURVE"
);
},
{
closed = 1;
nodes = (
"215 63 OFFCURVE",
"132 168 OFFCURVE",
"132 343 CURVE SMOOTH",
"132 537 OFFCURVE",
"215 637 OFFCURVE",
"347 637 CURVE SMOOTH",
"483 637 OFFCURVE",
"561 537 OFFCURVE",
"561 343 CURVE SMOOTH",
"561 168 OFFCURVE",
"483 63 OFFCURVE",
"347 63 CURVE SMOOTH"
);
},
{
closed = 1;
nodes = (
"340 -66 LINE SMOOTH",
"362 -131 OFFCURVE",
"413 -169 OFFCURVE",
"479 -169 CURVE SMOOTH",
"570 -169 LINE",
"570 -102 LINE",
"510 -102 LINE SMOOTH",
"444 -102 OFFCURVE",
"418 -75 OFFCURVE",
"408 -34 CURVE SMOOTH",
"384 48 LINE",
"309 27 LINE"
);
}
);
width = 693;
},
{
layerId = "8272A2C0-77E7-4CE8-91FB-35293E9750F3";
paths = (
{
closed = 1;
nodes = (
"465 -10 OFFCURVE",
"591 117 OFFCURVE",
"635 343 CURVE",
"683 588 OFFCURVE",
"605 710 OFFCURVE",
"431 710 CURVE",
"257 710 OFFCURVE",
"133 588 OFFCURVE",
"85 343 CURVE",
"41 117 OFFCURVE",
"117 -10 OFFCURVE",
"291 -10 CURVE"
);
},
{
closed = 1;
nodes = (
"157 16 OFFCURVE",
"67 117 OFFCURVE",
"111 343 CURVE SMOOTH",
"159 588 OFFCURVE",
"286 684 OFFCURVE",
"426 684 CURVE SMOOTH",
"567 684 OFFCURVE",
"657 588 OFFCURVE",
"609 343 CURVE SMOOTH",
"565 117 OFFCURVE",
"438 16 OFFCURVE",
"297 16 CURVE SMOOTH"
);
},
{
closed = 1;
nodes = (
"307 -75 LINE SMOOTH",
"310 -126 OFFCURVE",
"348 -163 OFFCURVE",
"408 -163 CURVE SMOOTH",
"479 -163 LINE",
"483 -139 LINE",
"424 -139 LINE SMOOTH",
"357 -139 OFFCURVE",
"332 -107 OFFCURVE",
"329 -52 CURVE SMOOTH",
"327 9 LINE",
"302 5 LINE"
);
}
);
width = 684;
},
{
layerId = "49D7192B-8546-40FB-A974-820F9CFADE69";
paths = (
{
closed = 1;
nodes = (
"486 -10 OFFCURVE",
"613 121 OFFCURVE",
"657 343 CURVE",
"704 584 OFFCURVE",
"627 710 OFFCURVE",
"436 710 CURVE",
"249 710 OFFCURVE",
"120 584 OFFCURVE",
"73 343 CURVE",
"30 121 OFFCURVE",
"109 -10 OFFCURVE",
"296 -10 CURVE"
);
},
{
closed = 1;
nodes = (
"179 63 OFFCURVE",
"116 168 OFFCURVE",
"150 343 CURVE SMOOTH",
"188 537 OFFCURVE",
"290 637 OFFCURVE",
"422 637 CURVE SMOOTH",
"558 637 OFFCURVE",
"617 537 OFFCURVE",
"579 343 CURVE SMOOTH",
"545 168 OFFCURVE",
"447 63 OFFCURVE",
"311 63 CURVE SMOOTH"
);
},
{
closed = 1;
nodes = (
"279 -66 LINE SMOOTH",
"288 -131 OFFCURVE",
"332 -169 OFFCURVE",
"398 -169 CURVE SMOOTH",
"489 -169 LINE",
"502 -102 LINE",
"442 -102 LINE SMOOTH",
"376 -102 OFFCURVE",
"355 -75 OFFCURVE",
"353 -34 CURVE SMOOTH",
"345 48 LINE",
"266 27 LINE"
);
}
);
width = 693;
},
{
layerId = "C6B97978-DABE-4FCE-AE9B-6B243E6FFD49";
paths = (
{
closed = 1;
nodes = (
"515 -10 OFFCURVE",
"643 127 OFFCURVE",
"686 343 CURVE",
"732 578 OFFCURVE",
"656 710 OFFCURVE",
"442 710 CURVE",
"238 710 OFFCURVE",
"102 578 OFFCURVE",
"56 343 CURVE",
"14 127 OFFCURVE",
"98 -10 OFFCURVE",
"302 -10 CURVE"
);
},
{
closed = 1;
nodes = (
"209 126 OFFCURVE",
"181 237 OFFCURVE",
"202 343 CURVE SMOOTH",
"226 468 OFFCURVE",
"296 574 OFFCURVE",
"416 574 CURVE SMOOTH",
"547 574 OFFCURVE",
"564 468 OFFCURVE",
"540 343 CURVE SMOOTH",
"519 237 OFFCURVE",
"460 126 OFFCURVE",
"329 126 CURVE SMOOTH"
);
},
{
closed = 1;
nodes = (
"241 -53 LINE SMOOTH",
"260 -137 OFFCURVE",
"310 -178 OFFCURVE",
"383 -178 CURVE SMOOTH",
"502 -178 LINE",
"526 -53 LINE",
"464 -53 LINE SMOOTH",
"400 -53 OFFCURVE",
"386 -32 OFFCURVE",
"383 -11 CURVE SMOOTH",
"368 101 LINE",
"216 57 LINE"
);
}
);
width = 706;
}
);
leftKerningGroup = O;
rightKerningGroup = O;
unicode = 0051;
},
{
glyphname = R;
lastChange = "2021-06-05 00:12:59 +0000";
layers = (
{
anchors = (
{
name = bottom;
position = "{276, 0}";
},
{
name = top;
position = "{294, 700}";
}
);
layerId = "DFC09A70-1A82-4D07-97CF-EECDCA771356";
paths = (
{
closed = 1;
nodes = (
"58 0 LINE",
"203 0 LINE",
"203 700 LINE",
"58 700 LINE"
);
},
{
closed = 1;
nodes = (
"78 246 LINE",
"332 246 LINE",
"332 381 LINE",
"78 381 LINE"
);
},
{
closed = 1;
nodes = (
"78 565 LINE",
"332 565 LINE",
"332 700 LINE",
"78 700 LINE"
);
},
{
closed = 1;
nodes = (
"409 565 OFFCURVE",
"429 528 OFFCURVE",
"429 473 CURVE SMOOTH",
"429 409 OFFCURVE",
"405 382 OFFCURVE",
"332 381 CURVE",
"332 246 LINE",
"465 246 OFFCURVE",
"574 310 OFFCURVE",
"574 473 CURVE",
"574 616 OFFCURVE",
"465 700 OFFCURVE",
"332 700 CURVE",
"332 565 LINE"
);
},
{
closed = 1;
nodes = (
"430 0 LINE",
"589 0 LINE",
"419 299 LINE",
"260 299 LINE"
);
}
);
width = 623;
},
{
anchors = (
{
name = bottom;
position = "{307, 0}";
},
{
name = top;
position = "{308, 700}";
}
);
layerId = "B950CEFC-B47C-4E26-91C8-4EFB806DAEDB";
paths = (
{
closed = 1;
nodes = (
"103 0 LINE",
"129 0 LINE",
"129 700 LINE",
"103 700 LINE"
);
},
{
closed = 1;
nodes = (
"123 307 LINE",
"327 307 LINE",
"327 333 LINE",
"123 333 LINE"
);
},
{
closed = 1;
nodes = (
"123 674 LINE",
"327 674 LINE",
"327 700 LINE",
"123 700 LINE"
);
},
{
closed = 1;
nodes = (
"432 672 OFFCURVE",
"509 624 OFFCURVE",
"509 500 CURVE SMOOTH",
"509 362 OFFCURVE",
"432 335 OFFCURVE",
"327 333 CURVE",
"327 307 LINE",
"458 309 OFFCURVE",
"535 362 OFFCURVE",
"535 500 CURVE",
"535 624 OFFCURVE",
"458 699 OFFCURVE",
"327 700 CURVE",
"327 674 LINE"
);
},
{
closed = 1;
nodes = (
"515 0 LINE",
"545 0 LINE",
"372 320 LINE",
"342 320 LINE"
);
}
);
width = 606;
},
{
anchors = (
{
name = bottom;
position = "{294, 0}";
},
{
name = top;
position = "{302, 700}";
}
);
layerId = "38A022BC-B010-4522-83EC-9E43C5A6F806";
paths = (
{
closed = 1;
nodes = (
"84 0 LINE",
"161 0 LINE",
"161 700 LINE",
"84 700 LINE"
);
},
{
closed = 1;
nodes = (
"104 281 LINE",
"329 281 LINE",
"329 354 LINE",
"104 354 LINE"
);
},
{
closed = 1;
nodes = (
"104 627 LINE",
"329 627 LINE",
"329 700 LINE",
"104 700 LINE"
);
},
{
closed = 1;
nodes = (
"422 626 OFFCURVE",
"475 583 OFFCURVE",
"475 488 CURVE SMOOTH",
"475 382 OFFCURVE",
"420 355 OFFCURVE",
"329 354 CURVE",
"329 281 LINE",
"461 282 OFFCURVE",
"552 340 OFFCURVE",
"552 488 CURVE",
"552 621 OFFCURVE",
"461 699 OFFCURVE",
"329 700 CURVE",
"329 627 LINE"
);
},
{
closed = 1;
nodes = (
"479 0 LINE",
"564 0 LINE",
"392 311 LINE",
"307 311 LINE"
);
}
);
width = 613;
},
{
anchors = (
{
name = bottom;
position = "{258, 0}";
},
{
name = top;
position = "{395, 700}";
}
);
layerId = "8272A2C0-77E7-4CE8-91FB-35293E9750F3";
paths = (
{
closed = 1;
nodes = (
"54 0 LINE",
"80 0 LINE",
"216 700 LINE",
"190 700 LINE"
);
},
{
closed = 1;
nodes = (
"134 307 LINE",
"338 307 LINE",
"343 333 LINE",
"139 333 LINE"
);
},
{
closed = 1;
nodes = (
"205 674 LINE",
"409 674 LINE",
"414 700 LINE",
"210 700 LINE"
);
},
{
closed = 1;
nodes = (
"514 672 OFFCURVE",
"582 624 OFFCURVE",
"558 500 CURVE SMOOTH",
"531 362 OFFCURVE",
"449 335 OFFCURVE",
"343 333 CURVE",
"338 307 LINE",
"469 309 OFFCURVE",
"557 362 OFFCURVE",
"584 500 CURVE",
"608 624 OFFCURVE",
"545 699 OFFCURVE",
"414 700 CURVE",
"409 674 LINE"
);
},
{
closed = 1;
nodes = (
"466 0 LINE",
"496 0 LINE",
"386 320 LINE",
"356 320 LINE"
);
}
);
width = 606;
},
{
anchors = (
{
name = bottom;
position = "{245, 0}";
},
{
name = top;
position = "{389, 700}";
}
);
layerId = "49D7192B-8546-40FB-A974-820F9CFADE69";
paths = (
{
closed = 1;
nodes = (
"35 0 LINE",
"112 0 LINE",
"248 700 LINE",
"171 700 LINE"
);
},
{
closed = 1;
nodes = (
"110 281 LINE",
"335 281 LINE",
"349 354 LINE",
"124 354 LINE"
);
},
{
closed = 1;
nodes = (
"177 627 LINE",
"402 627 LINE",
"416 700 LINE",
"191 700 LINE"
);
},
{
closed = 1;
nodes = (
"495 626 OFFCURVE",
"540 583 OFFCURVE",
"521 488 CURVE SMOOTH",
"501 382 OFFCURVE",
"440 355 OFFCURVE",
"349 354 CURVE",
"335 281 LINE",
"467 282 OFFCURVE",
"569 340 OFFCURVE",
"598 488 CURVE",
"624 621 OFFCURVE",
"548 699 OFFCURVE",
"416 700 CURVE",
"402 627 LINE"
);
},
{
closed = 1;
nodes = (
"430 0 LINE",
"515 0 LINE",
"404 311 LINE",
"319 311 LINE"
);
}
);
width = 613;
},
{
anchors = (
{
name = bottom;
position = "{227, 0}";
},
{
name = top;
position = "{381, 700}";
}
);
layerId = "C6B97978-DABE-4FCE-AE9B-6B243E6FFD49";
paths = (
{
closed = 1;
nodes = (
"9 0 LINE",
"154 0 LINE",
"290 700 LINE",
"145 700 LINE"
);
},
{
closed = 1;
nodes = (
"77 246 LINE",
"331 246 LINE",
"357 381 LINE",
"103 381 LINE"
);
},
{
closed = 1;
nodes = (
"139 565 LINE",
"393 565 LINE",
"419 700 LINE",
"165 700 LINE"
);
},
{
closed = 1;
nodes = (
"470 565 OFFCURVE",
"483 528 OFFCURVE",
"472 473 CURVE SMOOTH",
"460 409 OFFCURVE",
"431 382 OFFCURVE",
"357 381 CURVE",
"331 246 LINE",
"464 246 OFFCURVE",
"586 310 OFFCURVE",
"617 473 CURVE",
"645 616 OFFCURVE",
"552 700 OFFCURVE",
"419 700 CURVE",
"393 565 LINE"
);
},
{
closed = 1;
nodes = (
"381 0 LINE",
"540 0 LINE",
"429 299 LINE",
"270 299 LINE"
);
}
);
width = 623;
}
);
unicode = 0052;
},
{
glyphname = S;
lastChange = "2021-06-05 00:12:59 +0000";
layers = (
{
anchors = (
{
name = bottom;
position = "{286, 0}";
},
{
name = top;
position = "{304, 700}";
}
);
layerId = "DFC09A70-1A82-4D07-97CF-EECDCA771356";
paths = (
{
closed = 1;
nodes = (
"491 -10 OFFCURVE",
"596 99 OFFCURVE",
"596 213 CURVE SMOOTH",
"596 359 OFFCURVE",
"471 396 OFFCURVE",
"353 418 CURVE SMOOTH",
"294 429 OFFCURVE",
"201 442 OFFCURVE",
"201 494 CURVE SMOOTH",
"201 564 OFFCURVE",
"261 575 OFFCURVE",
"306 575 CURVE",
"384 575 OFFCURVE",
"435 549 OFFCURVE",
"467 469 CURVE",
"594 506 LINE",
"551 629 OFFCURVE",
"456 710 OFFCURVE",
"318 710 CURVE SMOOTH",
"154 710 OFFCURVE",
"56 615 OFFCURVE",
"56 501 CURVE SMOOTH",
"56 345 OFFCURVE",
"162 321 OFFCURVE",
"294 288 CURVE SMOOTH",
"370 269 OFFCURVE",
"451 268 OFFCURVE",
"451 206 CURVE SMOOTH",
"451 156 OFFCURVE",
"401 125 OFFCURVE",
"338 125 CURVE SMOOTH",
"278 125 OFFCURVE",
"190 136 OFFCURVE",
"161 232 CURVE",
"29 194 LINE",
"83 62 OFFCURVE",
"192 -10 OFFCURVE",
"338 -10 CURVE SMOOTH"
);
}
);
width = 633;
},
{
anchors = (
{
name = bottom;
position = "{274, 0}";
},
{
name = top;
position = "{268, 700}";
}
);
layerId = "B950CEFC-B47C-4E26-91C8-4EFB806DAEDB";
paths = (
{
closed = 1;
nodes = (
"415 -9 OFFCURVE",
"501 71 OFFCURVE",
"501 174 CURVE SMOOTH",
"501 298 OFFCURVE",
"399 335 OFFCURVE",
"283 363 CURVE SMOOTH",
"177 389 OFFCURVE",
"87 416 OFFCURVE",
"87 530 CURVE SMOOTH",
"87 613 OFFCURVE",
"162 684 OFFCURVE",
"268 684 CURVE SMOOTH",
"398 684 OFFCURVE",
"459 621 OFFCURVE",
"482 509 CURVE",
"508 512 LINE",
"484 639 OFFCURVE",
"409 710 OFFCURVE",
"268 710 CURVE SMOOTH",
"148 710 OFFCURVE",
"61 631 OFFCURVE",
"61 527 CURVE SMOOTH",
"61 404 OFFCURVE",
"158 365 OFFCURVE",
"275 337 CURVE SMOOTH",
"375 313 OFFCURVE",
"475 285 OFFCURVE",
"475 170 CURVE SMOOTH",
"475 88 OFFCURVE",
"400 17 OFFCURVE",
"292 17 CURVE SMOOTH",
"156 17 OFFCURVE",
"91 83 OFFCURVE",
"65 198 CURVE",
"40 192 LINE",
"69 61 OFFCURVE",
"146 -9 OFFCURVE",
"290 -9 CURVE SMOOTH"
);
}
);
width = 563;
},
{
anchors = (
{
name = bottom;
position = "{279, 0}";
},
{
name = top;
position = "{283, 700}";
}
);
layerId = "38A022BC-B010-4522-83EC-9E43C5A6F806";
paths = (
{
closed = 1;
nodes = (
"448 -9 OFFCURVE",
"542 83 OFFCURVE",
"542 191 CURVE SMOOTH",
"542 324 OFFCURVE",
"430 361 OFFCURVE",
"313 387 CURVE SMOOTH",
"227 406 OFFCURVE",
"136 427 OFFCURVE",
"136 515 CURVE SMOOTH",
"136 592 OFFCURVE",
"204 637 OFFCURVE",
"284 637 CURVE",
"392 637 OFFCURVE",
"449 590 OFFCURVE",
"476 492 CURVE",
"545 509 LINE",
"513 635 OFFCURVE",
"429 710 OFFCURVE",
"289 710 CURVE SMOOTH",
"151 710 OFFCURVE",
"59 624 OFFCURVE",
"59 516 CURVE SMOOTH",
"59 379 OFFCURVE",
"160 346 OFFCURVE",
"283 316 CURVE SMOOTH",
"373 294 OFFCURVE",
"465 278 OFFCURVE",
"465 185 CURVE SMOOTH",
"465 117 OFFCURVE",
"400 63 OFFCURVE",
"312 63 CURVE SMOOTH",
"208 63 OFFCURVE",
"133 106 OFFCURVE",
"106 213 CURVE",
"35 193 LINE",
"75 61 OFFCURVE",
"166 -9 OFFCURVE",
"311 -9 CURVE SMOOTH"
);
}
);
width = 593;
},
{
anchors = (
{
name = bottom;
position = "{225, 0}";
},
{
name = top;
position = "{355, 700}";
}
);
layerId = "8272A2C0-77E7-4CE8-91FB-35293E9750F3";
paths = (
{
closed = 1;
nodes = (
"365 -9 OFFCURVE",
"466 71 OFFCURVE",
"486 174 CURVE SMOOTH",
"510 298 OFFCURVE",
"416 335 OFFCURVE",
"305 363 CURVE SMOOTH",
"204 389 OFFCURVE",
"119 416 OFFCURVE",
"141 530 CURVE SMOOTH",
"158 613 OFFCURVE",
"246 684 OFFCURVE",
"352 684 CURVE SMOOTH",
"482 684 OFFCURVE",
"531 621 OFFCURVE",
"532 509 CURVE",
"559 512 LINE",
"560 639 OFFCURVE",
"498 710 OFFCURVE",
"357 710 CURVE SMOOTH",
"237 710 OFFCURVE",
"135 631 OFFCURVE",
"115 527 CURVE SMOOTH",
"91 404 OFFCURVE",
"180 365 OFFCURVE",
"292 337 CURVE SMOOTH",
"387 313 OFFCURVE",
"482 285 OFFCURVE",
"459 170 CURVE SMOOTH",
"444 88 OFFCURVE",
"355 17 OFFCURVE",
"247 17 CURVE SMOOTH",
"111 17 OFFCURVE",
"59 83 OFFCURVE",
"55 198 CURVE",
"29 192 LINE",
"32 61 OFFCURVE",
"96 -9 OFFCURVE",
"240 -9 CURVE SMOOTH"
);
}
);
width = 563;
},
{
anchors = (
{
name = bottom;
position = "{230, 0}";
},
{
name = top;
position = "{370, 700}";
}
);
layerId = "49D7192B-8546-40FB-A974-820F9CFADE69";
paths = (
{
closed = 1;
nodes = (
"398 -9 OFFCURVE",
"510 83 OFFCURVE",
"531 191 CURVE SMOOTH",
"556 324 OFFCURVE",
"452 361 OFFCURVE",
"340 387 CURVE SMOOTH",
"257 406 OFFCURVE",
"170 427 OFFCURVE",
"188 515 CURVE SMOOTH",
"202 592 OFFCURVE",
"279 637 OFFCURVE",
"359 637 CURVE",
"467 637 OFFCURVE",
"515 590 OFFCURVE",
"523 492 CURVE",
"595 509 LINE",
"588 635 OFFCURVE",
"518 710 OFFCURVE",
"378 710 CURVE SMOOTH",
"240 710 OFFCURVE",
"132 624 OFFCURVE",
"111 516 CURVE SMOOTH",
"84 379 OFFCURVE",
"179 346 OFFCURVE",
"296 316 CURVE SMOOTH",
"382 294 OFFCURVE",
"470 278 OFFCURVE",
"452 185 CURVE SMOOTH",
"439 117 OFFCURVE",
"364 63 OFFCURVE",
"276 63 CURVE SMOOTH",
"172 63 OFFCURVE",
"105 106 OFFCURVE",
"99 213 CURVE",
"24 193 LINE",
"38 61 OFFCURVE",
"116 -9 OFFCURVE",
"261 -9 CURVE SMOOTH"
);
}
);
width = 593;
},
{
anchors = (
{
name = bottom;
position = "{237, 0}";
},
{
name = top;
position = "{391, 700}";
}
);
layerId = "C6B97978-DABE-4FCE-AE9B-6B243E6FFD49";
paths = (
{
closed = 1;
nodes = (
"440 -10 OFFCURVE",
"567 99 OFFCURVE",
"589 213 CURVE SMOOTH",
"617 359 OFFCURVE",
"499 396 OFFCURVE",
"386 418 CURVE SMOOTH",
"329 429 OFFCURVE",
"238 442 OFFCURVE",
"248 494 CURVE SMOOTH",
"262 564 OFFCURVE",
"324 575 OFFCURVE",
"369 575 CURVE",
"447 575 OFFCURVE",
"493 549 OFFCURVE",
"510 469 CURVE",
"644 506 LINE",
"625 629 OFFCURVE",
"545 710 OFFCURVE",
"407 710 CURVE SMOOTH",
"243 710 OFFCURVE",
"127 615 OFFCURVE",
"105 501 CURVE SMOOTH",
"74 345 OFFCURVE",
"176 321 OFFCURVE",
"301 288 CURVE SMOOTH",
"374 269 OFFCURVE",
"454 268 OFFCURVE",
"442 206 CURVE SMOOTH",
"433 156 OFFCURVE",
"377 125 OFFCURVE",
"314 125 CURVE SMOOTH",
"254 125 OFFCURVE",
"168 136 OFFCURVE",
"158 232 CURVE",
"18 194 LINE",
"46 62 OFFCURVE",
"141 -10 OFFCURVE",
"287 -10 CURVE SMOOTH"
);
}
);
width = 633;
}
);
leftKerningGroup = O;
unicode = 0053;
},
{
glyphname = Germandbls;
lastChange = "2021-06-05 00:12:59 +0000";
layers = (
{
layerId = "DFC09A70-1A82-4D07-97CF-EECDCA771356";
paths = (
{
closed = 1;
nodes = (
"470 -10 OFFCURVE",
"563 66 OFFCURVE",
"563 212 CURVE SMOOTH",
"563 232 LINE SMOOTH",
"563 320 OFFCURVE",
"477 416 OFFCURVE",
"395 424 CURVE",
"516 581 LINE",
"466 654 OFFCURVE",
"381 710 OFFCURVE",
"290 710 CURVE SMOOTH",
"142 710 OFFCURVE",
"58 617 OFFCURVE",
"58 463 CURVE SMOOTH",
"58 0 LINE",
"193 0 LINE",
"193 470 LINE SMOOTH",
"193 558 OFFCURVE",
"238 585 OFFCURVE",
"287 585 CURVE SMOOTH",
"304 585 OFFCURVE",
"334 577 OFFCURVE",
"354 560 CURVE",
"266 434 LINE",
"266 325 LINE",
"336 325 OFFCURVE",
"428 305 OFFCURVE",
"428 240 CURVE SMOOTH",
"428 220 LINE SMOOTH",
"428 162 OFFCURVE",
"404 115 OFFCURVE",
"338 115 CURVE",
"321 115 OFFCURVE",
"297 123 OFFCURVE",
"278 132 CURVE",
"257 15 LINE",
"279 0 OFFCURVE",
"317 -10 OFFCURVE",
"346 -10 CURVE"
);
}
);
width = 593;
},
{
layerId = "B950CEFC-B47C-4E26-91C8-4EFB806DAEDB";
paths = (
{
closed = 1;
nodes = (
"439 -10 OFFCURVE",
"524 57 OFFCURVE",
"524 206 CURVE SMOOTH",
"524 226 LINE SMOOTH",
"524 357 OFFCURVE",
"455 433 OFFCURVE",
"328 439 CURVE",
"475 586 LINE",
"428 681 OFFCURVE",
"370 710 OFFCURVE",
"300 710 CURVE SMOOTH",
"169 710 OFFCURVE",
"103 624 OFFCURVE",
"103 484 CURVE SMOOTH",
"103 0 LINE",
"129 0 LINE",
"129 480 LINE SMOOTH",
"129 602 OFFCURVE",
"177 684 OFFCURVE",
"299 684 CURVE SMOOTH",
"358 684 OFFCURVE",
"406 658 OFFCURVE",
"441 591 CURVE",
"284 430 LINE",
"284 416 LINE",
"421 416 OFFCURVE",
"498 366 OFFCURVE",
"498 225 CURVE SMOOTH",
"498 205 LINE SMOOTH",
"498 68 OFFCURVE",
"418 16 OFFCURVE",
"322 16 CURVE",
"268 16 OFFCURVE",
"233 32 OFFCURVE",
"206 65 CURVE",
"186 47 LINE",
"219 8 OFFCURVE",
"261 -10 OFFCURVE",
"321 -10 CURVE"
);
}
);
width = 586;
},
{
layerId = "38A022BC-B010-4522-83EC-9E43C5A6F806";
paths = (
{
closed = 1;
nodes = (
"452 -10 OFFCURVE",
"541 61 OFFCURVE",
"541 209 CURVE SMOOTH",
"541 229 LINE SMOOTH",
"541 341 OFFCURVE",
"464 426 OFFCURVE",
"357 433 CURVE",
"493 584 LINE",
"444 669 OFFCURVE",
"375 710 OFFCURVE",
"296 710 CURVE SMOOTH",
"157 710 OFFCURVE",
"84 621 OFFCURVE",
"84 475 CURVE SMOOTH",
"84 0 LINE",
"156 0 LINE",
"156 476 LINE SMOOTH",
"156 583 OFFCURVE",
"203 642 OFFCURVE",
"294 642 CURVE SMOOTH",
"335 642 OFFCURVE",
"375 623 OFFCURVE",
"404 578 CURVE",
"276 432 LINE",
"276 377 LINE",
"385 377 OFFCURVE",
"468 340 OFFCURVE",
"468 231 CURVE SMOOTH",
"468 211 LINE SMOOTH",
"468 108 OFFCURVE",
"412 58 OFFCURVE",
"329 58 CURVE",
"291 58 OFFCURVE",
"260 71 OFFCURVE",
"237 94 CURVE",
"216 33 LINE",
"245 5 OFFCURVE",
"285 -10 OFFCURVE",
"332 -10 CURVE"
);
}
);
width = 589;
},
{
layerId = "8272A2C0-77E7-4CE8-91FB-35293E9750F3";
paths = (
{
closed = 1;
nodes = (
"388 -10 OFFCURVE",
"486 57 OFFCURVE",
"515 206 CURVE SMOOTH",
"519 226 LINE SMOOTH",
"545 357 OFFCURVE",
"491 433 OFFCURVE",
"365 439 CURVE",
"540 586 LINE",
"512 681 OFFCURVE",
"459 710 OFFCURVE",
"389 710 CURVE SMOOTH",
"258 710 OFFCURVE",
"176 624 OFFCURVE",
"148 484 CURVE SMOOTH",
"54 0 LINE",
"80 0 LINE",
"174 480 LINE SMOOTH",
"197 602 OFFCURVE",
"261 684 OFFCURVE",
"383 684 CURVE SMOOTH",
"442 684 OFFCURVE",
"485 658 OFFCURVE",
"507 591 CURVE",
"319 430 LINE",
"316 416 LINE",
"453 416 OFFCURVE",
"521 366 OFFCURVE",
"493 225 CURVE SMOOTH",
"489 205 LINE SMOOTH",
"463 68 OFFCURVE",
"373 16 OFFCURVE",
"277 16 CURVE",
"223 16 OFFCURVE",
"191 32 OFFCURVE",
"170 65 CURVE",
"147 47 LINE",
"172 8 OFFCURVE",
"210 -10 OFFCURVE",
"270 -10 CURVE"
);
}
);
width = 586;
},
{
layerId = "49D7192B-8546-40FB-A974-820F9CFADE69";
paths = (
{
closed = 1;
nodes = (
"401 -10 OFFCURVE",
"504 61 OFFCURVE",
"533 209 CURVE SMOOTH",
"537 229 LINE SMOOTH",
"559 341 OFFCURVE",
"498 426 OFFCURVE",
"393 433 CURVE",
"558 584 LINE",
"525 669 OFFCURVE",
"464 710 OFFCURVE",
"385 710 CURVE SMOOTH",
"246 710 OFFCURVE",
"156 621 OFFCURVE",
"128 475 CURVE SMOOTH",
"35 0 LINE",
"107 0 LINE",
"200 476 LINE SMOOTH",
"221 583 OFFCURVE",
"279 642 OFFCURVE",
"370 642 CURVE SMOOTH",
"411 642 OFFCURVE",
"448 623 OFFCURVE",
"468 578 CURVE",
"311 432 LINE",
"301 377 LINE",
"410 377 OFFCURVE",
"485 340 OFFCURVE",
"464 231 CURVE SMOOTH",
"460 211 LINE SMOOTH",
"440 108 OFFCURVE",
"375 58 OFFCURVE",
"292 58 CURVE",
"254 58 OFFCURVE",
"225 71 OFFCURVE",
"207 94 CURVE",
"174 33 LINE",
"197 5 OFFCURVE",
"234 -10 OFFCURVE",
"281 -10 CURVE"
);
}
);
width = 589;
},
{
layerId = "C6B97978-DABE-4FCE-AE9B-6B243E6FFD49";
paths = (
{
closed = 1;
nodes = (
"419 -10 OFFCURVE",
"527 66 OFFCURVE",
"556 212 CURVE SMOOTH",
"560 232 LINE SMOOTH",
"577 320 OFFCURVE",
"509 416 OFFCURVE",
"429 424 CURVE",
"580 581 LINE",
"545 654 OFFCURVE",
"470 710 OFFCURVE",
"379 710 CURVE SMOOTH",
"231 710 OFFCURVE",
"129 617 OFFCURVE",
"99 463 CURVE SMOOTH",
"9 0 LINE",
"144 0 LINE",
"236 470 LINE SMOOTH",
"253 558 OFFCURVE",
"303 585 OFFCURVE",
"352 585 CURVE SMOOTH",
"369 585 OFFCURVE",
"398 577 OFFCURVE",
"414 560 CURVE",
"302 434 LINE",
"281 325 LINE",
"351 325 OFFCURVE",
"439 305 OFFCURVE",
"426 240 CURVE SMOOTH",
"422 220 LINE SMOOTH",
"411 162 OFFCURVE",
"378 115 OFFCURVE",
"312 115 CURVE",
"295 115 OFFCURVE",
"272 123 OFFCURVE",
"255 132 CURVE",
"211 15 LINE",
"230 0 OFFCURVE",
"266 -10 OFFCURVE",
"295 -10 CURVE"
);
}
);
width = 593;
}
);
unicode = 1E9E;
},
{
glyphname = Schwa;
lastChange = "2021-06-05 00:12:59 +0000";
layers = (
{
layerId = "DFC09A70-1A82-4D07-97CF-EECDCA771356";
paths = (
{
closed = 1;
nodes = (
"541 -10 OFFCURVE",
"632 127 OFFCURVE",
"632 343 CURVE",
"632 578 OFFCURVE",
"541 710 OFFCURVE",
"327 710 CURVE",
"179 710 OFFCURVE",
"85 640 OFFCURVE",
"45 512 CURVE",
"187 470 LINE",
"208 532 OFFCURVE",
"252 574 OFFCURVE",
"327 574 CURVE SMOOTH",
"458 574 OFFCURVE",
"486 468 OFFCURVE",
"486 343 CURVE SMOOTH",
"486 237 OFFCURVE",
"458 126 OFFCURVE",
"327 126 CURVE SMOOTH",
"200 126 OFFCURVE",
"150 260 OFFCURVE",
"172 405 CURVE",
"25 405 LINE",
"1 168 OFFCURVE",
"97 -10 OFFCURVE",
"327 -10 CURVE"
);
},
{
closed = 1;
nodes = (
"548 275 LINE",
"548 405 LINE",
"56 405 LINE",
"56 275 LINE"
);
}
);
width = 670;
},
{
layerId = "B950CEFC-B47C-4E26-91C8-4EFB806DAEDB";
paths = (
{
closed = 1;
nodes = (
"506 -10 OFFCURVE",
"607 117 OFFCURVE",
"607 343 CURVE",
"607 588 OFFCURVE",
"506 710 OFFCURVE",
"332 710 CURVE",
"217 710 OFFCURVE",
"134 657 OFFCURVE",
"91 550 CURVE",
"116 539 LINE",
"158 641 OFFCURVE",
"238 684 OFFCURVE",
"332 684 CURVE SMOOTH",
"473 684 OFFCURVE",
"581 588 OFFCURVE",
"581 343 CURVE SMOOTH",
"581 117 OFFCURVE",
"473 16 OFFCURVE",
"332 16 CURVE SMOOTH",
"192 16 OFFCURVE",
"83 117 OFFCURVE",
"83 343 CURVE",
"57 343 LINE",
"57 117 OFFCURVE",
"158 -10 OFFCURVE",
"332 -10 CURVE"
);
},
{
closed = 1;
nodes = (
"586 317 LINE",
"586 343 LINE",
"71 343 LINE",
"71 317 LINE"
);
}
);
width = 674;
},
{
layerId = "38A022BC-B010-4522-83EC-9E43C5A6F806";
paths = (
{
closed = 1;
nodes = (
"521 -10 OFFCURVE",
"618 121 OFFCURVE",
"618 343 CURVE",
"618 584 OFFCURVE",
"521 710 OFFCURVE",
"330 710 CURVE",
"201 710 OFFCURVE",
"113 650 OFFCURVE",
"71 534 CURVE",
"146 509 LINE",
"179 594 OFFCURVE",
"244 637 OFFCURVE",
"330 637 CURVE SMOOTH",
"467 637 OFFCURVE",
"540 537 OFFCURVE",
"540 343 CURVE SMOOTH",
"540 168 OFFCURVE",
"467 63 OFFCURVE",
"330 63 CURVE SMOOTH",
"195 63 OFFCURVE",
"112 178 OFFCURVE",
"121 370 CURVE",
"43 370 LINE",
"33 139 OFFCURVE",
"132 -10 OFFCURVE",
"330 -10 CURVE"
);
},
{
closed = 1;
nodes = (
"570 299 LINE",
"570 370 LINE",
"65 370 LINE",
"65 299 LINE"
);
}
);
width = 672;
},
{
layerId = "8272A2C0-77E7-4CE8-91FB-35293E9750F3";
paths = (
{
closed = 1;
nodes = (
"455 -10 OFFCURVE",
"581 117 OFFCURVE",
"625 343 CURVE",
"673 588 OFFCURVE",
"595 710 OFFCURVE",
"421 710 CURVE",
"306 710 OFFCURVE",
"213 657 OFFCURVE",
"149 550 CURVE",
"172 539 LINE",
"234 641 OFFCURVE",
"322 684 OFFCURVE",
"416 684 CURVE SMOOTH",
"557 684 OFFCURVE",
"647 588 OFFCURVE",
"599 343 CURVE SMOOTH",
"555 117 OFFCURVE",
"428 16 OFFCURVE",
"287 16 CURVE SMOOTH",
"147 16 OFFCURVE",
"57 117 OFFCURVE",
"101 343 CURVE",
"75 343 LINE",
"31 117 OFFCURVE",
"107 -10 OFFCURVE",
"281 -10 CURVE"
);
},
{
closed = 1;
nodes = (
"599 317 LINE",
"604 343 LINE",
"89 343 LINE",
"84 317 LINE"
);
}
);
width = 674;
},
{
layerId = "49D7192B-8546-40FB-A974-820F9CFADE69";
paths = (
{
closed = 1;
nodes = (
"470 -10 OFFCURVE",
"593 121 OFFCURVE",
"636 343 CURVE",
"683 584 OFFCURVE",
"610 710 OFFCURVE",
"419 710 CURVE",
"290 710 OFFCURVE",
"191 650 OFFCURVE",
"126 534 CURVE",
"196 509 LINE",
"246 594 OFFCURVE",
"319 637 OFFCURVE",
"405 637 CURVE SMOOTH",
"542 637 OFFCURVE",
"596 537 OFFCURVE",
"558 343 CURVE SMOOTH",
"524 168 OFFCURVE",
"431 63 OFFCURVE",
"294 63 CURVE SMOOTH",
"159 63 OFFCURVE",
"98 178 OFFCURVE",
"144 370 CURVE",
"66 370 LINE",
"11 139 OFFCURVE",
"81 -10 OFFCURVE",
"279 -10 CURVE"
);
},
{
closed = 1;
nodes = (
"580 299 LINE",
"593 370 LINE",
"88 370 LINE",
"75 299 LINE"
);
}
);
width = 672;
},
{
layerId = "C6B97978-DABE-4FCE-AE9B-6B243E6FFD49";
paths = (
{
closed = 1;
nodes = (
"490 -10 OFFCURVE",
"608 127 OFFCURVE",
"650 343 CURVE",
"696 578 OFFCURVE",
"630 710 OFFCURVE",
"416 710 CURVE",
"268 710 OFFCURVE",
"161 640 OFFCURVE",
"96 512 CURVE",
"230 470 LINE",
"263 532 OFFCURVE",
"315 574 OFFCURVE",
"390 574 CURVE SMOOTH",
"521 574 OFFCURVE",
"528 468 OFFCURVE",
"504 343 CURVE SMOOTH",
"483 237 OFFCURVE",
"434 126 OFFCURVE",
"303 126 CURVE SMOOTH",
"176 126 OFFCURVE",
"152 260 OFFCURVE",
"202 405 CURVE",
"55 405 LINE",
"-15 168 OFFCURVE",
"46 -10 OFFCURVE",
"276 -10 CURVE"
);
},
{
closed = 1;
nodes = (
"553 275 LINE",
"578 405 LINE",
"86 405 LINE",
"61 275 LINE"
);
}
);
width = 670;
}
);
rightKerningGroup = O;
unicode = 018F;
},
{
glyphname = T;
lastChange = "2021-06-05 00:12:59 +0000";
layers = (
{
anchors = (
{
name = bottom;
position = "{266, -9}";
},
{
name = top;
position = "{306, 700}";
}
);
layerId = "DFC09A70-1A82-4D07-97CF-EECDCA771356";
paths = (
{
closed = 1;
nodes = (
"235 0 LINE",
"380 0 LINE",
"380 700 LINE",
"235 700 LINE"
);
},
{
closed = 1;
nodes = (
"20 565 LINE",
"594 565 LINE",
"594 700 LINE",
"20 700 LINE"
);
}
);
width = 614;
},
{
anchors = (
{
name = bottom;
position = "{243, 3}";
},
{
name = top;
position = "{268, 730}";
}
);
layerId = "B950CEFC-B47C-4E26-91C8-4EFB806DAEDB";
paths = (
{
closed = 1;
nodes = (
"255 0 LINE",
"281 0 LINE",
"281 700 LINE",
"255 700 LINE"
);
},
{
closed = 1;
nodes = (
"16 674 LINE",
"520 674 LINE",
"520 700 LINE",
"16 700 LINE"
);
}
);
width = 536;
},
{
anchors = (
{
name = bottom;
position = "{253, -2}";
},
{
name = top;
position = "{284, 717}";
}
);
layerId = "38A022BC-B010-4522-83EC-9E43C5A6F806";
paths = (
{
closed = 1;
nodes = (
"246 0 LINE",
"323 0 LINE",
"323 700 LINE",
"246 700 LINE"
);
},
{
closed = 1;
nodes = (
"18 627 LINE",
"552 627 LINE",
"552 700 LINE",
"18 700 LINE"
);
}
);
width = 569;
},
{
anchors = (
{
name = bottom;
position = "{195, 3}";
},
{
name = top;
position = "{361, 730}";
}
);
layerId = "8272A2C0-77E7-4CE8-91FB-35293E9750F3";
paths = (
{
closed = 1;
nodes = (
"206 0 LINE",
"232 0 LINE",
"368 700 LINE",
"342 700 LINE"
);
},
{
closed = 1;
nodes = (
"98 674 LINE",
"602 674 LINE",
"607 700 LINE",
"103 700 LINE"
);
}
);
width = 536;
},
{
anchors = (
{
name = bottom;
position = "{204, -2}";
},
{
name = top;
position = "{375, 717}";
}
);
layerId = "49D7192B-8546-40FB-A974-820F9CFADE69";
paths = (
{
closed = 1;
nodes = (
"197 0 LINE",
"274 0 LINE",
"410 700 LINE",
"333 700 LINE"
);
},
{
closed = 1;
nodes = (
"91 627 LINE",
"625 627 LINE",
"639 700 LINE",
"105 700 LINE"
);
}
);
width = 569;
},
{
anchors = (
{
name = bottom;
position = "{216, -9}";
},
{
name = top;
position = "{393, 700}";
}
);
layerId = "C6B97978-DABE-4FCE-AE9B-6B243E6FFD49";
paths = (
{
closed = 1;
nodes = (
"186 0 LINE",
"331 0 LINE",
"467 700 LINE",
"322 700 LINE"
);
},
{
closed = 1;
nodes = (
"81 565 LINE",
"655 565 LINE",
"681 700 LINE",
"107 700 LINE"
);
}
);
width = 614;
}
);
leftKerningGroup = V;
rightKerningGroup = V;
unicode = 0054;
},
{
glyphname = Tbar;
lastChange = "2021-06-05 00:12:59 +0000";
layers = (
{
components = (
{
name = T;
transform = "{1, 0, 0, 1, -5, 0}";
}
);
layerId = "DFC09A70-1A82-4D07-97CF-EECDCA771356";
paths = (
{
closed = 1;
nodes = (
"126 229 LINE",
"492 229 LINE",
"492 364 LINE",
"126 364 LINE"
);
}
);
width = 615;
},
{
components = (
{
name = T;
transform = "{1, 0, 0, 1, -1, 0}";
}
);
layerId = "B950CEFC-B47C-4E26-91C8-4EFB806DAEDB";
paths = (
{
closed = 1;
nodes = (
"125 338 LINE",
"411 338 LINE",
"411 364 LINE",
"125 364 LINE"
);
}
);
width = 536;
},
{
components = (
{
alignment = -1;
name = T;
transform = "{1, 0, 0, 1, -3, 0}";
}
);
layerId = "38A022BC-B010-4522-83EC-9E43C5A6F806";
paths = (
{
closed = 1;
nodes = (
"125 291 LINE",
"446 291 LINE",
"446 364 LINE",
"125 364 LINE"
);
}
);
width = 570;
},
{
components = (
{
name = T;
transform = "{1, 0, 0, 1, -1, 0}";
}
);
layerId = "8272A2C0-77E7-4CE8-91FB-35293E9750F3";
paths = (
{
closed = 1;
nodes = (
"142 338 LINE",
"428 338 LINE",
"433 364 LINE",
"147 364 LINE"
);
}
);
width = 536;
},
{
components = (
{
alignment = -1;
name = T;
transform = "{1, 0, 0, 1, -3, 0}";
}
);
layerId = "49D7192B-8546-40FB-A974-820F9CFADE69";
paths = (
{
closed = 1;
nodes = (
"133 291 LINE",
"454 291 LINE",
"468 364 LINE",
"147 364 LINE"
);
}
);
width = 570;
},
{
components = (
{
name = T;
transform = "{1, 0, 0, 1, -5, 0}";
}
);
layerId = "C6B97978-DABE-4FCE-AE9B-6B243E6FFD49";
paths = (
{
closed = 1;
nodes = (
"122 229 LINE",
"488 229 LINE",
"514 364 LINE",
"148 364 LINE"
);
}
);
width = 615;
}
);
leftKerningGroup = V;
rightKerningGroup = V;
unicode = 0166;
},
{
glyphname = U;
lastChange = "2021-06-05 00:12:59 +0000";
layers = (
{
anchors = (
{
name = dotbelow;
position = "{325, 0}";
},
{
name = horn;
position = "{504, 695}";
},
{
name = top;
position = "{328, 700}";
}
);
layerId = "DFC09A70-1A82-4D07-97CF-EECDCA771356";
paths = (
{
closed = 1;
nodes = (
"55 133 OFFCURVE",
"128 -10 OFFCURVE",
"323 -10 CURVE SMOOTH",
"523 -10 OFFCURVE",
"596 133 OFFCURVE",
"596 278 CURVE SMOOTH",
"596 700 LINE",
"451 700 LINE",
"451 281 LINE SMOOTH",
"451 170 OFFCURVE",
"406 125 OFFCURVE",
"325 125 CURVE SMOOTH",
"243 125 OFFCURVE",
"200 168 OFFCURVE",
"200 277 CURVE SMOOTH",
"200 700 LINE",
"55 700 LINE",
"55 278 LINE SMOOTH"
);
}
);
width = 651;
},
{
anchors = (
{
name = dotbelow;
position = "{325, 0}";
},
{
name = horn;
position = "{530, 700}";
},
{
name = top;
position = "{326, 700}";
}
);
layerId = "B950CEFC-B47C-4E26-91C8-4EFB806DAEDB";
paths = (
{
closed = 1;
nodes = (
"95 113 OFFCURVE",
"168 -10 OFFCURVE",
"323 -10 CURVE SMOOTH",
"483 -10 OFFCURVE",
"556 113 OFFCURVE",
"556 288 CURVE SMOOTH",
"556 700 LINE",
"530 700 LINE",
"530 276 LINE SMOOTH",
"530 121 OFFCURVE",
"458 16 OFFCURVE",
"325 16 CURVE SMOOTH",
"192 16 OFFCURVE",
"121 121 OFFCURVE",
"121 272 CURVE SMOOTH",
"121 700 LINE",
"95 700 LINE",
"95 288 LINE SMOOTH"
);
}
);
width = 651;
},
{
anchors = (
{
name = dotbelow;
position = "{325, 0}";
},
{
name = horn;
position = "{519, 698}";
},
{
name = top;
position = "{327, 700}";
}
);
layerId = "38A022BC-B010-4522-83EC-9E43C5A6F806";
paths = (
{
closed = 1;
nodes = (
"78 122 OFFCURVE",
"151 -10 OFFCURVE",
"323 -10 CURVE SMOOTH",
"500 -10 OFFCURVE",
"573 122 OFFCURVE",
"573 284 CURVE SMOOTH",
"573 700 LINE",
"496 700 LINE",
"496 278 LINE SMOOTH",
"496 142 OFFCURVE",
"436 63 OFFCURVE",
"325 63 CURVE SMOOTH",
"214 63 OFFCURVE",
"155 141 OFFCURVE",
"155 274 CURVE SMOOTH",
"155 700 LINE",
"78 700 LINE",
"78 284 LINE SMOOTH"
);
}
);
width = 651;
},
{
anchors = (
{
name = dotbelow;
position = "{276, 0}";
},
{
name = horn;
position = "{617, 700}";
},
{
name = top;
position = "{413, 700}";
}
);
layerId = "8272A2C0-77E7-4CE8-91FB-35293E9750F3";
paths = (
{
closed = 1;
nodes = (
"68 113 OFFCURVE",
"117 -10 OFFCURVE",
"272 -10 CURVE SMOOTH",
"432 -10 OFFCURVE",
"529 113 OFFCURVE",
"563 288 CURVE SMOOTH",
"643 700 LINE",
"617 700 LINE",
"535 276 LINE SMOOTH",
"505 121 OFFCURVE",
"413 16 OFFCURVE",
"280 16 CURVE SMOOTH",
"147 16 OFFCURVE",
"96 121 OFFCURVE",
"125 272 CURVE SMOOTH",
"208 700 LINE",
"182 700 LINE",
"102 288 LINE SMOOTH"
);
}
);
width = 651;
},
{
anchors = (
{
name = dotbelow;
position = "{276, 0}";
},
{
name = horn;
position = "{606, 698}";
},
{
name = top;
position = "{414, 700}";
}
);
layerId = "49D7192B-8546-40FB-A974-820F9CFADE69";
paths = (
{
closed = 1;
nodes = (
"53 122 OFFCURVE",
"100 -10 OFFCURVE",
"272 -10 CURVE SMOOTH",
"449 -10 OFFCURVE",
"548 122 OFFCURVE",
"580 284 CURVE SMOOTH",
"660 700 LINE",
"583 700 LINE",
"501 278 LINE SMOOTH",
"475 142 OFFCURVE",
"400 63 OFFCURVE",
"289 63 CURVE SMOOTH",
"178 63 OFFCURVE",
"134 141 OFFCURVE",
"160 274 CURVE SMOOTH",
"242 700 LINE",
"165 700 LINE",
"85 284 LINE SMOOTH"
);
}
);
width = 651;
},
{
anchors = (
{
name = dotbelow;
position = "{276, 0}";
},
{
name = horn;
position = "{590, 695}";
},
{
name = top;
position = "{415, 700}";
}
);
layerId = "C6B97978-DABE-4FCE-AE9B-6B243E6FFD49";
paths = (
{
closed = 1;
nodes = (
"32 133 OFFCURVE",
"77 -10 OFFCURVE",
"272 -10 CURVE SMOOTH",
"472 -10 OFFCURVE",
"573 133 OFFCURVE",
"601 278 CURVE SMOOTH",
"683 700 LINE",
"538 700 LINE",
"457 281 LINE SMOOTH",
"435 170 OFFCURVE",
"382 125 OFFCURVE",
"301 125 CURVE SMOOTH",
"219 125 OFFCURVE",
"184 168 OFFCURVE",
"205 277 CURVE SMOOTH",
"287 700 LINE",
"142 700 LINE",
"60 278 LINE SMOOTH"
);
}
);
width = 651;
}
);
unicode = 0055;
},
{
glyphname = V;
lastChange = "2021-06-05 00:12:59 +0000";
layers = (
{
anchors = (
{
name = top;
position = "{350, 730}";
}
);
layerId = "DFC09A70-1A82-4D07-97CF-EECDCA771356";
paths = (
{
closed = 1;
nodes = (
"249 0 LINE",
"397 0 LINE",
"163 700 LINE",
"9 700 LINE"
);
},
{
closed = 1;
nodes = (
"511 700 LINE",
"277 0 LINE",
"425 0 LINE",
"665 700 LINE"
);
}
);
width = 674;
},
{
anchors = (
{
name = top;
position = "{296, 730}";
}
);
layerId = "B950CEFC-B47C-4E26-91C8-4EFB806DAEDB";
paths = (
{
closed = 1;
nodes = (
"269 0 LINE",
"296 0 LINE",
"56 700 LINE",
"29 700 LINE"
);
},
{
closed = 1;
nodes = (
"520 700 LINE",
"280 0 LINE",
"307 0 LINE",
"547 700 LINE"
);
}
);
width = 576;
},
{
anchors = (
{
name = top;
position = "{319, 730}";
}
);
layerId = "38A022BC-B010-4522-83EC-9E43C5A6F806";
paths = (
{
closed = 1;
nodes = (
"260 0 LINE",
"339 0 LINE",
"102 700 LINE",
"20 700 LINE"
);
},
{
closed = 1;
nodes = (
"516 700 LINE",
"279 0 LINE",
"358 0 LINE",
"598 700 LINE"
);
}
);
width = 618;
},
{
anchors = (
{
name = top;
position = "{389, 730}";
}
);
layerId = "8272A2C0-77E7-4CE8-91FB-35293E9750F3";
paths = (
{
closed = 1;
nodes = (
"220 0 LINE",
"247 0 LINE",
"143 700 LINE",
"116 700 LINE"
);
},
{
closed = 1;
nodes = (
"607 700 LINE",
"231 0 LINE",
"258 0 LINE",
"634 700 LINE"
);
}
);
width = 576;
},
{
anchors = (
{
name = top;
position = "{412, 730}";
}
);
layerId = "49D7192B-8546-40FB-A974-820F9CFADE69";
paths = (
{
closed = 1;
nodes = (
"211 0 LINE",
"290 0 LINE",
"189 700 LINE",
"107 700 LINE"
);
},
{
closed = 1;
nodes = (
"603 700 LINE",
"230 0 LINE",
"309 0 LINE",
"685 700 LINE"
);
}
);
width = 618;
},
{
anchors = (
{
name = top;
position = "{443, 730}";
}
);
layerId = "C6B97978-DABE-4FCE-AE9B-6B243E6FFD49";
paths = (
{
closed = 1;
nodes = (
"200 0 LINE",
"348 0 LINE",
"250 700 LINE",
"96 700 LINE"
);
},
{
closed = 1;
nodes = (
"598 700 LINE",
"228 0 LINE",
"376 0 LINE",
"752 700 LINE"
);
}
);
width = 674;
}
);
leftKerningGroup = V;
rightKerningGroup = V;
unicode = 0056;
},
{
glyphname = W;
lastChange = "2021-06-05 00:12:59 +0000";
layers = (
{
anchors = (
{
name = top;
position = "{461, 720}";
}
);
layerId = "DFC09A70-1A82-4D07-97CF-EECDCA771356";
paths = (
{
closed = 1;
nodes = (
"172 0 LINE",
"320 0 LINE",
"170 700 LINE",
"22 700 LINE"
);
},
{
closed = 1;
nodes = (
"384 700 LINE",
"214 0 LINE",
"331 0 LINE",
"501 700 LINE"
);
},
{
closed = 1;
nodes = (
"585 0 LINE",
"702 0 LINE",
"532 700 LINE",
"415 700 LINE"
);
},
{
closed = 1;
nodes = (
"746 700 LINE",
"596 0 LINE",
"744 0 LINE",
"894 700 LINE"
);
}
);
width = 916;
},
{
anchors = (
{
name = top;
position = "{393, 730}";
}
);
layerId = "B950CEFC-B47C-4E26-91C8-4EFB806DAEDB";
paths = (
{
closed = 1;
nodes = (
"199 0 LINE",
"226 0 LINE",
"56 700 LINE",
"29 700 LINE"
);
},
{
closed = 1;
nodes = (
"380 700 LINE",
"213 0 LINE",
"237 0 LINE",
"407 700 LINE"
);
},
{
closed = 1;
nodes = (
"550 0 LINE",
"574 0 LINE",
"407 700 LINE",
"380 700 LINE"
);
},
{
closed = 1;
nodes = (
"731 700 LINE",
"561 0 LINE",
"588 0 LINE",
"758 700 LINE"
);
}
);
width = 787;
},
{
anchors = (
{
name = top;
position = "{422, 726}";
}
);
layerId = "38A022BC-B010-4522-83EC-9E43C5A6F806";
paths = (
{
closed = 1;
nodes = (
"187 0 LINE",
"266 0 LINE",
"105 700 LINE",
"26 700 LINE"
);
},
{
closed = 1;
nodes = (
"382 700 LINE",
"213 0 LINE",
"277 0 LINE",
"447 700 LINE"
);
},
{
closed = 1;
nodes = (
"565 0 LINE",
"629 0 LINE",
"461 700 LINE",
"395 700 LINE"
);
},
{
closed = 1;
nodes = (
"737 700 LINE",
"576 0 LINE",
"655 0 LINE",
"816 700 LINE"
);
}
);
width = 842;
},
{
anchors = (
{
name = top;
position = "{486, 730}";
}
);
layerId = "8272A2C0-77E7-4CE8-91FB-35293E9750F3";
paths = (
{
closed = 1;
nodes = (
"150 0 LINE",
"177 0 LINE",
"143 700 LINE",
"116 700 LINE"
);
},
{
closed = 1;
nodes = (
"467 700 LINE",
"164 0 LINE",
"188 0 LINE",
"494 700 LINE"
);
},
{
closed = 1;
nodes = (
"501 0 LINE",
"525 0 LINE",
"494 700 LINE",
"467 700 LINE"
);
},
{
closed = 1;
nodes = (
"818 700 LINE",
"512 0 LINE",
"539 0 LINE",
"845 700 LINE"
);
}
);
width = 787;
},
{
anchors = (
{
name = top;
position = "{515, 726}";
}
);
layerId = "49D7192B-8546-40FB-A974-820F9CFADE69";
paths = (
{
closed = 1;
nodes = (
"138 0 LINE",
"217 0 LINE",
"192 700 LINE",
"113 700 LINE"
);
},
{
closed = 1;
nodes = (
"469 700 LINE",
"164 0 LINE",
"228 0 LINE",
"534 700 LINE"
);
},
{
closed = 1;
nodes = (
"516 0 LINE",
"580 0 LINE",
"548 700 LINE",
"482 700 LINE"
);
},
{
closed = 1;
nodes = (
"824 700 LINE",
"527 0 LINE",
"606 0 LINE",
"903 700 LINE"
);
}
);
width = 842;
},
{
anchors = (
{
name = top;
position = "{552, 720}";
}
);
layerId = "C6B97978-DABE-4FCE-AE9B-6B243E6FFD49";
paths = (
{
closed = 1;
nodes = (
"123 0 LINE",
"271 0 LINE",
"257 700 LINE",
"109 700 LINE"
);
},
{
closed = 1;
nodes = (
"471 700 LINE",
"165 0 LINE",
"282 0 LINE",
"588 700 LINE"
);
},
{
closed = 1;
nodes = (
"536 0 LINE",
"653 0 LINE",
"619 700 LINE",
"502 700 LINE"
);
},
{
closed = 1;
nodes = (
"833 700 LINE",
"547 0 LINE",
"695 0 LINE",
"981 700 LINE"
);
}
);
width = 916;
}
);
leftKerningGroup = V;
rightKerningGroup = V;
unicode = 0057;
},
{
glyphname = X;
lastChange = "2021-06-05 00:12:59 +0000";
layers = (
{
layerId = "DFC09A70-1A82-4D07-97CF-EECDCA771356";
paths = (
{
closed = 1;
nodes = (
"179 6 LINE",
"316 248 LINE",
"454 6 LINE",
"625 6 LINE",
"403 365 LINE",
"610 706 LINE",
"441 706 LINE",
"316 482 LINE",
"192 706 LINE",
"22 706 LINE",
"229 365 LINE",
"8 6 LINE"
);
}
);
width = 633;
},
{
layerId = "B950CEFC-B47C-4E26-91C8-4EFB806DAEDB";
paths = (
{
closed = 1;
nodes = (
"89 0 LINE",
"284 327 LINE",
"479 0 LINE",
"509 0 LINE",
"301 350 LINE",
"509 700 LINE",
"479 700 LINE",
"284 373 LINE",
"89 700 LINE",
"59 700 LINE",
"268 350 LINE",
"59 0 LINE"
);
}
);
width = 593;
},
{
layerId = "38A022BC-B010-4522-83EC-9E43C5A6F806";
paths = (
{
closed = 1;
nodes = (
"128 3 LINE",
"298 293 LINE",
"468 3 LINE",
"559 3 LINE",
"345 356 LINE",
"552 703 LINE",
"463 703 LINE",
"298 420 LINE",
"133 703 LINE",
"43 703 LINE",
"251 356 LINE",
"37 3 LINE"
);
}
);
width = 610;
},
{
layerId = "8272A2C0-77E7-4CE8-91FB-35293E9750F3";
paths = (
{
closed = 1;
nodes = (
"40 0 LINE",
"299 327 LINE",
"430 0 LINE",
"460 0 LINE",
"320 350 LINE",
"596 700 LINE",
"566 700 LINE",
"308 373 LINE",
"176 700 LINE",
"146 700 LINE",
"287 350 LINE",
"10 0 LINE"
);
}
);
width = 593;
},
{
layerId = "49D7192B-8546-40FB-A974-820F9CFADE69";
paths = (
{
closed = 1;
nodes = (
"80 3 LINE",
"306 293 LINE",
"420 3 LINE",
"511 3 LINE",
"366 356 LINE",
"640 703 LINE",
"551 703 LINE",
"331 420 LINE",
"221 703 LINE",
"131 703 LINE",
"272 356 LINE",
"-11 3 LINE"
);
}
);
width = 610;
},
{
layerId = "C6B97978-DABE-4FCE-AE9B-6B243E6FFD49";
paths = (
{
closed = 1;
nodes = (
"132 6 LINE",
"316 248 LINE",
"407 6 LINE",
"578 6 LINE",
"425 365 LINE",
"699 706 LINE",
"530 706 LINE",
"361 482 LINE",
"281 706 LINE",
"111 706 LINE",
"251 365 LINE",
"-39 6 LINE"
);
}
);
width = 633;
}
);
unicode = 0058;
},
{
glyphname = Y;
lastChange = "2021-06-05 00:12:59 +0000";
layers = (
{
anchors = (
{
name = dotbelow;
position = "{293, 0}";
},
{
name = top;
position = "{294, 700}";
}
);
layerId = "DFC09A70-1A82-4D07-97CF-EECDCA771356";
paths = (
{
closed = 1;
nodes = (
"366 0 LINE",
"366 280 LINE",
"580 700 LINE",
"422 700 LINE",
"294 433 LINE",
"164 700 LINE",
"7 700 LINE",
"221 280 LINE",
"221 0 LINE"
);
}
);
width = 587;
},
{
anchors = (
{
name = dotbelow;
position = "{261, 0}";
},
{
name = top;
position = "{260, 730}";
}
);
layerId = "B950CEFC-B47C-4E26-91C8-4EFB806DAEDB";
paths = (
{
closed = 1;
nodes = (
"274 0 LINE",
"274 308 LINE",
"500 700 LINE",
"469 700 LINE",
"261 340 LINE",
"50 700 LINE",
"20 700 LINE",
"248 308 LINE",
"248 0 LINE"
);
}
);
width = 520;
},
{
anchors = (
{
name = dotbelow;
position = "{275, 0}";
},
{
name = top;
position = "{275, 717}";
}
);
layerId = "38A022BC-B010-4522-83EC-9E43C5A6F806";
paths = (
{
closed = 1;
nodes = (
"313 0 LINE",
"313 296 LINE",
"534 700 LINE",
"449 700 LINE",
"275 380 LINE",
"99 700 LINE",
"14 700 LINE",
"236 296 LINE",
"236 0 LINE"
);
}
);
width = 549;
},
{
anchors = (
{
name = dotbelow;
position = "{212, 0}";
},
{
name = top;
position = "{353, 730}";
}
);
layerId = "8272A2C0-77E7-4CE8-91FB-35293E9750F3";
paths = (
{
closed = 1;
nodes = (
"225 0 LINE",
"285 308 LINE",
"587 700 LINE",
"556 700 LINE",
"278 340 LINE",
"137 700 LINE",
"107 700 LINE",
"259 308 LINE",
"199 0 LINE"
);
}
);
width = 520;
},
{
anchors = (
{
name = dotbelow;
position = "{226, 0}";
},
{
name = top;
position = "{366, 717}";
}
);
layerId = "49D7192B-8546-40FB-A974-820F9CFADE69";
paths = (
{
closed = 1;
nodes = (
"264 0 LINE",
"322 296 LINE",
"621 700 LINE",
"536 700 LINE",
"300 380 LINE",
"186 700 LINE",
"101 700 LINE",
"245 296 LINE",
"187 0 LINE"
);
}
);
width = 549;
},
{
anchors = (
{
name = dotbelow;
position = "{244, 0}";
},
{
name = top;
position = "{381, 700}";
}
);
layerId = "C6B97978-DABE-4FCE-AE9B-6B243E6FFD49";
paths = (
{
closed = 1;
nodes = (
"317 0 LINE",
"372 280 LINE",
"667 700 LINE",
"509 700 LINE",
"330 433 LINE",
"251 700 LINE",
"94 700 LINE",
"227 280 LINE",
"172 0 LINE"
);
}
);
width = 587;
}
);
leftKerningGroup = V;
rightKerningGroup = V;
unicode = 0059;
},
{
glyphname = Z;
lastChange = "2021-06-05 00:12:59 +0000";
layers = (
{
anchors = (
{
name = bottom;
position = "{281, 0}";
},
{
name = top;
position = "{281, 700}";
}
);
layerId = "DFC09A70-1A82-4D07-97CF-EECDCA771356";
paths = (
{
closed = 1;
nodes = (
"36 565 LINE",
"529 565 LINE",
"529 700 LINE",
"36 700 LINE"
);
},
{
closed = 1;
nodes = (
"29 0 LINE",
"529 0 LINE",
"529 135 LINE",
"29 135 LINE"
);
},
{
closed = 1;
nodes = (
"529 565 LINE",
"349 565 LINE",
"29 135 LINE",
"209 135 LINE"
);
}
);
width = 558;
},
{
anchors = (
{
name = bottom;
position = "{289, 0}";
},
{
name = top;
position = "{289, 730}";
}
);
layerId = "B950CEFC-B47C-4E26-91C8-4EFB806DAEDB";
paths = (
{
closed = 1;
nodes = (
"57 674 LINE",
"497 674 LINE",
"497 700 LINE",
"57 700 LINE"
);
},
{
closed = 1;
nodes = (
"37 0 LINE",
"497 0 LINE",
"497 26 LINE",
"37 26 LINE"
);
},
{
closed = 1;
nodes = (
"497 674 LINE",
"466 674 LINE",
"37 26 LINE",
"68 26 LINE"
);
}
);
width = 524;
},
{
anchors = (
{
name = bottom;
position = "{286, 0}";
},
{
name = top;
position = "{286, 717}";
}
);
layerId = "38A022BC-B010-4522-83EC-9E43C5A6F806";
paths = (
{
closed = 1;
nodes = (
"48 627 LINE",
"511 627 LINE",
"511 700 LINE",
"48 700 LINE"
);
},
{
closed = 1;
nodes = (
"34 0 LINE",
"511 0 LINE",
"511 73 LINE",
"34 73 LINE"
);
},
{
closed = 1;
nodes = (
"511 627 LINE",
"416 627 LINE",
"34 73 LINE",
"128 73 LINE"
);
}
);
width = 539;
},
{
anchors = (
{
name = bottom;
position = "{240, 0}";
},
{
name = top;
position = "{382, 730}";
}
);
layerId = "8272A2C0-77E7-4CE8-91FB-35293E9750F3";
paths = (
{
closed = 1;
nodes = (
"139 674 LINE",
"579 674 LINE",
"584 700 LINE",
"144 700 LINE"
);
},
{
closed = 1;
nodes = (
"-12 0 LINE",
"448 0 LINE",
"453 26 LINE",
"-7 26 LINE"
);
},
{
closed = 1;
nodes = (
"579 674 LINE",
"548 674 LINE",
"-7 26 LINE",
"24 26 LINE"
);
}
);
width = 524;
},
{
anchors = (
{
name = bottom;
position = "{237, 0}";
},
{
name = top;
position = "{377, 717}";
}
);
layerId = "49D7192B-8546-40FB-A974-820F9CFADE69";
paths = (
{
closed = 1;
nodes = (
"121 627 LINE",
"584 627 LINE",
"598 700 LINE",
"135 700 LINE"
);
},
{
closed = 1;
nodes = (
"-15 0 LINE",
"462 0 LINE",
"477 73 LINE",
"0 73 LINE"
);
},
{
closed = 1;
nodes = (
"584 627 LINE",
"489 627 LINE",
"0 73 LINE",
"94 73 LINE"
);
}
);
width = 539;
},
{
anchors = (
{
name = bottom;
position = "{232, 0}";
},
{
name = top;
position = "{368, 700}";
}
);
layerId = "C6B97978-DABE-4FCE-AE9B-6B243E6FFD49";
paths = (
{
closed = 1;
nodes = (
"97 565 LINE",
"590 565 LINE",
"616 700 LINE",
"123 700 LINE"
);
},
{
closed = 1;
nodes = (
"-20 0 LINE",
"480 0 LINE",
"507 135 LINE",
"7 135 LINE"
);
},
{
closed = 1;
nodes = (
"590 565 LINE",
"410 565 LINE",
"7 135 LINE",
"187 135 LINE"
);
}
);
width = 558;
}
);
unicode = 005A;
},
{
glyphname = I.alt;
lastChange = "2021-06-05 00:12:59 +0000";
layers = (
{
anchors = (
{
name = top;
position = "{128, 640}";
}
);
layerId = "DFC09A70-1A82-4D07-97CF-EECDCA771356";
paths = (
{
closed = 1;
nodes = (
"58 0 LINE",
"203 0 LINE",
"203 640 LINE",
"58 640 LINE"
);
}
);
width = 261;
},
{
anchors = (
{
name = top;
position = "{116, 640}";
}
);
layerId = "B950CEFC-B47C-4E26-91C8-4EFB806DAEDB";
paths = (
{
closed = 1;
nodes = (
"103 0 LINE",
"129 0 LINE",
"129 640 LINE",
"103 640 LINE"
);
}
);
width = 232;
},
{
anchors = (
{
name = top;
position = "{121, 640}";
}
);
layerId = "38A022BC-B010-4522-83EC-9E43C5A6F806";
paths = (
{
closed = 1;
nodes = (
"84 0 LINE",
"161 0 LINE",
"161 640 LINE",
"84 640 LINE"
);
}
);
width = 244;
},
{
anchors = (
{
name = top;
position = "{192, 640}";
}
);
layerId = "8272A2C0-77E7-4CE8-91FB-35293E9750F3";
paths = (
{
closed = 1;
nodes = (
"54 0 LINE",
"80 0 LINE",
"205 640 LINE",
"179 640 LINE"
);
}
);
width = 232;
},
{
anchors = (
{
name = top;
position = "{197, 640}";
}
);
layerId = "49D7192B-8546-40FB-A974-820F9CFADE69";
paths = (
{
closed = 1;
nodes = (
"35 0 LINE",
"112 0 LINE",
"237 640 LINE",
"160 640 LINE"
);
}
);
width = 244;
},
{
anchors = (
{
name = top;
position = "{204, 640}";
}
);
layerId = "C6B97978-DABE-4FCE-AE9B-6B243E6FFD49";
paths = (
{
closed = 1;
nodes = (
"9 0 LINE",
"154 0 LINE",
"279 640 LINE",
"134 640 LINE"
);
}
);
width = 261;
}
);
},
{
glyphname = I.ss03;
lastChange = "2021-06-05 00:12:59 +0000";
layers = (
{
anchors = (
{
name = dotbelow;
position = "{287, 0}";
},
{
name = top;
position = "{285, 700}";
}
);
layerId = "DFC09A70-1A82-4D07-97CF-EECDCA771356";
paths = (
{
closed = 1;
nodes = (
"215 0 LINE",
"360 0 LINE",
"360 700 LINE",
"215 700 LINE"
);
},
{
closed = 1;
nodes = (
"35 565 LINE",
"539 565 LINE",
"539 700 LINE",
"35 700 LINE"
);
},
{
closed = 1;
nodes = (
"35 0 LINE",
"539 0 LINE",
"539 135 LINE",
"35 135 LINE"
);
}
);
width = 574;
},
{
anchors = (
{
name = dotbelow;
position = "{262, 0}";
},
{
name = top;
position = "{263, 700}";
}
);
layerId = "B950CEFC-B47C-4E26-91C8-4EFB806DAEDB";
paths = (
{
closed = 1;
nodes = (
"250 0 LINE",
"276 0 LINE",
"276 700 LINE",
"250 700 LINE"
);
},
{
closed = 1;
nodes = (
"50 674 LINE",
"474 674 LINE",
"474 700 LINE",
"50 700 LINE"
);
},
{
closed = 1;
nodes = (
"50 0 LINE",
"474 0 LINE",
"474 26 LINE",
"50 26 LINE"
);
}
);
width = 524;
},
{
anchors = (
{
name = dotbelow;
position = "{273, 0}";
},
{
name = top;
position = "{272, 700}";
}
);
layerId = "38A022BC-B010-4522-83EC-9E43C5A6F806";
paths = (
{
closed = 1;
nodes = (
"235 0 LINE",
"312 0 LINE",
"312 700 LINE",
"235 700 LINE"
);
},
{
closed = 1;
nodes = (
"44 627 LINE",
"502 627 LINE",
"502 700 LINE",
"44 700 LINE"
);
},
{
closed = 1;
nodes = (
"44 0 LINE",
"502 0 LINE",
"502 73 LINE",
"44 73 LINE"
);
}
);
width = 545;
},
{
anchors = (
{
name = dotbelow;
position = "{213, 0}";
},
{
name = top;
position = "{350, 700}";
}
);
layerId = "8272A2C0-77E7-4CE8-91FB-35293E9750F3";
paths = (
{
closed = 1;
nodes = (
"201 0 LINE",
"227 0 LINE",
"363 700 LINE",
"337 700 LINE"
);
},
{
closed = 1;
nodes = (
"132 674 LINE",
"556 674 LINE",
"561 700 LINE",
"137 700 LINE"
);
},
{
closed = 1;
nodes = (
"1 0 LINE",
"425 0 LINE",
"430 26 LINE",
"6 26 LINE"
);
}
);
width = 524;
},
{
anchors = (
{
name = dotbelow;
position = "{224, 0}";
},
{
name = top;
position = "{359, 700}";
}
);
layerId = "49D7192B-8546-40FB-A974-820F9CFADE69";
paths = (
{
closed = 1;
nodes = (
"186 0 LINE",
"263 0 LINE",
"399 700 LINE",
"322 700 LINE"
);
},
{
closed = 1;
nodes = (
"117 627 LINE",
"575 627 LINE",
"589 700 LINE",
"131 700 LINE"
);
},
{
closed = 1;
nodes = (
"-5 0 LINE",
"453 0 LINE",
"468 73 LINE",
"10 73 LINE"
);
}
);
width = 545;
},
{
anchors = (
{
name = dotbelow;
position = "{238, 0}";
},
{
name = top;
position = "{372, 700}";
}
);
layerId = "C6B97978-DABE-4FCE-AE9B-6B243E6FFD49";
paths = (
{
closed = 1;
nodes = (
"166 0 LINE",
"311 0 LINE",
"447 700 LINE",
"302 700 LINE"
);
},
{
closed = 1;
nodes = (
"96 565 LINE",
"600 565 LINE",
"626 700 LINE",
"122 700 LINE"
);
},
{
closed = 1;
nodes = (
"-14 0 LINE",
"490 0 LINE",
"517 135 LINE",
"13 135 LINE"
);
}
);
width = 574;
}
);
rightKerningGroup = I;
},
{
glyphname = a;
lastChange = "2021-06-05 00:12:59 +0000";
layers = (
{
anchors = (
{
name = dotbelow;
position = "{283, 0}";
},
{
name = top;
position = "{276, 500}";
}
);
layerId = "DFC09A70-1A82-4D07-97CF-EECDCA771356";
paths = (
{
closed = 1;
nodes = (
"193 364 OFFCURVE",
"220 385 OFFCURVE",
"276 385 CURVE SMOOTH",
"334 385 OFFCURVE",
"357 336 OFFCURVE",
"357 279 CURVE",
"492 274 LINE",
"492 391 OFFCURVE",
"427 510 OFFCURVE",
"276 510 CURVE SMOOTH",
"151 510 OFFCURVE",
"77 439 OFFCURVE",
"51 363 CURVE",
"174 322 LINE"
);
},
{
closed = 1;
nodes = (
"492 0 LINE",
"492 274 LINE",
"357 304 LINE",
"357 156 LINE",
"357 123 OFFCURVE",
"391 0 OFFCURVE",
"417 0 CURVE"
);
},
{
closed = 1;
nodes = (
"393 304 LINE",
"234 304 OFFCURVE",
"26 304 OFFCURVE",
"26 163 CURVE SMOOTH",
"26 61 OFFCURVE",
"102 -10 OFFCURVE",
"212 -10 CURVE",
"362 -10 OFFCURVE",
"376 128 OFFCURVE",
"376 302 CURVE",
"357 302 LINE",
"357 174 OFFCURVE",
"327 110 OFFCURVE",
"240 110 CURVE SMOOTH",
"178 110 OFFCURVE",
"161 142 OFFCURVE",
"161 171 CURVE SMOOTH",
"161 214 OFFCURVE",
"258 218 OFFCURVE",
"397 218 CURVE"
);
}
);
width = 544;
},
{
anchors = (
{
name = dotbelow;
position = "{243, 0}";
},
{
name = top;
position = "{257, 500}";
}
);
layerId = "B950CEFC-B47C-4E26-91C8-4EFB806DAEDB";
paths = (
{
closed = 1;
nodes = (
"111 445 OFFCURVE",
"168 486 OFFCURVE",
"257 486 CURVE SMOOTH",
"348 486 OFFCURVE",
"406 433 OFFCURVE",
"406 338 CURVE",
"430 338 LINE",
"432 445 OFFCURVE",
"359 510 OFFCURVE",
"257 510 CURVE SMOOTH",
"156 510 OFFCURVE",
"88 459 OFFCURVE",
"71 367 CURVE",
"94 364 LINE"
);
},
{
closed = 1;
nodes = (
"430 0 LINE",
"430 338 LINE",
"406 338 LINE",
"406 85 LINE",
"406 52 OFFCURVE",
"407 0 OFFCURVE",
"413 0 CURVE"
);
},
{
closed = 1;
nodes = (
"416 287 LINE",
"315 287 OFFCURVE",
"46 301 OFFCURVE",
"46 132 CURVE SMOOTH",
"46 50 OFFCURVE",
"112 -10 OFFCURVE",
"222 -10 CURVE",
"348 -10 OFFCURVE",
"424 71 OFFCURVE",
"424 255 CURVE",
"406 255 LINE",
"406 100 OFFCURVE",
"342 14 OFFCURVE",
"214 14 CURVE SMOOTH",
"135 14 OFFCURVE",
"70 63 OFFCURVE",
"70 129 CURVE SMOOTH",
"70 276 OFFCURVE",
"331 263 OFFCURVE",
"416 263 CURVE"
);
}
);
width = 530;
},
{
anchors = (
{
name = dotbelow;
position = "{260, 0}";
},
{
name = top;
position = "{265, 500}";
}
);
layerId = "38A022BC-B010-4522-83EC-9E43C5A6F806";
paths = (
{
closed = 1;
nodes = (
"146 410 OFFCURVE",
"190 443 OFFCURVE",
"265 443 CURVE SMOOTH",
"342 443 OFFCURVE",
"385 391 OFFCURVE",
"385 313 CURVE",
"457 311 LINE",
"458 422 OFFCURVE",
"388 510 OFFCURVE",
"265 510 CURVE SMOOTH",
"154 510 OFFCURVE",
"83 450 OFFCURVE",
"62 365 CURVE",
"128 346 LINE"
);
},
{
closed = 1;
nodes = (
"457 0 LINE",
"457 311 LINE",
"385 323 LINE",
"385 115 LINE",
"385 82 OFFCURVE",
"400 0 OFFCURVE",
"415 0 CURVE"
);
},
{
closed = 1;
nodes = (
"406 294 LINE",
"280 294 OFFCURVE",
"37 302 OFFCURVE",
"37 145 CURVE SMOOTH",
"37 55 OFFCURVE",
"108 -10 OFFCURVE",
"218 -10 CURVE",
"354 -10 OFFCURVE",
"403 95 OFFCURVE",
"403 275 CURVE",
"385 275 LINE",
"385 132 OFFCURVE",
"336 55 OFFCURVE",
"225 55 CURVE SMOOTH",
"153 55 OFFCURVE",
"109 97 OFFCURVE",
"109 147 CURVE SMOOTH",
"109 249 OFFCURVE",
"300 244 OFFCURVE",
"408 244 CURVE"
);
}
);
width = 536;
},
{
anchors = (
{
name = dotbelow;
position = "{194, 0}";
},
{
name = top;
position = "{306, 500}";
}
);
layerId = "8272A2C0-77E7-4CE8-91FB-35293E9750F3";
paths = (
{
closed = 1;
nodes = (
"149 445 OFFCURVE",
"214 486 OFFCURVE",
"303 486 CURVE SMOOTH",
"394 486 OFFCURVE",
"442 433 OFFCURVE",
"423 338 CURVE",
"447 338 LINE",
"470 445 OFFCURVE",
"410 510 OFFCURVE",
"308 510 CURVE SMOOTH",
"207 510 OFFCURVE",
"129 459 OFFCURVE",
"94 367 CURVE",
"116 364 LINE"
);
},
{
closed = 1;
nodes = (
"381 0 LINE",
"447 338 LINE",
"423 338 LINE",
"374 85 LINE",
"368 52 OFFCURVE",
"358 0 OFFCURVE",
"364 0 CURVE"
);
},
{
closed = 1;
nodes = (
"423 287 LINE",
"322 287 OFFCURVE",
"56 301 OFFCURVE",
"23 132 CURVE SMOOTH",
"7 50 OFFCURVE",
"61 -10 OFFCURVE",
"171 -10 CURVE",
"297 -10 OFFCURVE",
"389 71 OFFCURVE",
"425 255 CURVE",
"407 255 LINE",
"377 100 OFFCURVE",
"296 14 OFFCURVE",
"168 14 CURVE SMOOTH",
"89 14 OFFCURVE",
"34 63 OFFCURVE",
"46 129 CURVE SMOOTH",
"75 276 OFFCURVE",
"334 263 OFFCURVE",
"419 263 CURVE"
);
}
);
width = 530;
},
{
anchors = (
{
name = dotbelow;
position = "{211, 0}";
},
{
name = top;
position = "{314, 500}";
}
);
layerId = "49D7192B-8546-40FB-A974-820F9CFADE69";
paths = (
{
closed = 1;
nodes = (
"177 410 OFFCURVE",
"228 443 OFFCURVE",
"303 443 CURVE SMOOTH",
"380 443 OFFCURVE",
"412 391 OFFCURVE",
"397 313 CURVE",
"469 311 LINE",
"491 422 OFFCURVE",
"439 510 OFFCURVE",
"316 510 CURVE SMOOTH",
"205 510 OFFCURVE",
"122 450 OFFCURVE",
"84 365 CURVE",
"147 346 LINE"
);
},
{
closed = 1;
nodes = (
"408 0 LINE",
"469 311 LINE",
"399 323 LINE",
"359 115 LINE",
"352 82 OFFCURVE",
"351 0 OFFCURVE",
"366 0 CURVE"
);
},
{
closed = 1;
nodes = (
"415 294 LINE",
"289 294 OFFCURVE",
"47 302 OFFCURVE",
"17 145 CURVE SMOOTH",
"-1 55 OFFCURVE",
"57 -10 OFFCURVE",
"167 -10 CURVE",
"303 -10 OFFCURVE",
"373 95 OFFCURVE",
"408 275 CURVE",
"390 275 LINE",
"362 132 OFFCURVE",
"298 55 OFFCURVE",
"187 55 CURVE SMOOTH",
"115 55 OFFCURVE",
"79 97 OFFCURVE",
"89 147 CURVE SMOOTH",
"109 249 OFFCURVE",
"299 244 OFFCURVE",
"407 244 CURVE"
);
}
);
width = 536;
},
{
anchors = (
{
name = dotbelow;
position = "{234, 0}";
},
{
name = top;
position = "{325, 500}";
}
);
layerId = "C6B97978-DABE-4FCE-AE9B-6B243E6FFD49";
paths = (
{
closed = 1;
nodes = (
"215 364 OFFCURVE",
"246 385 OFFCURVE",
"302 385 CURVE SMOOTH",
"360 385 OFFCURVE",
"374 336 OFFCURVE",
"363 279 CURVE",
"497 274 LINE",
"519 391 OFFCURVE",
"478 510 OFFCURVE",
"327 510 CURVE SMOOTH",
"202 510 OFFCURVE",
"114 439 OFFCURVE",
"73 363 CURVE",
"188 322 LINE"
);
},
{
closed = 1;
nodes = (
"443 0 LINE",
"497 274 LINE",
"367 304 LINE",
"339 156 LINE",
"332 123 OFFCURVE",
"342 0 OFFCURVE",
"368 0 CURVE"
);
},
{
closed = 1;
nodes = (
"403 304 LINE",
"244 304 OFFCURVE",
"36 304 OFFCURVE",
"9 163 CURVE SMOOTH",
"-11 61 OFFCURVE",
"51 -10 OFFCURVE",
"161 -10 CURVE",
"311 -10 OFFCURVE",
"352 128 OFFCURVE",
"386 302 CURVE",
"367 302 LINE",
"342 174 OFFCURVE",
"300 110 OFFCURVE",
"213 110 CURVE SMOOTH",
"151 110 OFFCURVE",
"140 142 OFFCURVE",
"146 171 CURVE SMOOTH",
"154 214 OFFCURVE",
"252 218 OFFCURVE",
"391 218 CURVE"
);
}
);
width = 544;
}
);
leftKerningGroup = o;
rightKerningGroup = a;
unicode = 0061;
},
{
glyphname = ae;
lastChange = "2021-06-05 00:12:59 +0000";
layers = (
{
anchors = (
{
name = top;
position = "{582, 500}";
}
);
layerId = "DFC09A70-1A82-4D07-97CF-EECDCA771356";
paths = (
{
closed = 1;
nodes = (
"672 133 OFFCURVE",
"645 115 OFFCURVE",
"589 115 CURVE SMOOTH",
"496 115 OFFCURVE",
"494 199 OFFCURVE",
"494 245 CURVE SMOOTH",
"494 301 OFFCURVE",
"502 385 OFFCURVE",
"589 385 CURVE SMOOTH",
"643 385 OFFCURVE",
"693 354 OFFCURVE",
"686 211 CURVE",
"822 211 LINE",
"828 448 OFFCURVE",
"706 510 OFFCURVE",
"589 510 CURVE",
"446 510 OFFCURVE",
"359 421 OFFCURVE",
"359 245 CURVE",
"359 79 OFFCURVE",
"446 -10 OFFCURVE",
"589 -10 CURVE",
"707 -12 OFFCURVE",
"786 43 OFFCURVE",
"816 148 CURVE",
"680 168 LINE"
);
},
{
closed = 1;
nodes = (
"387 304 LINE",
"228 304 OFFCURVE",
"20 304 OFFCURVE",
"20 163 CURVE SMOOTH",
"20 61 OFFCURVE",
"96 -10 OFFCURVE",
"206 -10 CURVE",
"356 -10 OFFCURVE",
"450 61 OFFCURVE",
"450 313 CURVE",
"450 313 OFFCURVE",
"361 313 OFFCURVE",
"361 313 CURVE SMOOTH",
"361 185 OFFCURVE",
"321 110 OFFCURVE",
"234 110 CURVE SMOOTH",
"172 110 OFFCURVE",
"155 142 OFFCURVE",
"155 171 CURVE SMOOTH",
"155 214 OFFCURVE",
"252 218 OFFCURVE",
"391 218 CURVE"
);
},
{
closed = 1;
nodes = (
"187 374 OFFCURVE",
"217 385 OFFCURVE",
"276 385 CURVE",
"320 385 OFFCURVE",
"361 359 OFFCURVE",
"361 314 CURVE SMOOTH",
"361 290 OFFCURVE",
"486 200 OFFCURVE",
"486 319 CURVE SMOOTH",
"486 406 OFFCURVE",
"411 510 OFFCURVE",
"270 510 CURVE SMOOTH",
"145 510 OFFCURVE",
"71 449 OFFCURVE",
"45 373 CURVE",
"168 332 LINE"
);
},
{
closed = 1;
nodes = (
"388 211 LINE",
"802 211 LINE",
"802 308 LINE",
"388 308 LINE"
);
}
);
width = 842;
},
{
anchors = (
{
name = top;
position = "{587, 500}";
}
);
layerId = "B950CEFC-B47C-4E26-91C8-4EFB806DAEDB";
paths = (
{
closed = 1;
nodes = (
"723 71 OFFCURVE",
"690 14 OFFCURVE",
"586 14 CURVE SMOOTH",
"473 14 OFFCURVE",
"421 129 OFFCURVE",
"421 250 CURVE SMOOTH",
"421 371 OFFCURVE",
"473 486 OFFCURVE",
"586 486 CURVE SMOOTH",
"680 486 OFFCURVE",
"748 424 OFFCURVE",
"748 258 CURVE",
"774 258 LINE",
"774 445 OFFCURVE",
"684 510 OFFCURVE",
"586 510 CURVE",
"484 510 OFFCURVE",
"397 424 OFFCURVE",
"397 250 CURVE",
"397 76 OFFCURVE",
"484 -10 OFFCURVE",
"586 -10 CURVE",
"692 -11 OFFCURVE",
"744 49 OFFCURVE",
"769 123 CURVE",
"745 127 LINE"
);
},
{
closed = 1;
nodes = (
"409 287 LINE",
"308 287 OFFCURVE",
"39 301 OFFCURVE",
"39 132 CURVE SMOOTH",
"39 50 OFFCURVE",
"105 -10 OFFCURVE",
"215 -10 CURVE",
"395 -10 OFFCURVE",
"424 156 OFFCURVE",
"424 340 CURVE",
"424 340 OFFCURVE",
"399 340 OFFCURVE",
"399 340 CURVE SMOOTH",
"399 185 OFFCURVE",
"391 14 OFFCURVE",
"207 14 CURVE SMOOTH",
"128 14 OFFCURVE",
"63 63 OFFCURVE",
"63 129 CURVE SMOOTH",
"63 276 OFFCURVE",
"324 263 OFFCURVE",
"409 263 CURVE"
);
},
{
closed = 1;
nodes = (
"104 445 OFFCURVE",
"161 486 OFFCURVE",
"250 486 CURVE SMOOTH",
"337 486 OFFCURVE",
"399 427 OFFCURVE",
"399 340 CURVE SMOOTH",
"399 260 OFFCURVE",
"423 242 OFFCURVE",
"423 338 CURVE",
"425 445 OFFCURVE",
"352 510 OFFCURVE",
"250 510 CURVE SMOOTH",
"149 510 OFFCURVE",
"81 459 OFFCURVE",
"64 367 CURVE",
"87 364 LINE"
);
},
{
closed = 1;
nodes = (
"399 258 LINE",
"769 258 LINE",
"769 282 LINE",
"401 282 LINE"
);
}
);
width = 813;
},
{
anchors = (
{
name = top;
position = "{585, 500}";
}
);
layerId = "38A022BC-B010-4522-83EC-9E43C5A6F806";
paths = (
{
closed = 1;
nodes = (
"701 98 OFFCURVE",
"671 57 OFFCURVE",
"587 57 CURVE SMOOTH",
"483 57 OFFCURVE",
"452 159 OFFCURVE",
"452 248 CURVE SMOOTH",
"452 341 OFFCURVE",
"485 443 OFFCURVE",
"587 443 CURVE SMOOTH",
"664 443 OFFCURVE",
"724 394 OFFCURVE",
"721 238 CURVE",
"795 238 LINE",
"797 446 OFFCURVE",
"693 510 OFFCURVE",
"587 510 CURVE",
"468 510 OFFCURVE",
"381 423 OFFCURVE",
"381 248 CURVE",
"381 77 OFFCURVE",
"468 -10 OFFCURVE",
"587 -10 CURVE",
"698 -11 OFFCURVE",
"762 46 OFFCURVE",
"789 134 CURVE",
"717 145 LINE"
);
},
{
closed = 1;
nodes = (
"400 294 LINE",
"274 294 OFFCURVE",
"31 302 OFFCURVE",
"31 145 CURVE SMOOTH",
"31 55 OFFCURVE",
"101 -10 OFFCURVE",
"211 -10 CURVE",
"378 -10 OFFCURVE",
"435 115 OFFCURVE",
"435 328 CURVE",
"435 328 OFFCURVE",
"383 328 OFFCURVE",
"383 328 CURVE SMOOTH",
"383 185 OFFCURVE",
"361 55 OFFCURVE",
"219 55 CURVE SMOOTH",
"147 55 OFFCURVE",
"102 97 OFFCURVE",
"102 147 CURVE SMOOTH",
"102 249 OFFCURVE",
"293 244 OFFCURVE",
"401 244 CURVE"
);
},
{
closed = 1;
nodes = (
"140 415 OFFCURVE",
"185 443 OFFCURVE",
"261 443 CURVE",
"330 443 OFFCURVE",
"383 398 OFFCURVE",
"383 329 CURVE SMOOTH",
"383 273 OFFCURVE",
"450 224 OFFCURVE",
"450 330 CURVE SMOOTH",
"451 428 OFFCURVE",
"377 510 OFFCURVE",
"259 510 CURVE SMOOTH",
"147 510 OFFCURVE",
"77 455 OFFCURVE",
"56 370 CURVE",
"122 350 LINE"
);
},
{
closed = 1;
nodes = (
"394 238 LINE",
"783 238 LINE",
"783 293 LINE",
"395 293 LINE"
);
}
);
width = 825;
},
{
anchors = (
{
name = top;
position = "{636, 500}";
}
);
layerId = "8272A2C0-77E7-4CE8-91FB-35293E9750F3";
paths = (
{
closed = 1;
nodes = (
"688 71 OFFCURVE",
"644 14 OFFCURVE",
"540 14 CURVE SMOOTH",
"427 14 OFFCURVE",
"397 129 OFFCURVE",
"421 250 CURVE SMOOTH",
"445 371 OFFCURVE",
"519 486 OFFCURVE",
"632 486 CURVE SMOOTH",
"726 486 OFFCURVE",
"782 424 OFFCURVE",
"750 258 CURVE",
"776 258 LINE",
"812 445 OFFCURVE",
"735 510 OFFCURVE",
"637 510 CURVE",
"535 510 OFFCURVE",
"431 424 OFFCURVE",
"397 250 CURVE",
"363 76 OFFCURVE",
"433 -10 OFFCURVE",
"535 -10 CURVE",
"641 -11 OFFCURVE",
"705 49 OFFCURVE",
"744 123 CURVE",
"721 127 LINE"
);
},
{
closed = 1;
nodes = (
"416 287 LINE",
"315 287 OFFCURVE",
"49 301 OFFCURVE",
"16 132 CURVE SMOOTH",
"0 50 OFFCURVE",
"54 -10 OFFCURVE",
"164 -10 CURVE",
"344 -10 OFFCURVE",
"406 156 OFFCURVE",
"441 340 CURVE",
"441 340 OFFCURVE",
"416 340 OFFCURVE",
"416 340 CURVE SMOOTH",
"386 185 OFFCURVE",
"345 14 OFFCURVE",
"161 14 CURVE SMOOTH",
"82 14 OFFCURVE",
"27 63 OFFCURVE",
"39 129 CURVE SMOOTH",
"68 276 OFFCURVE",
"327 263 OFFCURVE",
"412 263 CURVE"
);
},
{
closed = 1;
nodes = (
"142 445 OFFCURVE",
"207 486 OFFCURVE",
"296 486 CURVE SMOOTH",
"383 486 OFFCURVE",
"433 427 OFFCURVE",
"416 340 CURVE SMOOTH",
"401 260 OFFCURVE",
"421 242 OFFCURVE",
"440 338 CURVE",
"463 445 OFFCURVE",
"403 510 OFFCURVE",
"301 510 CURVE SMOOTH",
"200 510 OFFCURVE",
"122 459 OFFCURVE",
"87 367 CURVE",
"109 364 LINE"
);
},
{
closed = 1;
nodes = (
"401 258 LINE",
"771 258 LINE",
"775 282 LINE",
"407 282 LINE"
);
}
);
width = 813;
},
{
anchors = (
{
name = top;
position = "{634, 500}";
}
);
layerId = "49D7192B-8546-40FB-A974-820F9CFADE69";
paths = (
{
closed = 1;
nodes = (
"671 98 OFFCURVE",
"633 57 OFFCURVE",
"549 57 CURVE SMOOTH",
"445 57 OFFCURVE",
"434 159 OFFCURVE",
"452 248 CURVE SMOOTH",
"470 341 OFFCURVE",
"523 443 OFFCURVE",
"625 443 CURVE SMOOTH",
"702 443 OFFCURVE",
"752 394 OFFCURVE",
"719 238 CURVE",
"793 238 LINE",
"835 446 OFFCURVE",
"744 510 OFFCURVE",
"638 510 CURVE",
"519 510 OFFCURVE",
"415 423 OFFCURVE",
"381 248 CURVE",
"347 77 OFFCURVE",
"417 -10 OFFCURVE",
"536 -10 CURVE",
"647 -11 OFFCURVE",
"722 46 OFFCURVE",
"766 134 CURVE",
"697 145 LINE"
);
},
{
closed = 1;
nodes = (
"409 294 LINE",
"283 294 OFFCURVE",
"41 302 OFFCURVE",
"11 145 CURVE SMOOTH",
"-7 55 OFFCURVE",
"50 -10 OFFCURVE",
"160 -10 CURVE",
"327 -10 OFFCURVE",
"409 115 OFFCURVE",
"450 328 CURVE",
"450 328 OFFCURVE",
"398 328 OFFCURVE",
"398 328 CURVE SMOOTH",
"370 185 OFFCURVE",
"323 55 OFFCURVE",
"181 55 CURVE SMOOTH",
"109 55 OFFCURVE",
"72 97 OFFCURVE",
"82 147 CURVE SMOOTH",
"102 249 OFFCURVE",
"292 244 OFFCURVE",
"400 244 CURVE"
);
},
{
closed = 1;
nodes = (
"172 415 OFFCURVE",
"223 443 OFFCURVE",
"299 443 CURVE",
"368 443 OFFCURVE",
"412 398 OFFCURVE",
"398 329 CURVE SMOOTH",
"387 273 OFFCURVE",
"445 224 OFFCURVE",
"466 330 CURVE SMOOTH",
"486 428 OFFCURVE",
"428 510 OFFCURVE",
"310 510 CURVE SMOOTH",
"198 510 OFFCURVE",
"117 455 OFFCURVE",
"79 370 CURVE",
"141 350 LINE"
);
},
{
closed = 1;
nodes = (
"392 238 LINE",
"781 238 LINE",
"791 293 LINE",
"403 293 LINE"
);
}
);
width = 825;
},
{
anchors = (
{
name = top;
position = "{631, 500}";
}
);
layerId = "C6B97978-DABE-4FCE-AE9B-6B243E6FFD49";
paths = (
{
closed = 1;
nodes = (
"649 133 OFFCURVE",
"619 115 OFFCURVE",
"563 115 CURVE SMOOTH",
"470 115 OFFCURVE",
"484 199 OFFCURVE",
"493 245 CURVE SMOOTH",
"504 301 OFFCURVE",
"528 385 OFFCURVE",
"615 385 CURVE SMOOTH",
"669 385 OFFCURVE",
"713 354 OFFCURVE",
"678 211 CURVE",
"814 211 LINE",
"866 448 OFFCURVE",
"757 510 OFFCURVE",
"640 510 CURVE",
"497 510 OFFCURVE",
"392 421 OFFCURVE",
"358 245 CURVE",
"326 79 OFFCURVE",
"395 -10 OFFCURVE",
"538 -10 CURVE",
"656 -12 OFFCURVE",
"746 43 OFFCURVE",
"796 148 CURVE",
"664 168 LINE"
);
},
{
closed = 1;
nodes = (
"397 304 LINE",
"238 304 OFFCURVE",
"30 304 OFFCURVE",
"3 163 CURVE SMOOTH",
"-17 61 OFFCURVE",
"45 -10 OFFCURVE",
"155 -10 CURVE",
"305 -10 OFFCURVE",
"413 61 OFFCURVE",
"462 313 CURVE",
"462 313 OFFCURVE",
"373 313 OFFCURVE",
"373 313 CURVE SMOOTH",
"348 185 OFFCURVE",
"294 110 OFFCURVE",
"207 110 CURVE SMOOTH",
"145 110 OFFCURVE",
"134 142 OFFCURVE",
"140 171 CURVE SMOOTH",
"148 214 OFFCURVE",
"246 218 OFFCURVE",
"385 218 CURVE"
);
},
{
closed = 1;
nodes = (
"211 374 OFFCURVE",
"243 385 OFFCURVE",
"302 385 CURVE",
"346 385 OFFCURVE",
"382 359 OFFCURVE",
"373 314 CURVE SMOOTH",
"369 290 OFFCURVE",
"476 200 OFFCURVE",
"499 319 CURVE SMOOTH",
"516 406 OFFCURVE",
"462 510 OFFCURVE",
"321 510 CURVE SMOOTH",
"196 510 OFFCURVE",
"110 449 OFFCURVE",
"69 373 CURVE",
"184 332 LINE"
);
},
{
closed = 1;
nodes = (
"380 211 LINE",
"794 211 LINE",
"813 308 LINE",
"399 308 LINE"
);
}
);
width = 842;
}
);
leftKerningGroup = o;
rightKerningGroup = e;
unicode = 00E6;
},
{
glyphname = b;
lastChange = "2021-06-05 00:12:59 +0000";
layers = (
{
components = (
{
name = "lowercase-curve";
transform = "{1, 0, 0, 1, 166, 0}";
},
{
name = "lowercase-curve";
transform = "{1, 0, 0, -1, 166, 500}";
},
{
name = "lowercase-vertical";
transform = "{1, 0, 0, -1, 52, 500}";
}
);
layerId = "DFC09A70-1A82-4D07-97CF-EECDCA771356";
paths = (
{
closed = 1;
nodes = (
"187 500 LINE",
"187 700 LINE",
"52 700 LINE",
"52 500 LINE"
);
}
);
width = 552;
},
{
components = (
{
name = "lowercase-curve";
transform = "{1, 0, 0, 1, 110, 1}";
},
{
name = "lowercase-curve";
transform = "{1, 0, 0, -1, 110, 500}";
},
{
name = "lowercase-vertical";
transform = "{1, 0, 0, -1, 100, 500}";
}
);
layerId = "B950CEFC-B47C-4E26-91C8-4EFB806DAEDB";
paths = (
{
closed = 1;
nodes = (
"124 500 LINE",
"124 700 LINE",
"100 700 LINE",
"100 500 LINE"
);
}
);
width = 535;
},
{
components = (
{
alignment = -1;
name = "lowercase-curve";
transform = "{1, 0, 0, 1, 134, 1}";
},
{
alignment = -1;
name = "lowercase-curve";
transform = "{1, 0, 0, -1, 134, 500}";
},
{
alignment = -1;
name = "lowercase-vertical";
transform = "{1, 0, 0, -1, 79, 500}";
}
);
layerId = "38A022BC-B010-4522-83EC-9E43C5A6F806";
paths = (
{
closed = 1;
nodes = (
"151 500 LINE",
"151 700 LINE",
"79 700 LINE",
"79 500 LINE"
);
}
);
width = 542;
},
{
components = (
{
name = "lowercase-curve";
transform = "{1, 0, 0.19438, 1, 62, 1}";
},
{
name = "lowercase-curve";
transform = "{1, 0, -0.19438, -1, 159, 500}";
},
{
name = "lowercase-vertical";
transform = "{1, 0, -0.19438, -1, 149, 500}";
}
);
layerId = "8272A2C0-77E7-4CE8-91FB-35293E9750F3";
paths = (
{
closed = 1;
nodes = (
"173 500 LINE",
"211 700 LINE",
"187 700 LINE",
"149 500 LINE"
);
}
);
width = 535;
},
{
components = (
{
alignment = -1;
name = "lowercase-curve";
transform = "{1, 0, 0.19438, 1, 86, 1}";
},
{
alignment = -1;
name = "lowercase-curve";
transform = "{1, 0, -0.19438, -1, 183, 500}";
},
{
alignment = -1;
name = "lowercase-vertical";
transform = "{1, 0, -0.19438, -1, 128, 500}";
}
);
layerId = "49D7192B-8546-40FB-A974-820F9CFADE69";
paths = (
{
closed = 1;
nodes = (
"200 500 LINE",
"238 700 LINE",
"166 700 LINE",
"128 500 LINE"
);
}
);
width = 542;
},
{
components = (
{
name = "lowercase-curve";
transform = "{1, 0, 0.19438, 1, 117, 0}";
},
{
name = "lowercase-curve";
transform = "{1, 0, -0.19438, -1, 215, 500}";
},
{
name = "lowercase-vertical";
transform = "{1, 0, -0.19438, -1, 101, 500}";
}
);
layerId = "C6B97978-DABE-4FCE-AE9B-6B243E6FFD49";
paths = (
{
closed = 1;
nodes = (
"236 500 LINE",
"274 700 LINE",
"139 700 LINE",
"101 500 LINE"
);
}
);
width = 552;
}
);
unicode = 0062;
},
{
glyphname = c;
lastChange = "2021-06-05 00:12:59 +0000";
layers = (
{
anchors = (
{
name = bottom;
position = "{220, 0}";
},
{
name = top;
position = "{257, 500}";
}
);
layerId = "DFC09A70-1A82-4D07-97CF-EECDCA771356";
paths = (
{
closed = 1;
nodes = (
"385 -12 OFFCURVE",
"468 53 OFFCURVE",
"491 177 CURVE",
"357 196 LINE",
"349 156 OFFCURVE",
"324 115 OFFCURVE",
"257 115 CURVE SMOOTH",
"170 115 OFFCURVE",
"162 199 OFFCURVE",
"162 245 CURVE SMOOTH",
"162 301 OFFCURVE",
"170 385 OFFCURVE",
"257 385 CURVE SMOOTH",
"321 385 OFFCURVE",
"346 349 OFFCURVE",
"356 308 CURVE",
"490 326 LINE",
"466 448 OFFCURVE",
"384 510 OFFCURVE",
"257 510 CURVE",
"114 510 OFFCURVE",
"27 421 OFFCURVE",
"27 245 CURVE",
"27 79 OFFCURVE",
"114 -10 OFFCURVE",
"257 -10 CURVE"
);
},
{
closed = 0;
nodes = (
"356 308 LINE"
);
},
{
closed = 0;
nodes = (
"491 177 LINE"
);
}
);
width = 508;
},
{
anchors = (
{
name = bottom;
position = "{226, 0}";
},
{
name = top;
position = "{264, 500}";
}
);
layerId = "B950CEFC-B47C-4E26-91C8-4EFB806DAEDB";
paths = (
{
closed = 1;
nodes = (
"354 -10 OFFCURVE",
"406 52 OFFCURVE",
"430 127 CURVE",
"407 133 LINE",
"385 75 OFFCURVE",
"354 14 OFFCURVE",
"246 14 CURVE SMOOTH",
"133 14 OFFCURVE",
"81 129 OFFCURVE",
"81 250 CURVE SMOOTH",
"81 371 OFFCURVE",
"133 486 OFFCURVE",
"246 486 CURVE SMOOTH",
"350 486 OFFCURVE",
"384 429 OFFCURVE",
"408 361 CURVE",
"431 366 LINE",
"406 450 OFFCURVE",
"354 510 OFFCURVE",
"246 510 CURVE",
"144 510 OFFCURVE",
"57 424 OFFCURVE",
"57 250 CURVE",
"57 76 OFFCURVE",
"144 -10 OFFCURVE",
"246 -10 CURVE"
);
},
{
closed = 0;
nodes = (
"430 127 LINE"
);
},
{
closed = 0;
nodes = (
"408 361 LINE"
);
}
);
width = 472;
},
{
anchors = (
{
name = bottom;
position = "{223, 0}";
},
{
name = top;
position = "{261, 500}";
}
);
layerId = "38A022BC-B010-4522-83EC-9E43C5A6F806";
paths = (
{
closed = 1;
nodes = (
"367 -11 OFFCURVE",
"433 52 OFFCURVE",
"456 148 CURVE",
"386 160 LINE",
"370 110 OFFCURVE",
"341 57 OFFCURVE",
"251 57 CURVE SMOOTH",
"149 57 OFFCURVE",
"116 159 OFFCURVE",
"116 248 CURVE SMOOTH",
"116 341 OFFCURVE",
"149 443 OFFCURVE",
"251 443 CURVE SMOOTH",
"338 443 OFFCURVE",
"368 395 OFFCURVE",
"386 338 CURVE",
"456 349 LINE",
"432 449 OFFCURVE",
"367 510 OFFCURVE",
"251 510 CURVE",
"131 510 OFFCURVE",
"44 423 OFFCURVE",
"44 248 CURVE",
"44 77 OFFCURVE",
"131 -10 OFFCURVE",
"251 -10 CURVE"
);
},
{
closed = 0;
nodes = (
"398 205 LINE"
);
},
{
closed = 0;
nodes = (
"444 282 LINE"
);
}
);
width = 487;
},
{
anchors = (
{
name = bottom;
position = "{177, 0}";
},
{
name = top;
position = "{313, 500}";
}
);
layerId = "8272A2C0-77E7-4CE8-91FB-35293E9750F3";
paths = (
{
closed = 1;
nodes = (
"303 -10 OFFCURVE",
"368 52 OFFCURVE",
"406 127 CURVE",
"384 133 LINE",
"351 75 OFFCURVE",
"308 14 OFFCURVE",
"200 14 CURVE SMOOTH",
"87 14 OFFCURVE",
"57 129 OFFCURVE",
"81 250 CURVE SMOOTH",
"105 371 OFFCURVE",
"179 486 OFFCURVE",
"292 486 CURVE SMOOTH",
"396 486 OFFCURVE",
"419 429 OFFCURVE",
"430 361 CURVE",
"454 366 LINE",
"445 450 OFFCURVE",
"405 510 OFFCURVE",
"297 510 CURVE",
"195 510 OFFCURVE",
"91 424 OFFCURVE",
"57 250 CURVE",
"23 76 OFFCURVE",
"93 -10 OFFCURVE",
"195 -10 CURVE"
);
},
{
closed = 0;
nodes = (
"406 127 LINE"
);
},
{
closed = 0;
nodes = (
"430 361 LINE"
);
}
);
width = 472;
},
{
anchors = (
{
name = bottom;
position = "{174, 0}";
},
{
name = top;
position = "{310, 500}";
}
);
layerId = "49D7192B-8546-40FB-A974-820F9CFADE69";
paths = (
{
closed = 1;
nodes = (
"316 -11 OFFCURVE",
"395 52 OFFCURVE",
"436 148 CURVE",
"369 160 LINE",
"343 110 OFFCURVE",
"303 57 OFFCURVE",
"213 57 CURVE SMOOTH",
"111 57 OFFCURVE",
"98 159 OFFCURVE",
"116 248 CURVE SMOOTH",
"134 341 OFFCURVE",
"187 443 OFFCURVE",
"289 443 CURVE SMOOTH",
"376 443 OFFCURVE",
"396 395 OFFCURVE",
"403 338 CURVE",
"475 349 LINE",
"471 449 OFFCURVE",
"418 510 OFFCURVE",
"302 510 CURVE",
"182 510 OFFCURVE",
"78 423 OFFCURVE",
"44 248 CURVE",
"10 77 OFFCURVE",
"80 -10 OFFCURVE",
"200 -10 CURVE"
);
},
{
closed = 0;
nodes = (
"389 205 LINE"
);
},
{
closed = 0;
nodes = (
"450 282 LINE"
);
}
);
width = 487;
},
{
anchors = (
{
name = bottom;
position = "{171, 0}";
},
{
name = top;
position = "{306, 500}";
}
);
layerId = "C6B97978-DABE-4FCE-AE9B-6B243E6FFD49";
paths = (
{
closed = 1;
nodes = (
"334 -12 OFFCURVE",
"430 53 OFFCURVE",
"477 177 CURVE",
"347 196 LINE",
"331 156 OFFCURVE",
"298 115 OFFCURVE",
"231 115 CURVE SMOOTH",
"144 115 OFFCURVE",
"152 199 OFFCURVE",
"161 245 CURVE SMOOTH",
"172 301 OFFCURVE",
"196 385 OFFCURVE",
"283 385 CURVE SMOOTH",
"347 385 OFFCURVE",
"365 349 OFFCURVE",
"367 308 CURVE",
"505 326 LINE",
"504 448 OFFCURVE",
"435 510 OFFCURVE",
"308 510 CURVE",
"165 510 OFFCURVE",
"60 421 OFFCURVE",
"26 245 CURVE",
"-6 79 OFFCURVE",
"63 -10 OFFCURVE",
"206 -10 CURVE"
);
},
{
closed = 0;
nodes = (
"367 308 LINE"
);
},
{
closed = 0;
nodes = (
"477 177 LINE"
);
}
);
width = 508;
}
);
leftKerningGroup = o;
unicode = 0063;
},
{
glyphname = d;
lastChange = "2021-06-05 00:12:59 +0000";
layers = (
{
components = (
{
name = "lowercase-curve";
transform = "{-1, 0, 0, 1, 386, 0}";
},
{
name = "lowercase-curve";
transform = "{-1, 0, 0, -1, 386, 500}";
},
{
name = "lowercase-vertical";
transform = "{-1, 0, 0, -1, 500, 500}";
}
);
layerId = "DFC09A70-1A82-4D07-97CF-EECDCA771356";
paths = (
{
closed = 1;
nodes = (
"500 700 LINE",
"365 700 LINE",
"365 500 LINE",
"500 500 LINE"
);
}
);
width = 552;
},
{
components = (
{
name = "lowercase-curve";
transform = "{-1, 0, 0, 1, 425, 1}";
},
{
name = "lowercase-curve";
transform = "{-1, 0, 0, -1, 425, 500}";
},
{
name = "lowercase-vertical";
transform = "{-1, 0, 0, -1, 435, 500}";
}
);
layerId = "B950CEFC-B47C-4E26-91C8-4EFB806DAEDB";
paths = (
{
closed = 1;
nodes = (
"435 700 LINE",
"411 700 LINE",
"411 500 LINE",
"435 500 LINE"
);
}
);
width = 535;
},
{
components = (
{
alignment = -1;
name = "lowercase-curve";
transform = "{-1, 0, 0, 1, 408, 1}";
},
{
alignment = -1;
name = "lowercase-curve";
transform = "{-1, 0, 0, -1, 408, 500}";
},
{
alignment = -1;
name = "lowercase-vertical";
transform = "{-1, 0, 0, -1, 463, 500}";
}
);
layerId = "38A022BC-B010-4522-83EC-9E43C5A6F806";
paths = (
{
closed = 1;
nodes = (
"463 700 LINE",
"391 700 LINE",
"391 500 LINE",
"463 500 LINE"
);
}
);
width = 542;
},
{
components = (
{
name = "lowercase-curve";
transform = "{-1, 0, 0.19438, 1, 377, 1}";
},
{
name = "lowercase-curve";
transform = "{-1, 0, -0.19438, -1, 474, 500}";
},
{
name = "lowercase-vertical";
transform = "{-1, 0, -0.19438, -1, 484, 500}";
}
);
layerId = "8272A2C0-77E7-4CE8-91FB-35293E9750F3";
paths = (
{
closed = 1;
nodes = (
"522 700 LINE",
"498 700 LINE",
"460 500 LINE",
"484 500 LINE"
);
}
);
width = 535;
},
{
components = (
{
alignment = -1;
name = "lowercase-curve";
transform = "{-1, 0, 0.19438, 1, 360, 1}";
},
{
alignment = -1;
name = "lowercase-curve";
transform = "{-1, 0, -0.19438, -1, 457, 500}";
},
{
alignment = -1;
name = "lowercase-vertical";
transform = "{-1, 0, -0.19438, -1, 512, 500}";
}
);
layerId = "49D7192B-8546-40FB-A974-820F9CFADE69";
paths = (
{
closed = 1;
nodes = (
"550 700 LINE",
"478 700 LINE",
"440 500 LINE",
"512 500 LINE"
);
}
);
width = 542;
},
{
components = (
{
name = "lowercase-curve";
transform = "{-1, 0, 0.19438, 1, 337, 0}";
},
{
name = "lowercase-curve";
transform = "{-1, 0, -0.19438, -1, 435, 500}";
},
{
name = "lowercase-vertical";
transform = "{-1, 0, -0.19438, -1, 549, 500}";
}
);
layerId = "C6B97978-DABE-4FCE-AE9B-6B243E6FFD49";
paths = (
{
closed = 1;
nodes = (
"587 700 LINE",
"452 700 LINE",
"414 500 LINE",
"549 500 LINE"
);
}
);
width = 552;
}
);
leftKerningGroup = o;
unicode = 0064;
},
{
glyphname = eth;
lastChange = "2021-06-05 00:12:59 +0000";
layers = (
{
components = (
{
name = o;
}
);
layerId = "DFC09A70-1A82-4D07-97CF-EECDCA771356";
paths = (
{
closed = 1;
nodes = (
"478 467 OFFCURVE",
"383 609 OFFCURVE",
"302 666 CURVE",
"334 713 LINE",
"258 765 LINE",
"225 717 LINE",
"199 732 OFFCURVE",
"171 746 OFFCURVE",
"141 759 CURVE",
"79 668 LINE",
"103 659 OFFCURVE",
"132 646 OFFCURVE",
"165 629 CURVE",
"136 587 LINE",
"211 534 LINE",
"242 580 LINE",
"276 556 OFFCURVE",
"354 480 OFFCURVE",
"372 292 CURVE",
"491 305 LINE"
);
}
);
width = 522;
},
{
components = (
{
name = o;
transform = "{1, 0, 0, 1, -1, 0}";
}
);
layerId = "B950CEFC-B47C-4E26-91C8-4EFB806DAEDB";
paths = (
{
closed = 1;
nodes = (
"440 460 OFFCURVE",
"354 593 OFFCURVE",
"255 660 CURVE",
"294 718 LINE",
"275 731 LINE",
"236 672 LINE",
"209 689 OFFCURVE",
"177 705 OFFCURVE",
"140 721 CURVE",
"128 700 LINE",
"163 686 OFFCURVE",
"195 671 OFFCURVE",
"223 654 CURVE",
"170 574 LINE",
"189 561 LINE",
"243 641 LINE",
"330 582 OFFCURVE",
"418 456 OFFCURVE",
"446 356 CURVE",
"466 345 LINE"
);
}
);
width = 534;
},
{
components = (
{
alignment = -1;
name = o;
transform = "{1, 0, 0, 1, -1, 0}";
}
);
layerId = "38A022BC-B010-4522-83EC-9E43C5A6F806";
paths = (
{
closed = 1;
nodes = (
"456 463 OFFCURVE",
"366 600 OFFCURVE",
"275 663 CURVE",
"311 716 LINE",
"268 746 LINE",
"231 691 LINE",
"205 707 OFFCURVE",
"174 723 OFFCURVE",
"140 737 CURVE",
"107 686 LINE",
"137 674 OFFCURVE",
"168 660 OFFCURVE",
"198 643 CURVE",
"155 580 LINE",
"198 549 LINE",
"243 615 LINE",
"307 571 OFFCURVE",
"391 466 OFFCURVE",
"414 329 CURVE",
"477 328 LINE"
);
}
);
width = 529;
},
{
components = (
{
name = o;
transform = "{1, 0, 0, 1, -1, 0}";
}
);
layerId = "8272A2C0-77E7-4CE8-91FB-35293E9750F3";
paths = (
{
closed = 1;
nodes = (
"481 460 OFFCURVE",
"421 593 OFFCURVE",
"335 660 CURVE",
"385 718 LINE",
"368 731 LINE",
"318 672 LINE",
"294 689 OFFCURVE",
"265 705 OFFCURVE",
"232 721 CURVE",
"215 700 LINE",
"248 686 OFFCURVE",
"277 671 OFFCURVE",
"302 654 CURVE",
"233 574 LINE",
"249 561 LINE",
"319 641 LINE",
"395 582 OFFCURVE",
"458 456 OFFCURVE",
"467 356 CURVE",
"484 345 LINE"
);
}
);
width = 534;
},
{
components = (
{
alignment = -1;
name = o;
transform = "{1, 0, 0, 1, -1, 0}";
}
);
layerId = "49D7192B-8546-40FB-A974-820F9CFADE69";
paths = (
{
closed = 1;
nodes = (
"497 463 OFFCURVE",
"434 600 OFFCURVE",
"355 663 CURVE",
"402 716 LINE",
"364 746 LINE",
"317 691 LINE",
"294 707 OFFCURVE",
"266 723 OFFCURVE",
"235 737 CURVE",
"192 686 LINE",
"219 674 OFFCURVE",
"248 660 OFFCURVE",
"274 643 CURVE",
"219 580 LINE",
"256 549 LINE",
"314 615 LINE",
"369 571 OFFCURVE",
"433 466 OFFCURVE",
"429 329 CURVE",
"492 328 LINE"
);
}
);
width = 529;
},
{
components = (
{
name = o;
}
);
layerId = "C6B97978-DABE-4FCE-AE9B-6B243E6FFD49";
paths = (
{
closed = 1;
nodes = (
"520 467 OFFCURVE",
"453 609 OFFCURVE",
"383 666 CURVE",
"424 713 LINE",
"358 765 LINE",
"316 717 LINE",
"293 732 OFFCURVE",
"267 746 OFFCURVE",
"240 759 CURVE",
"160 668 LINE",
"183 659 OFFCURVE",
"209 646 OFFCURVE",
"239 629 CURVE",
"202 587 LINE",
"266 534 LINE",
"306 580 LINE",
"335 556 OFFCURVE",
"399 480 OFFCURVE",
"380 292 CURVE",
"502 305 LINE"
);
}
);
width = 522;
}
);
leftKerningGroup = o;
unicode = 00F0;
},
{
glyphname = dcroat;
lastChange = "2021-06-05 00:12:59 +0000";
layers = (
{
components = (
{
name = d;
transform = "{1, 0, 0, 1, -8, 0}";
}
);
layerId = "DFC09A70-1A82-4D07-97CF-EECDCA771356";
paths = (
{
closed = 1;
nodes = (
"253 551 LINE",
"572 551 LINE",
"572 656 LINE",
"253 656 LINE"
);
}
);
width = 572;
},
{
components = (
{
name = d;
transform = "{1, 0, 0, 1, -3, 0}";
}
);
layerId = "B950CEFC-B47C-4E26-91C8-4EFB806DAEDB";
paths = (
{
closed = 1;
nodes = (
"268 592 LINE",
"507 592 LINE",
"507 616 LINE",
"268 616 LINE"
);
}
);
width = 538;
},
{
components = (
{
alignment = -1;
name = d;
transform = "{1, 0, 0, 1, -5, 0}";
}
);
layerId = "38A022BC-B010-4522-83EC-9E43C5A6F806";
paths = (
{
closed = 1;
nodes = (
"262 574 LINE",
"535 574 LINE",
"535 633 LINE",
"262 633 LINE"
);
}
);
width = 553;
},
{
components = (
{
name = d;
transform = "{1, 0, 0, 1, -3, 0}";
}
);
layerId = "8272A2C0-77E7-4CE8-91FB-35293E9750F3";
paths = (
{
closed = 1;
nodes = (
"334 592 LINE",
"573 592 LINE",
"578 616 LINE",
"339 616 LINE"
);
}
);
width = 538;
},
{
components = (
{
alignment = -1;
name = d;
transform = "{1, 0, 0, 1, -5, 0}";
}
);
layerId = "49D7192B-8546-40FB-A974-820F9CFADE69";
paths = (
{
closed = 1;
nodes = (
"325 574 LINE",
"598 574 LINE",
"609 633 LINE",
"336 633 LINE"
);
}
);
width = 553;
},
{
components = (
{
name = d;
transform = "{1, 0, 0, 1, -8, 0}";
}
);
layerId = "C6B97978-DABE-4FCE-AE9B-6B243E6FFD49";
paths = (
{
closed = 1;
nodes = (
"312 551 LINE",
"631 551 LINE",
"651 656 LINE",
"332 656 LINE"
);
}
);
width = 572;
}
);
leftKerningGroup = o;
unicode = 0111;
},
{
glyphname = e;
lastChange = "2021-06-05 00:12:59 +0000";
layers = (
{
anchors = (
{
name = dotbelow;
position = "{257, 0}";
},
{
name = top;
position = "{250, 500}";
}
);
layerId = "DFC09A70-1A82-4D07-97CF-EECDCA771356";
paths = (
{
closed = 1;
nodes = (
"340 133 OFFCURVE",
"313 115 OFFCURVE",
"257 115 CURVE SMOOTH",
"164 115 OFFCURVE",
"162 199 OFFCURVE",
"162 245 CURVE SMOOTH",
"162 301 OFFCURVE",
"170 385 OFFCURVE",
"257 385 CURVE SMOOTH",
"311 385 OFFCURVE",
"361 354 OFFCURVE",
"354 211 CURVE",
"490 211 LINE",
"496 448 OFFCURVE",
"374 510 OFFCURVE",
"257 510 CURVE",
"114 510 OFFCURVE",
"27 421 OFFCURVE",
"27 245 CURVE",
"27 79 OFFCURVE",
"114 -10 OFFCURVE",
"257 -10 CURVE",
"375 -12 OFFCURVE",
"454 43 OFFCURVE",
"484 148 CURVE",
"348 168 LINE"
);
},
{
closed = 1;
nodes = (
"56 211 LINE",
"470 211 LINE",
"470 308 LINE",
"56 308 LINE"
);
}
);
width = 522;
},
{
anchors = (
{
name = dotbelow;
position = "{257, 0}";
},
{
name = top;
position = "{256, 500}";
}
);
layerId = "B950CEFC-B47C-4E26-91C8-4EFB806DAEDB";
paths = (
{
closed = 1;
nodes = (
"392 71 OFFCURVE",
"359 14 OFFCURVE",
"255 14 CURVE SMOOTH",
"142 14 OFFCURVE",
"90 129 OFFCURVE",
"90 250 CURVE SMOOTH",
"90 371 OFFCURVE",
"142 486 OFFCURVE",
"255 486 CURVE SMOOTH",
"349 486 OFFCURVE",
"417 424 OFFCURVE",
"417 258 CURVE",
"443 258 LINE",
"443 445 OFFCURVE",
"353 510 OFFCURVE",
"255 510 CURVE",
"153 510 OFFCURVE",
"66 424 OFFCURVE",
"66 250 CURVE",
"66 76 OFFCURVE",
"153 -10 OFFCURVE",
"255 -10 CURVE",
"361 -11 OFFCURVE",
"413 49 OFFCURVE",
"438 123 CURVE",
"414 127 LINE"
);
},
{
closed = 1;
nodes = (
"68 258 LINE",
"438 258 LINE",
"438 282 LINE",
"70 282 LINE"
);
}
);
width = 510;
},
{
anchors = (
{
name = dotbelow;
position = "{257, 0}";
},
{
name = top;
position = "{256, 500}";
}
);
layerId = "38A022BC-B010-4522-83EC-9E43C5A6F806";
paths = (
{
closed = 1;
nodes = (
"371 97 OFFCURVE",
"340 52 OFFCURVE",
"256 52 CURVE SMOOTH",
"153 52 OFFCURVE",
"117 155 OFFCURVE",
"117 249 CURVE SMOOTH",
"117 345 OFFCURVE",
"153 449 OFFCURVE",
"256 449 CURVE SMOOTH",
"335 449 OFFCURVE",
"396 398 OFFCURVE",
"394 241 CURVE",
"461 241 LINE",
"463 447 OFFCURVE",
"361 510 OFFCURVE",
"256 510 CURVE",
"139 510 OFFCURVE",
"52 423 OFFCURVE",
"52 249 CURVE",
"52 78 OFFCURVE",
"139 -10 OFFCURVE",
"256 -10 CURVE",
"366 -12 OFFCURVE",
"429 47 OFFCURVE",
"455 133 CURVE",
"389 143 LINE"
);
},
{
closed = 1;
nodes = (
"70 241 LINE",
"428 241 LINE",
"428 302 LINE",
"70 302 LINE"
);
}
);
width = 515;
},
{
anchors = (
{
name = dotbelow;
position = "{208, 0}";
},
{
name = top;
position = "{305, 500}";
}
);
layerId = "8272A2C0-77E7-4CE8-91FB-35293E9750F3";
paths = (
{
closed = 1;
nodes = (
"357 71 OFFCURVE",
"313 14 OFFCURVE",
"209 14 CURVE SMOOTH",
"96 14 OFFCURVE",
"66 129 OFFCURVE",
"90 250 CURVE SMOOTH",
"114 371 OFFCURVE",
"188 486 OFFCURVE",
"301 486 CURVE SMOOTH",
"395 486 OFFCURVE",
"451 424 OFFCURVE",
"419 258 CURVE",
"445 258 LINE",
"481 445 OFFCURVE",
"404 510 OFFCURVE",
"306 510 CURVE",
"204 510 OFFCURVE",
"100 424 OFFCURVE",
"66 250 CURVE",
"32 76 OFFCURVE",
"102 -10 OFFCURVE",
"204 -10 CURVE",
"310 -11 OFFCURVE",
"374 49 OFFCURVE",
"413 123 CURVE",
"390 127 LINE"
);
},
{
closed = 1;
nodes = (
"70 258 LINE",
"440 258 LINE",
"444 282 LINE",
"76 282 LINE"
);
}
);
width = 510;
},
{
anchors = (
{
name = dotbelow;
position = "{208, 0}";
},
{
name = top;
position = "{305, 500}";
}
);
layerId = "49D7192B-8546-40FB-A974-820F9CFADE69";
paths = (
{
closed = 1;
nodes = (
"341 97 OFFCURVE",
"302 52 OFFCURVE",
"218 52 CURVE SMOOTH",
"115 52 OFFCURVE",
"99 155 OFFCURVE",
"117 249 CURVE SMOOTH",
"135 345 OFFCURVE",
"192 449 OFFCURVE",
"295 449 CURVE SMOOTH",
"374 449 OFFCURVE",
"425 398 OFFCURVE",
"392 241 CURVE",
"459 241 LINE",
"501 447 OFFCURVE",
"412 510 OFFCURVE",
"307 510 CURVE",
"190 510 OFFCURVE",
"86 423 OFFCURVE",
"52 249 CURVE",
"19 78 OFFCURVE",
"88 -10 OFFCURVE",
"205 -10 CURVE",
"315 -12 OFFCURVE",
"390 47 OFFCURVE",
"432 133 CURVE",
"368 143 LINE"
);
},
{
closed = 1;
nodes = (
"68 241 LINE",
"426 241 LINE",
"438 302 LINE",
"80 302 LINE"
);
}
);
width = 515;
},
{
anchors = (
{
name = dotbelow;
position = "{208, 0}";
},
{
name = top;
position = "{299, 500}";
}
);
layerId = "C6B97978-DABE-4FCE-AE9B-6B243E6FFD49";
paths = (
{
closed = 1;
nodes = (
"317 133 OFFCURVE",
"287 115 OFFCURVE",
"231 115 CURVE SMOOTH",
"138 115 OFFCURVE",
"152 199 OFFCURVE",
"161 245 CURVE SMOOTH",
"172 301 OFFCURVE",
"196 385 OFFCURVE",
"283 385 CURVE SMOOTH",
"337 385 OFFCURVE",
"381 354 OFFCURVE",
"346 211 CURVE",
"482 211 LINE",
"534 448 OFFCURVE",
"425 510 OFFCURVE",
"308 510 CURVE",
"165 510 OFFCURVE",
"60 421 OFFCURVE",
"26 245 CURVE",
"-6 79 OFFCURVE",
"63 -10 OFFCURVE",
"206 -10 CURVE",
"324 -12 OFFCURVE",
"414 43 OFFCURVE",
"464 148 CURVE",
"332 168 LINE"
);
},
{
closed = 1;
nodes = (
"48 211 LINE",
"462 211 LINE",
"481 308 LINE",
"67 308 LINE"
);
}
);
width = 522;
}
);
leftKerningGroup = e;
rightKerningGroup = e;
unicode = 0065;
},
{
glyphname = f;
lastChange = "2021-06-05 00:12:59 +0000";
layers = (
{
layerId = "DFC09A70-1A82-4D07-97CF-EECDCA771356";
paths = (
{
closed = 1;
nodes = (
"16 375 LINE",
"366 375 LINE",
"366 500 LINE",
"16 500 LINE"
);
},
{
closed = 1;
nodes = (
"245 500 LINE",
"245 514 LINE",
"245 554 OFFCURVE",
"246 575 OFFCURVE",
"306 575 CURVE SMOOTH",
"366 575 LINE",
"366 700 LINE",
"240 700 LINE SMOOTH",
"149 700 OFFCURVE",
"110 629 OFFCURVE",
"110 505 CURVE SMOOTH",
"110 500 LINE"
);
},
{
closed = 1;
nodes = (
"110 0 LINE",
"245 0 LINE",
"245 480 LINE",
"110 480 LINE"
);
}
);
width = 376;
},
{
layerId = "B950CEFC-B47C-4E26-91C8-4EFB806DAEDB";
paths = (
{
closed = 1;
nodes = (
"29 476 LINE",
"299 476 LINE",
"299 500 LINE",
"29 500 LINE"
);
},
{
closed = 1;
nodes = (
"144 496 LINE",
"144 564 LINE",
"144 621 OFFCURVE",
"142 676 OFFCURVE",
"214 676 CURVE SMOOTH",
"299 676 LINE",
"299 700 LINE",
"215 700 LINE SMOOTH",
"126 700 OFFCURVE",
"120 639 OFFCURVE",
"120 565 CURVE SMOOTH",
"120 496 LINE"
);
},
{
closed = 1;
nodes = (
"120 0 LINE",
"144 0 LINE",
"144 477 LINE",
"120 477 LINE"
);
}
);
width = 323;
},
{
layerId = "38A022BC-B010-4522-83EC-9E43C5A6F806";
paths = (
{
closed = 1;
nodes = (
"23 433 LINE",
"328 433 LINE",
"328 500 LINE",
"23 500 LINE"
);
},
{
closed = 1;
nodes = (
"187 498 LINE",
"187 543 LINE",
"187 592 OFFCURVE",
"187 633 OFFCURVE",
"253 633 CURVE SMOOTH",
"328 633 LINE",
"328 700 LINE",
"226 700 LINE SMOOTH",
"136 700 OFFCURVE",
"116 635 OFFCURVE",
"116 539 CURVE SMOOTH",
"116 498 LINE"
);
},
{
closed = 1;
nodes = (
"116 0 LINE",
"187 0 LINE",
"187 478 LINE",
"116 478 LINE"
);
}
);
width = 346;
},
{
layerId = "8272A2C0-77E7-4CE8-91FB-35293E9750F3";
paths = (
{
closed = 1;
nodes = (
"73 476 LINE",
"343 476 LINE",
"348 500 LINE",
"78 500 LINE"
);
},
{
closed = 1;
nodes = (
"192 496 LINE",
"205 564 LINE",
"216 621 OFFCURVE",
"225 676 OFFCURVE",
"297 676 CURVE SMOOTH",
"382 676 LINE",
"386 700 LINE",
"302 700 LINE SMOOTH",
"213 700 OFFCURVE",
"196 639 OFFCURVE",
"181 565 CURVE SMOOTH",
"168 496 LINE"
);
},
{
closed = 1;
nodes = (
"71 0 LINE",
"95 0 LINE",
"188 477 LINE",
"164 477 LINE"
);
}
);
width = 323;
},
{
layerId = "49D7192B-8546-40FB-A974-820F9CFADE69";
paths = (
{
closed = 1;
nodes = (
"59 433 LINE",
"364 433 LINE",
"377 500 LINE",
"72 500 LINE"
);
},
{
closed = 1;
nodes = (
"235 498 LINE",
"244 543 LINE",
"253 592 OFFCURVE",
"261 633 OFFCURVE",
"327 633 CURVE SMOOTH",
"402 633 LINE",
"415 700 LINE",
"313 700 LINE SMOOTH",
"223 700 OFFCURVE",
"191 635 OFFCURVE",
"172 539 CURVE SMOOTH",
"164 498 LINE"
);
},
{
closed = 1;
nodes = (
"67 0 LINE",
"138 0 LINE",
"231 478 LINE",
"160 478 LINE"
);
}
);
width = 346;
},
{
layerId = "C6B97978-DABE-4FCE-AE9B-6B243E6FFD49";
paths = (
{
closed = 1;
nodes = (
"40 375 LINE",
"390 375 LINE",
"415 500 LINE",
"65 500 LINE"
);
},
{
closed = 1;
nodes = (
"294 500 LINE",
"296 514 LINE",
"304 554 OFFCURVE",
"309 575 OFFCURVE",
"369 575 CURVE SMOOTH",
"429 575 LINE",
"453 700 LINE",
"327 700 LINE SMOOTH",
"236 700 OFFCURVE",
"184 629 OFFCURVE",
"160 505 CURVE SMOOTH",
"159 500 LINE"
);
},
{
closed = 1;
nodes = (
"61 0 LINE",
"196 0 LINE",
"290 480 LINE",
"155 480 LINE"
);
}
);
width = 376;
}
);
leftKerningGroup = t;
unicode = 0066;
},
{
glyphname = g;
lastChange = "2021-06-05 00:12:59 +0000";
layers = (
{
anchors = (
{
name = top;
position = "{267, 500}";
}
);
components = (
{
name = "lowercase-curve";
transform = "{-1, 0, 0, -1, 386, 500}";
},
{
name = "lowercase-curve";
transform = "{-1, 0, 0, 1, 386, 0}";
},
{
name = "lowercase-vertical";
transform = "{-1, 0, 0, 1, 500, 0}";
}
);
layerId = "DFC09A70-1A82-4D07-97CF-EECDCA771356";
paths = (
{
closed = 1;
nodes = (
"500 0 OFFCURVE",
"365 0 OFFCURVE",
"365 0 CURVE SMOOTH",
"365 -70 OFFCURVE",
"342 -105 OFFCURVE",
"275 -105 CURVE SMOOTH",
"202 -105 OFFCURVE",
"184 -62 OFFCURVE",
"184 -42 CURVE",
"49 -42 LINE",
"50 -126 OFFCURVE",
"127 -205 OFFCURVE",
"259 -205 CURVE",
"402 -205 OFFCURVE",
"500 -146 OFFCURVE",
"500 0 CURVE SMOOTH"
);
}
);
width = 552;
},
{
anchors = (
{
name = top;
position = "{249, 500}";
}
);
components = (
{
name = "lowercase-curve";
transform = "{-1, 0, 0, -1, 425, 498}";
},
{
name = "lowercase-curve";
transform = "{-1, 0, 0, 1, 425, 0}";
},
{
name = "lowercase-vertical";
transform = "{-1, 0, 0, 1, 434, 0}";
}
);
layerId = "B950CEFC-B47C-4E26-91C8-4EFB806DAEDB";
paths = (
{
closed = 1;
nodes = (
"434 0 OFFCURVE",
"410 0 OFFCURVE",
"410 0 CURVE SMOOTH",
"410 -116 OFFCURVE",
"351 -181 OFFCURVE",
"254 -181 CURVE SMOOTH",
"161 -181 OFFCURVE",
"117 -126 OFFCURVE",
"97 -42 CURVE",
"74 -49 LINE",
"95 -137 OFFCURVE",
"142 -205 OFFCURVE",
"254 -205 CURVE",
"377 -205 OFFCURVE",
"434 -116 OFFCURVE",
"434 0 CURVE SMOOTH"
);
}
);
width = 524;
},
{
anchors = (
{
name = top;
position = "{257, 500}";
}
);
components = (
{
alignment = -1;
name = "lowercase-curve";
transform = "{-1, 0, 0, -1, 406, 499}";
},
{
alignment = -1;
name = "lowercase-curve";
transform = "{-1, 0, 0, 1, 406, 0}";
},
{
alignment = -1;
name = "lowercase-vertical";
transform = "{-1, 0, 0, 1, 462, 0}";
}
);
layerId = "38A022BC-B010-4522-83EC-9E43C5A6F806";
paths = (
{
closed = 1;
nodes = (
"462 0 OFFCURVE",
"390 0 OFFCURVE",
"390 0 CURVE SMOOTH",
"390 -96 OFFCURVE",
"347 -148 OFFCURVE",
"263 -148 CURVE SMOOTH",
"179 -148 OFFCURVE",
"146 -99 OFFCURVE",
"134 -42 CURVE",
"63 -46 LINE",
"76 -132 OFFCURVE",
"136 -205 OFFCURVE",
"256 -205 CURVE",
"388 -205 OFFCURVE",
"462 -129 OFFCURVE",
"462 0 CURVE SMOOTH"
);
}
);
width = 536;
},
{
anchors = (
{
name = top;
position = "{298, 500}";
}
);
components = (
{
name = "lowercase-curve";
transform = "{-1, 0, -0.19438, -1, 473, 498}";
},
{
name = "lowercase-curve";
transform = "{-1, 0, 0.19438, 1, 376, 0}";
},
{
name = "lowercase-vertical";
transform = "{-1, 0, 0.19438, 1, 385, 0}";
}
);
layerId = "8272A2C0-77E7-4CE8-91FB-35293E9750F3";
paths = (
{
closed = 1;
nodes = (
"385 0 OFFCURVE",
"361 0 OFFCURVE",
"361 0 CURVE SMOOTH",
"339 -116 OFFCURVE",
"267 -181 OFFCURVE",
"170 -181 CURVE SMOOTH",
"77 -181 OFFCURVE",
"44 -126 OFFCURVE",
"40 -42 CURVE",
"16 -49 LINE",
"20 -137 OFFCURVE",
"54 -205 OFFCURVE",
"166 -205 CURVE",
"289 -205 OFFCURVE",
"363 -116 OFFCURVE",
"385 0 CURVE SMOOTH"
);
}
);
width = 524;
},
{
anchors = (
{
name = top;
position = "{306, 500}";
}
);
components = (
{
alignment = -1;
name = "lowercase-curve";
transform = "{-1, 0, -0.19438, -1, 454, 499}";
},
{
alignment = -1;
name = "lowercase-curve";
transform = "{-1, 0, 0.19438, 1, 357, 0}";
},
{
alignment = -1;
name = "lowercase-vertical";
transform = "{-1, 0, 0.19438, 1, 413, 0}";
}
);
layerId = "49D7192B-8546-40FB-A974-820F9CFADE69";
paths = (
{
closed = 1;
nodes = (
"413 0 OFFCURVE",
"341 0 OFFCURVE",
"341 0 CURVE SMOOTH",
"323 -96 OFFCURVE",
"270 -148 OFFCURVE",
"186 -148 CURVE SMOOTH",
"102 -148 OFFCURVE",
"78 -99 OFFCURVE",
"77 -42 CURVE",
"5 -46 LINE",
"2 -132 OFFCURVE",
"48 -205 OFFCURVE",
"168 -205 CURVE",
"300 -205 OFFCURVE",
"388 -129 OFFCURVE",
"413 0 CURVE SMOOTH"
);
}
);
width = 536;
},
{
anchors = (
{
name = top;
position = "{316, 500}";
}
);
components = (
{
name = "lowercase-curve";
transform = "{-1, 0, -0.19438, -1, 435, 500}";
},
{
name = "lowercase-curve";
transform = "{-1, 0, 0.19438, 1, 337, 0}";
},
{
name = "lowercase-vertical";
transform = "{-1, 0, 0.19438, 1, 451, 0}";
}
);
layerId = "C6B97978-DABE-4FCE-AE9B-6B243E6FFD49";
paths = (
{
closed = 1;
nodes = (
"451 0 OFFCURVE",
"316 0 OFFCURVE",
"316 0 CURVE SMOOTH",
"303 -70 OFFCURVE",
"273 -105 OFFCURVE",
"206 -105 CURVE SMOOTH",
"133 -105 OFFCURVE",
"123 -62 OFFCURVE",
"127 -42 CURVE",
"-8 -42 LINE",
"-23 -126 OFFCURVE",
"39 -205 OFFCURVE",
"171 -205 CURVE",
"314 -205 OFFCURVE",
"423 -146 OFFCURVE",
"451 0 CURVE SMOOTH"
);
}
);
width = 552;
}
);
leftKerningGroup = o;
unicode = 0067;
},
{
glyphname = h;
lastChange = "2021-06-05 00:12:59 +0000";
layers = (
{
components = (
{
name = "lowercase-curve";
transform = "{1, 0, 0, 1, 168, 0}";
}
);
layerId = "DFC09A70-1A82-4D07-97CF-EECDCA771356";
paths = (
{
closed = 1;
nodes = (
"52 0 LINE",
"187 0 LINE",
"187 700 LINE",
"52 700 LINE"
);
},
{
closed = 1;
nodes = (
"387 0 LINE",
"522 0 LINE",
"522 250 LINE",
"387 250 LINE"
);
}
);
width = 569;
},
{
components = (
{
name = "lowercase-curve";
transform = "{1, 0, 0, 1, 110, 0}";
}
);
layerId = "B950CEFC-B47C-4E26-91C8-4EFB806DAEDB";
paths = (
{
closed = 1;
nodes = (
"100 0 LINE",
"124 0 LINE",
"124 700 LINE",
"100 700 LINE"
);
},
{
closed = 1;
nodes = (
"454 0 LINE",
"478 0 LINE",
"478 249 LINE",
"454 249 LINE"
);
}
);
width = 568;
},
{
components = (
{
alignment = -1;
name = "lowercase-curve";
transform = "{1, 0, 0, 1, 135, 0}";
}
);
layerId = "38A022BC-B010-4522-83EC-9E43C5A6F806";
paths = (
{
closed = 1;
nodes = (
"79 0 LINE",
"151 0 LINE",
"151 700 LINE",
"79 700 LINE"
);
},
{
closed = 1;
nodes = (
"425 0 LINE",
"497 0 LINE",
"497 249 LINE",
"425 249 LINE"
);
}
);
width = 568;
},
{
components = (
{
name = "lowercase-curve";
transform = "{1, 0, 0.19438, 1, 61, 0}";
}
);
layerId = "8272A2C0-77E7-4CE8-91FB-35293E9750F3";
paths = (
{
closed = 1;
nodes = (
"51 0 LINE",
"75 0 LINE",
"211 700 LINE",
"187 700 LINE"
);
},
{
closed = 1;
nodes = (
"405 0 LINE",
"429 0 LINE",
"478 249 LINE",
"454 249 LINE"
);
}
);
width = 568;
},
{
components = (
{
alignment = -1;
name = "lowercase-curve";
transform = "{1, 0, 0.19438, 1, 86, 0}";
}
);
layerId = "49D7192B-8546-40FB-A974-820F9CFADE69";
paths = (
{
closed = 1;
nodes = (
"30 0 LINE",
"102 0 LINE",
"238 700 LINE",
"166 700 LINE"
);
},
{
closed = 1;
nodes = (
"376 0 LINE",
"448 0 LINE",
"497 249 LINE",
"425 249 LINE"
);
}
);
width = 568;
},
{
components = (
{
name = "lowercase-curve";
transform = "{1, 0, 0.19438, 1, 119, 0}";
}
);
layerId = "C6B97978-DABE-4FCE-AE9B-6B243E6FFD49";
paths = (
{
closed = 1;
nodes = (
"3 0 LINE",
"138 0 LINE",
"274 700 LINE",
"139 700 LINE"
);
},
{
closed = 1;
nodes = (
"338 0 LINE",
"473 0 LINE",
"522 250 LINE",
"387 250 LINE"
);
}
);
width = 569;
}
);
unicode = 0068;
},
{
glyphname = hbar;
lastChange = "2021-06-05 00:12:59 +0000";
layers = (
{
components = (
{
name = h;
}
);
layerId = "DFC09A70-1A82-4D07-97CF-EECDCA771356";
paths = (
{
closed = 1;
nodes = (
"0 556 LINE",
"350 556 LINE",
"350 650 LINE",
"0 650 LINE"
);
}
);
width = 582;
},
{
components = (
{
name = h;
transform = "{1, 0, 0, 1, -2, 0}";
}
);
layerId = "B950CEFC-B47C-4E26-91C8-4EFB806DAEDB";
paths = (
{
closed = 1;
nodes = (
"37 593 LINE",
"267 593 LINE",
"267 617 LINE",
"37 617 LINE"
);
}
);
width = 571;
},
{
components = (
{
alignment = -1;
name = h;
transform = "{1, 0, 0, 1, -1, 0}";
}
);
layerId = "38A022BC-B010-4522-83EC-9E43C5A6F806";
paths = (
{
closed = 1;
nodes = (
"21 577 LINE",
"303 577 LINE",
"303 631 LINE",
"21 631 LINE"
);
}
);
width = 576;
},
{
components = (
{
name = h;
transform = "{1, 0, 0, 1, -2, 0}";
}
);
layerId = "8272A2C0-77E7-4CE8-91FB-35293E9750F3";
paths = (
{
closed = 1;
nodes = (
"104 593 LINE",
"334 593 LINE",
"338 617 LINE",
"108 617 LINE"
);
}
);
width = 571;
},
{
components = (
{
alignment = -1;
name = h;
transform = "{1, 0, 0, 1, -1, 0}";
}
);
layerId = "49D7192B-8546-40FB-A974-820F9CFADE69";
paths = (
{
closed = 1;
nodes = (
"85 577 LINE",
"367 577 LINE",
"377 631 LINE",
"95 631 LINE"
);
}
);
width = 576;
},
{
components = (
{
name = h;
}
);
layerId = "C6B97978-DABE-4FCE-AE9B-6B243E6FFD49";
paths = (
{
closed = 1;
nodes = (
"59 556 LINE",
"409 556 LINE",
"428 650 LINE",
"78 650 LINE"
);
}
);
width = 582;
}
);
unicode = 0127;
},
{
glyphname = idotless;
lastChange = "2021-06-05 00:12:59 +0000";
layers = (
{
anchors = (
{
name = dotbelow;
position = "{125, 0}";
},
{
name = top;
position = "{125, 500}";
}
);
layerId = "DFC09A70-1A82-4D07-97CF-EECDCA771356";
paths = (
{
closed = 1;
nodes = (
"57 0 LINE",
"192 0 LINE",
"192 500 LINE",
"57 500 LINE"
);
}
);
width = 244;
},
{
anchors = (
{
name = dotbelow;
position = "{114, 0}";
},
{
name = top;
position = "{114, 500}";
}
);
layerId = "B950CEFC-B47C-4E26-91C8-4EFB806DAEDB";
paths = (
{
closed = 1;
nodes = (
"102 0 LINE",
"126 0 LINE",
"126 500 LINE",
"102 500 LINE"
);
}
);
width = 231;
},
{
anchors = (
{
name = dotbelow;
position = "{119, 0}";
},
{
name = top;
position = "{119, 500}";
}
);
layerId = "38A022BC-B010-4522-83EC-9E43C5A6F806";
paths = (
{
closed = 1;
nodes = (
"83 0 LINE",
"154 0 LINE",
"154 500 LINE",
"83 500 LINE"
);
}
);
width = 237;
},
{
anchors = (
{
name = dotbelow;
position = "{65, 0}";
},
{
name = top;
position = "{163, 500}";
}
);
layerId = "8272A2C0-77E7-4CE8-91FB-35293E9750F3";
paths = (
{
closed = 1;
nodes = (
"53 0 LINE",
"77 0 LINE",
"175 500 LINE",
"151 500 LINE"
);
}
);
width = 231;
},
{
anchors = (
{
name = dotbelow;
position = "{70, 0}";
},
{
name = top;
position = "{168, 500}";
}
);
layerId = "49D7192B-8546-40FB-A974-820F9CFADE69";
paths = (
{
closed = 1;
nodes = (
"34 0 LINE",
"105 0 LINE",
"203 500 LINE",
"132 500 LINE"
);
}
);
width = 237;
},
{
anchors = (
{
name = dotbelow;
position = "{76, 0}";
},
{
name = top;
position = "{174, 500}";
}
);
layerId = "C6B97978-DABE-4FCE-AE9B-6B243E6FFD49";
paths = (
{
closed = 1;
nodes = (
"8 0 LINE",
"143 0 LINE",
"241 500 LINE",
"106 500 LINE"
);
}
);
width = 244;
}
);
unicode = 0131;
},
{
glyphname = jdotless;
lastChange = "2021-06-05 00:12:59 +0000";
layers = (
{
anchors = (
{
name = _top;
position = "{140, 500}";
}
);
layerId = "DFC09A70-1A82-4D07-97CF-EECDCA771356";
paths = (
{
closed = 1;
nodes = (
"72 0 LINE",
"207 0 LINE",
"207 500 LINE",
"72 500 LINE"
);
},
{
closed = 1;
nodes = (
"72 0 LINE",
"72 -14 LINE",
"72 -54 OFFCURVE",
"71 -75 OFFCURVE",
"11 -75 CURVE SMOOTH",
"-13 -75 LINE",
"-13 -200 LINE",
"77 -200 LINE SMOOTH",
"167 -200 OFFCURVE",
"207 -128 OFFCURVE",
"207 -5 CURVE SMOOTH",
"207 0 LINE"
);
}
);
width = 259;
},
{
anchors = (
{
name = _top;
position = "{82, 500}";
}
);
layerId = "B950CEFC-B47C-4E26-91C8-4EFB806DAEDB";
paths = (
{
closed = 1;
nodes = (
"70 0 LINE",
"94 0 LINE",
"94 500 LINE",
"70 500 LINE"
);
},
{
closed = 1;
nodes = (
"70 0 LINE",
"70 -64 LINE",
"70 -121 OFFCURVE",
"72 -176 OFFCURVE",
"0 -176 CURVE SMOOTH",
"-11 -176 LINE",
"-11 -200 LINE",
"-1 -200 LINE SMOOTH",
"88 -200 OFFCURVE",
"94 -139 OFFCURVE",
"94 -65 CURVE SMOOTH",
"94 0 LINE"
);
}
);
width = 182;
},
{
anchors = (
{
name = _top;
position = "{107, 500}";
}
);
layerId = "38A022BC-B010-4522-83EC-9E43C5A6F806";
paths = (
{
closed = 1;
nodes = (
"71 0 LINE",
"142 0 LINE",
"142 500 LINE",
"71 500 LINE"
);
},
{
closed = 1;
nodes = (
"71 0 LINE",
"71 -43 LINE",
"71 -92 OFFCURVE",
"72 -133 OFFCURVE",
"5 -133 CURVE SMOOTH",
"-12 -133 LINE",
"-12 -200 LINE",
"32 -200 LINE SMOOTH",
"122 -200 OFFCURVE",
"142 -134 OFFCURVE",
"142 -39 CURVE SMOOTH",
"142 0 LINE"
);
}
);
width = 215;
},
{
anchors = (
{
name = _top;
position = "{131, 500}";
}
);
layerId = "8272A2C0-77E7-4CE8-91FB-35293E9750F3";
paths = (
{
closed = 1;
nodes = (
"21 0 LINE",
"45 0 LINE",
"143 500 LINE",
"119 500 LINE"
);
},
{
closed = 1;
nodes = (
"21 0 LINE",
"9 -64 LINE",
"-2 -121 OFFCURVE",
"-11 -176 OFFCURVE",
"-83 -176 CURVE SMOOTH",
"-94 -176 LINE",
"-98 -200 LINE",
"-88 -200 LINE SMOOTH",
"1 -200 OFFCURVE",
"18 -139 OFFCURVE",
"33 -65 CURVE SMOOTH",
"45 0 LINE"
);
}
);
width = 182;
},
{
anchors = (
{
name = _top;
position = "{156, 500}";
}
);
layerId = "49D7192B-8546-40FB-A974-820F9CFADE69";
paths = (
{
closed = 1;
nodes = (
"22 0 LINE",
"93 0 LINE",
"191 500 LINE",
"120 500 LINE"
);
},
{
closed = 1;
nodes = (
"22 0 LINE",
"14 -43 LINE",
"5 -92 OFFCURVE",
"-2 -133 OFFCURVE",
"-69 -133 CURVE SMOOTH",
"-86 -133 LINE",
"-99 -200 LINE",
"-55 -200 LINE SMOOTH",
"35 -200 OFFCURVE",
"67 -134 OFFCURVE",
"86 -39 CURVE SMOOTH",
"93 0 LINE"
);
}
);
width = 215;
},
{
anchors = (
{
name = _top;
position = "{189, 500}";
}
);
layerId = "C6B97978-DABE-4FCE-AE9B-6B243E6FFD49";
paths = (
{
closed = 1;
nodes = (
"23 0 LINE",
"158 0 LINE",
"256 500 LINE",
"121 500 LINE"
);
},
{
closed = 1;
nodes = (
"23 0 LINE",
"21 -14 LINE",
"13 -54 OFFCURVE",
"8 -75 OFFCURVE",
"-52 -75 CURVE SMOOTH",
"-76 -75 LINE",
"-100 -200 LINE",
"-10 -200 LINE SMOOTH",
"80 -200 OFFCURVE",
"134 -128 OFFCURVE",
"157 -5 CURVE SMOOTH",
"158 0 LINE"
);
}
);
width = 259;
}
);
unicode = 0237;
},
{
glyphname = k;
lastChange = "2021-06-05 00:12:59 +0000";
layers = (
{
layerId = "DFC09A70-1A82-4D07-97CF-EECDCA771356";
paths = (
{
closed = 1;
nodes = (
"187 700 LINE",
"187 340 LINE",
"326 500 LINE",
"492 500 LINE",
"300 288 LINE",
"522 0 LINE",
"356 0 LINE",
"194 209 LINE",
"187 200 LINE",
"187 0 LINE",
"52 0 LINE",
"52 700 LINE"
);
}
);
width = 522;
},
{
layerId = "B950CEFC-B47C-4E26-91C8-4EFB806DAEDB";
paths = (
{
closed = 1;
nodes = (
"124 700 LINE",
"124 219 LINE",
"404 500 LINE",
"438 500 LINE",
"227 288 LINE",
"466 0 LINE",
"435 0 LINE",
"210 271 LINE",
"124 186 LINE",
"124 0 LINE",
"100 0 LINE",
"100 700 LINE"
);
}
);
width = 484;
},
{
layerId = "38A022BC-B010-4522-83EC-9E43C5A6F806";
paths = (
{
closed = 1;
nodes = (
"151 700 LINE",
"151 271 LINE",
"371 500 LINE",
"461 500 LINE",
"258 288 LINE",
"490 0 LINE",
"401 0 LINE",
"203 244 LINE",
"151 192 LINE",
"151 0 LINE",
"79 0 LINE",
"79 700 LINE"
);
}
);
width = 500;
},
{
layerId = "8272A2C0-77E7-4CE8-91FB-35293E9750F3";
paths = (
{
closed = 1;
nodes = (
"211 700 LINE",
"118 219 LINE",
"453 500 LINE",
"487 500 LINE",
"234 288 LINE",
"417 0 LINE",
"386 0 LINE",
"214 271 LINE",
"112 186 LINE",
"75 0 LINE",
"51 0 LINE",
"187 700 LINE"
);
}
);
width = 484;
},
{
layerId = "49D7192B-8546-40FB-A974-820F9CFADE69";
paths = (
{
closed = 1;
nodes = (
"238 700 LINE",
"155 271 LINE",
"420 500 LINE",
"510 500 LINE",
"265 288 LINE",
"441 0 LINE",
"352 0 LINE",
"202 244 LINE",
"140 192 LINE",
"102 0 LINE",
"30 0 LINE",
"166 700 LINE"
);
}
);
width = 500;
},
{
layerId = "C6B97978-DABE-4FCE-AE9B-6B243E6FFD49";
paths = (
{
closed = 1;
nodes = (
"274 700 LINE",
"204 340 LINE",
"375 500 LINE",
"541 500 LINE",
"307 288 LINE",
"473 0 LINE",
"307 0 LINE",
"186 209 LINE",
"177 200 LINE",
"138 0 LINE",
"3 0 LINE",
"139 700 LINE"
);
}
);
width = 522;
}
);
unicode = 006B;
},
{
glyphname = l;
lastChange = "2021-06-05 00:12:59 +0000";
layers = (
{
anchors = (
{
name = top;
position = "{121, 700}";
}
);
layerId = "DFC09A70-1A82-4D07-97CF-EECDCA771356";
paths = (
{
closed = 1;
nodes = (
"52 0 LINE",
"187 0 LINE",
"187 700 LINE",
"52 700 LINE"
);
}
);
width = 239;
},
{
anchors = (
{
name = top;
position = "{111, 700}";
}
);
layerId = "B950CEFC-B47C-4E26-91C8-4EFB806DAEDB";
paths = (
{
closed = 1;
nodes = (
"100 0 LINE",
"124 0 LINE",
"124 700 LINE",
"100 700 LINE"
);
}
);
width = 224;
},
{
anchors = (
{
name = top;
position = "{115, 700}";
}
);
layerId = "38A022BC-B010-4522-83EC-9E43C5A6F806";
paths = (
{
closed = 1;
nodes = (
"79 0 LINE",
"151 0 LINE",
"151 700 LINE",
"79 700 LINE"
);
}
);
width = 230;
},
{
anchors = (
{
name = top;
position = "{198, 700}";
}
);
layerId = "8272A2C0-77E7-4CE8-91FB-35293E9750F3";
paths = (
{
closed = 1;
nodes = (
"51 0 LINE",
"75 0 LINE",
"211 700 LINE",
"187 700 LINE"
);
}
);
width = 224;
},
{
anchors = (
{
name = top;
position = "{202, 700}";
}
);
layerId = "49D7192B-8546-40FB-A974-820F9CFADE69";
paths = (
{
closed = 1;
nodes = (
"30 0 LINE",
"102 0 LINE",
"238 700 LINE",
"166 700 LINE"
);
}
);
width = 230;
},
{
anchors = (
{
name = top;
position = "{208, 700}";
}
);
layerId = "C6B97978-DABE-4FCE-AE9B-6B243E6FFD49";
paths = (
{
closed = 1;
nodes = (
"3 0 LINE",
"138 0 LINE",
"274 700 LINE",
"139 700 LINE"
);
}
);
width = 239;
}
);
unicode = 006C;
},
{
glyphname = lslash;
lastChange = "2021-06-05 00:12:59 +0000";
layers = (
{
components = (
{
name = l;
}
);
layerId = "DFC09A70-1A82-4D07-97CF-EECDCA771356";
paths = (
{
closed = 1;
nodes = (
"0 281 LINE",
"272 347 LINE",
"272 466 LINE",
"0 400 LINE"
);
}
);
width = 273;
},
{
components = (
{
name = l;
}
);
layerId = "B950CEFC-B47C-4E26-91C8-4EFB806DAEDB";
paths = (
{
closed = 1;
nodes = (
"0 315 LINE",
"234 375 LINE",
"234 400 LINE",
"0 340 LINE"
);
}
);
width = 234;
},
{
components = (
{
alignment = -1;
name = l;
}
);
layerId = "38A022BC-B010-4522-83EC-9E43C5A6F806";
paths = (
{
closed = 1;
nodes = (
"0 300 LINE",
"250 363 LINE",
"250 428 LINE",
"0 366 LINE"
);
}
);
width = 251;
},
{
components = (
{
name = l;
}
);
layerId = "8272A2C0-77E7-4CE8-91FB-35293E9750F3";
paths = (
{
closed = 1;
nodes = (
"13 315 LINE",
"258 375 LINE",
"263 400 LINE",
"17 340 LINE"
);
}
);
width = 234;
},
{
components = (
{
alignment = -1;
name = l;
}
);
layerId = "49D7192B-8546-40FB-A974-820F9CFADE69";
paths = (
{
closed = 1;
nodes = (
"10 300 LINE",
"272 363 LINE",
"285 428 LINE",
"23 366 LINE"
);
}
);
width = 251;
},
{
components = (
{
name = l;
}
);
layerId = "C6B97978-DABE-4FCE-AE9B-6B243E6FFD49";
paths = (
{
closed = 1;
nodes = (
"6 281 LINE",
"291 347 LINE",
"314 466 LINE",
"29 400 LINE"
);
}
);
width = 273;
}
);
unicode = 0142;
},
{
glyphname = m;
lastChange = "2021-06-05 00:12:59 +0000";
layers = (
{
components = (
{
name = "lowercase-curve";
transform = "{1, 0, 0, 1, 168, 0}";
},
{
name = "lowercase-vertical";
transform = "{1, 0, 0, 1, 52, 0}";
},
{
name = "lowercase-curve";
transform = "{1, 0, 0, 1, 503, 0}";
}
);
layerId = "DFC09A70-1A82-4D07-97CF-EECDCA771356";
paths = (
{
closed = 1;
nodes = (
"522 0 LINE",
"522 250 LINE",
"387 250 LINE",
"387 0 LINE"
);
},
{
closed = 1;
nodes = (
"857 0 LINE",
"857 250 LINE",
"722 250 LINE",
"722 0 LINE"
);
}
);
width = 904;
},
{
components = (
{
name = "lowercase-curve";
transform = "{1, 0, 0, 1, 110, 0}";
},
{
name = "lowercase-vertical";
transform = "{1, 0, 0, 1, 100, 0}";
},
{
name = "lowercase-curve";
transform = "{1, 0, 0, 1, 464, 0}";
}
);
layerId = "B950CEFC-B47C-4E26-91C8-4EFB806DAEDB";
paths = (
{
closed = 1;
nodes = (
"478 0 LINE",
"478 249 LINE",
"454 249 LINE",
"454 0 LINE"
);
},
{
closed = 1;
nodes = (
"833 0 LINE",
"833 249 LINE",
"808 249 LINE",
"808 0 LINE"
);
}
);
width = 923;
},
{
components = (
{
alignment = -1;
name = "lowercase-curve";
transform = "{1, 0, 0, 1, 135, 0}";
},
{
alignment = -1;
name = "lowercase-vertical";
transform = "{1, 0, 0, 1, 79, 0}";
},
{
alignment = -1;
name = "lowercase-curve";
transform = "{1, 0, 0, 1, 481, 0}";
}
);
layerId = "38A022BC-B010-4522-83EC-9E43C5A6F806";
paths = (
{
closed = 1;
nodes = (
"497 0 LINE",
"497 249 LINE",
"425 249 LINE",
"425 0 LINE"
);
},
{
closed = 1;
nodes = (
"843 0 LINE",
"843 249 LINE",
"771 249 LINE",
"771 0 LINE"
);
}
);
width = 915;
},
{
components = (
{
name = "lowercase-curve";
transform = "{1, 0, 0.19438, 1, 61, 0}";
},
{
name = "lowercase-vertical";
transform = "{1, 0, 0.19438, 1, 51, 0}";
},
{
name = "lowercase-curve";
transform = "{1, 0, 0.19438, 1, 415, 0}";
}
);
layerId = "8272A2C0-77E7-4CE8-91FB-35293E9750F3";
paths = (
{
closed = 1;
nodes = (
"429 0 LINE",
"478 249 LINE",
"454 249 LINE",
"405 0 LINE"
);
},
{
closed = 1;
nodes = (
"784 0 LINE",
"833 249 LINE",
"808 249 LINE",
"759 0 LINE"
);
}
);
width = 923;
},
{
components = (
{
alignment = -1;
name = "lowercase-curve";
transform = "{1, 0, 0.19438, 1, 86, 0}";
},
{
alignment = -1;
name = "lowercase-vertical";
transform = "{1, 0, 0.19438, 1, 30, 0}";
},
{
alignment = -1;
name = "lowercase-curve";
transform = "{1, 0, 0.19438, 1, 432, 0}";
}
);
layerId = "49D7192B-8546-40FB-A974-820F9CFADE69";
paths = (
{
closed = 1;
nodes = (
"448 0 LINE",
"497 249 LINE",
"425 249 LINE",
"376 0 LINE"
);
},
{
closed = 1;
nodes = (
"794 0 LINE",
"843 249 LINE",
"771 249 LINE",
"722 0 LINE"
);
}
);
width = 915;
},
{
components = (
{
name = "lowercase-curve";
transform = "{1, 0, 0.19438, 1, 119, 0}";
},
{
name = "lowercase-vertical";
transform = "{1, 0, 0.19438, 1, 3, 0}";
},
{
name = "lowercase-curve";
transform = "{1, 0, 0.19438, 1, 454, 0}";
}
);
layerId = "C6B97978-DABE-4FCE-AE9B-6B243E6FFD49";
paths = (
{
closed = 1;
nodes = (
"473 0 LINE",
"522 250 LINE",
"387 250 LINE",
"338 0 LINE"
);
},
{
closed = 1;
nodes = (
"808 0 LINE",
"857 250 LINE",
"722 250 LINE",
"673 0 LINE"
);
}
);
width = 904;
}
);
unicode = 006D;
},
{
glyphname = n;
lastChange = "2021-06-05 00:12:59 +0000";
layers = (
{
anchors = (
{
name = top;
position = "{282, 500}";
}
);
components = (
{
name = "lowercase-curve";
transform = "{1, 0, 0, 1, 168, 0}";
},
{
name = "lowercase-vertical";
transform = "{1, 0, 0, 1, 52, 0}";
}
);
layerId = "DFC09A70-1A82-4D07-97CF-EECDCA771356";
paths = (
{
closed = 1;
nodes = (
"522 0 LINE",
"522 250 LINE",
"387 250 LINE",
"387 0 LINE"
);
}
);
width = 569;
},
{
anchors = (
{
name = top;
position = "{294, 500}";
}
);
components = (
{
name = "lowercase-curve";
transform = "{1, 0, 0, 1, 110, 0}";
},
{
name = "lowercase-vertical";
transform = "{1, 0, 0, 1, 100, 0}";
}
);
layerId = "B950CEFC-B47C-4E26-91C8-4EFB806DAEDB";
paths = (
{
closed = 1;
nodes = (
"478 0 LINE",
"478 249 LINE",
"454 249 LINE",
"454 0 LINE"
);
}
);
width = 568;
},
{
anchors = (
{
name = top;
position = "{289, 500}";
}
);
components = (
{
alignment = -1;
name = "lowercase-curve";
transform = "{1, 0, 0, 1, 135, 0}";
},
{
alignment = -1;
name = "lowercase-vertical";
transform = "{1, 0, 0, 1, 79, 0}";
}
);
layerId = "38A022BC-B010-4522-83EC-9E43C5A6F806";
paths = (
{
closed = 1;
nodes = (
"497 0 LINE",
"497 249 LINE",
"425 249 LINE",
"425 0 LINE"
);
}
);
width = 568;
},
{
anchors = (
{
name = top;
position = "{343, 500}";
}
);
components = (
{
name = "lowercase-curve";
transform = "{1, 0, 0.19438, 1, 61, 0}";
},
{
name = "lowercase-vertical";
transform = "{1, 0, 0.19438, 1, 51, 0}";
}
);
layerId = "8272A2C0-77E7-4CE8-91FB-35293E9750F3";
paths = (
{
closed = 1;
nodes = (
"429 0 LINE",
"478 249 LINE",
"454 249 LINE",
"405 0 LINE"
);
}
);
width = 568;
},
{
anchors = (
{
name = top;
position = "{338, 500}";
}
);
components = (
{
alignment = -1;
name = "lowercase-curve";
transform = "{1, 0, 0.19438, 1, 86, 0}";
},
{
alignment = -1;
name = "lowercase-vertical";
transform = "{1, 0, 0.19438, 1, 30, 0}";
}
);
layerId = "49D7192B-8546-40FB-A974-820F9CFADE69";
paths = (
{
closed = 1;
nodes = (
"448 0 LINE",
"497 249 LINE",
"425 249 LINE",
"376 0 LINE"
);
}
);
width = 568;
},
{
anchors = (
{
name = top;
position = "{331, 500}";
}
);
components = (
{
name = "lowercase-curve";
transform = "{1, 0, 0.19438, 1, 119, 0}";
},
{
name = "lowercase-vertical";
transform = "{1, 0, 0.19438, 1, 3, 0}";
}
);
layerId = "C6B97978-DABE-4FCE-AE9B-6B243E6FFD49";
paths = (
{
closed = 1;
nodes = (
"473 0 LINE",
"522 250 LINE",
"387 250 LINE",
"338 0 LINE"
);
}
);
width = 569;
}
);
unicode = 006E;
},
{
glyphname = eng;
lastChange = "2021-06-05 00:12:59 +0000";
layers = (
{
components = (
{
name = n;
}
);
layerId = "DFC09A70-1A82-4D07-97CF-EECDCA771356";
paths = (
{
closed = 1;
nodes = (
"387 35 LINE",
"387 -6 LINE",
"387 -46 OFFCURVE",
"386 -73 OFFCURVE",
"336 -73 CURVE",
"266 -73 LINE",
"266 -192 LINE",
"392 -192 LINE SMOOTH",
"483 -192 OFFCURVE",
"522 -121 OFFCURVE",
"522 3 CURVE SMOOTH",
"522 8 LINE"
);
}
);
width = 569;
},
{
components = (
{
name = n;
}
);
layerId = "B950CEFC-B47C-4E26-91C8-4EFB806DAEDB";
paths = (
{
closed = 1;
nodes = (
"454 73 LINE",
"454 9 LINE",
"454 -48 OFFCURVE",
"456 -103 OFFCURVE",
"384 -103 CURVE SMOOTH",
"317 -103 LINE",
"317 -127 LINE",
"383 -127 LINE SMOOTH",
"472 -127 OFFCURVE",
"478 -66 OFFCURVE",
"478 8 CURVE SMOOTH",
"478 73 LINE"
);
}
);
width = 568;
},
{
components = (
{
alignment = -1;
name = n;
}
);
layerId = "38A022BC-B010-4522-83EC-9E43C5A6F806";
paths = (
{
closed = 1;
nodes = (
"425 57 LINE",
"425 3 LINE",
"425 -47 OFFCURVE",
"426 -90 OFFCURVE",
"363 -90 CURVE",
"295 -90 LINE",
"295 -155 LINE",
"387 -155 LINE SMOOTH",
"477 -155 OFFCURVE",
"497 -90 OFFCURVE",
"497 6 CURVE SMOOTH",
"497 45 LINE"
);
}
);
width = 568;
},
{
components = (
{
name = n;
}
);
layerId = "8272A2C0-77E7-4CE8-91FB-35293E9750F3";
paths = (
{
closed = 1;
nodes = (
"420 73 LINE",
"407 9 LINE",
"396 -48 OFFCURVE",
"387 -103 OFFCURVE",
"315 -103 CURVE SMOOTH",
"248 -103 LINE",
"244 -127 LINE",
"310 -127 LINE SMOOTH",
"399 -127 OFFCURVE",
"417 -66 OFFCURVE",
"431 8 CURVE SMOOTH",
"444 73 LINE"
);
}
);
width = 568;
},
{
components = (
{
alignment = -1;
name = n;
}
);
layerId = "49D7192B-8546-40FB-A974-820F9CFADE69";
paths = (
{
closed = 1;
nodes = (
"387 57 LINE",
"377 3 LINE",
"367 -47 OFFCURVE",
"360 -90 OFFCURVE",
"297 -90 CURVE",
"229 -90 LINE",
"216 -155 LINE",
"308 -155 LINE SMOOTH",
"398 -155 OFFCURVE",
"431 -90 OFFCURVE",
"450 6 CURVE SMOOTH",
"457 45 LINE"
);
}
);
width = 568;
},
{
components = (
{
name = n;
}
);
layerId = "C6B97978-DABE-4FCE-AE9B-6B243E6FFD49";
paths = (
{
closed = 1;
nodes = (
"345 35 LINE",
"337 -6 LINE",
"329 -46 OFFCURVE",
"323 -73 OFFCURVE",
"273 -73 CURVE",
"203 -73 LINE",
"180 -192 LINE",
"306 -192 LINE SMOOTH",
"397 -192 OFFCURVE",
"450 -121 OFFCURVE",
"474 3 CURVE SMOOTH",
"475 8 LINE"
);
}
);
width = 569;
}
);
unicode = 014B;
},
{
glyphname = o;
lastChange = "2021-06-05 00:12:59 +0000";
layers = (
{
anchors = (
{
name = dotbelow;
position = "{261, 0}";
},
{
name = horn;
position = "{318, 500}";
},
{
name = top;
position = "{261, 500}";
}
);
layerId = "DFC09A70-1A82-4D07-97CF-EECDCA771356";
paths = (
{
closed = 1;
nodes = (
"27 79 OFFCURVE",
"114 -10 OFFCURVE",
"261 -10 CURVE",
"408 -10 OFFCURVE",
"495 79 OFFCURVE",
"495 245 CURVE",
"495 421 OFFCURVE",
"408 510 OFFCURVE",
"261 510 CURVE SMOOTH",
"114 510 OFFCURVE",
"27 421 OFFCURVE",
"27 245 CURVE"
);
},
{
closed = 1;
nodes = (
"170 115 OFFCURVE",
"162 199 OFFCURVE",
"162 245 CURVE SMOOTH",
"162 301 OFFCURVE",
"170 385 OFFCURVE",
"261 385 CURVE SMOOTH",
"352 385 OFFCURVE",
"360 301 OFFCURVE",
"360 245 CURVE SMOOTH",
"360 199 OFFCURVE",
"352 115 OFFCURVE",
"261 115 CURVE SMOOTH"
);
}
);
width = 522;
},
{
anchors = (
{
name = dotbelow;
position = "{267, 0}";
},
{
name = horn;
position = "{319, 505}";
},
{
name = top;
position = "{267, 500}";
}
);
layerId = "B950CEFC-B47C-4E26-91C8-4EFB806DAEDB";
paths = (
{
closed = 1;
nodes = (
"57 79 OFFCURVE",
"134 -10 OFFCURVE",
"267 -10 CURVE",
"400 -10 OFFCURVE",
"477 79 OFFCURVE",
"477 245 CURVE",
"477 421 OFFCURVE",
"400 510 OFFCURVE",
"267 510 CURVE",
"134 510 OFFCURVE",
"57 421 OFFCURVE",
"57 245 CURVE"
);
},
{
closed = 1;
nodes = (
"160 14 OFFCURVE",
"81 79 OFFCURVE",
"81 245 CURVE SMOOTH",
"81 421 OFFCURVE",
"160 486 OFFCURVE",
"267 486 CURVE SMOOTH",
"374 486 OFFCURVE",
"453 421 OFFCURVE",
"453 245 CURVE SMOOTH",
"453 79 OFFCURVE",
"374 14 OFFCURVE",
"267 14 CURVE SMOOTH"
);
}
);
width = 534;
},
{
anchors = (
{
name = dotbelow;
position = "{264, 0}";
},
{
name = horn;
position = "{319, 503}";
},
{
name = top;
position = "{264, 500}";
}
);
layerId = "38A022BC-B010-4522-83EC-9E43C5A6F806";
paths = (
{
closed = 1;
nodes = (
"44 79 OFFCURVE",
"125 -10 OFFCURVE",
"264 -10 CURVE",
"403 -10 OFFCURVE",
"485 79 OFFCURVE",
"485 245 CURVE",
"485 421 OFFCURVE",
"403 510 OFFCURVE",
"264 510 CURVE SMOOTH",
"125 510 OFFCURVE",
"44 421 OFFCURVE",
"44 245 CURVE"
);
},
{
closed = 1;
nodes = (
"164 57 OFFCURVE",
"116 130 OFFCURVE",
"116 245 CURVE SMOOTH",
"116 370 OFFCURVE",
"164 443 OFFCURVE",
"264 443 CURVE SMOOTH",
"365 443 OFFCURVE",
"413 370 OFFCURVE",
"413 245 CURVE SMOOTH",
"413 130 OFFCURVE",
"365 57 OFFCURVE",
"264 57 CURVE SMOOTH"
);
}
);
width = 529;
},
{
anchors = (
{
name = dotbelow;
position = "{218, 0}";
},
{
name = horn;
position = "{369, 505}";
},
{
name = top;
position = "{316, 500}";
}
);
layerId = "8272A2C0-77E7-4CE8-91FB-35293E9750F3";
paths = (
{
closed = 1;
nodes = (
"24 79 OFFCURVE",
"83 -10 OFFCURVE",
"216 -10 CURVE",
"349 -10 OFFCURVE",
"444 79 OFFCURVE",
"476 245 CURVE",
"510 421 OFFCURVE",
"451 510 OFFCURVE",
"318 510 CURVE",
"185 510 OFFCURVE",
"90 421 OFFCURVE",
"56 245 CURVE"
);
},
{
closed = 1;
nodes = (
"114 14 OFFCURVE",
"48 79 OFFCURVE",
"80 245 CURVE SMOOTH",
"114 421 OFFCURVE",
"206 486 OFFCURVE",
"313 486 CURVE SMOOTH",
"420 486 OFFCURVE",
"486 421 OFFCURVE",
"452 245 CURVE SMOOTH",
"420 79 OFFCURVE",
"328 14 OFFCURVE",
"221 14 CURVE SMOOTH"
);
}
);
width = 534;
},
{
anchors = (
{
name = dotbelow;
position = "{215, 0}";
},
{
name = horn;
position = "{368, 503}";
},
{
name = top;
position = "{313, 500}";
}
);
layerId = "49D7192B-8546-40FB-A974-820F9CFADE69";
paths = (
{
closed = 1;
nodes = (
"11 79 OFFCURVE",
"74 -10 OFFCURVE",
"213 -10 CURVE",
"352 -10 OFFCURVE",
"452 79 OFFCURVE",
"484 245 CURVE",
"518 421 OFFCURVE",
"454 510 OFFCURVE",
"315 510 CURVE SMOOTH",
"176 510 OFFCURVE",
"77 421 OFFCURVE",
"43 245 CURVE"
);
},
{
closed = 1;
nodes = (
"126 57 OFFCURVE",
"93 130 OFFCURVE",
"115 245 CURVE SMOOTH",
"139 370 OFFCURVE",
"202 443 OFFCURVE",
"302 443 CURVE SMOOTH",
"403 443 OFFCURVE",
"436 370 OFFCURVE",
"412 245 CURVE SMOOTH",
"390 130 OFFCURVE",
"327 57 OFFCURVE",
"226 57 CURVE SMOOTH"
);
}
);
width = 529;
},
{
anchors = (
{
name = dotbelow;
position = "{212, 0}";
},
{
name = horn;
position = "{367, 500}";
},
{
name = top;
position = "{310, 500}";
}
);
layerId = "C6B97978-DABE-4FCE-AE9B-6B243E6FFD49";
paths = (
{
closed = 1;
nodes = (
"-6 79 OFFCURVE",
"63 -10 OFFCURVE",
"210 -10 CURVE",
"357 -10 OFFCURVE",
"462 79 OFFCURVE",
"494 245 CURVE",
"528 421 OFFCURVE",
"459 510 OFFCURVE",
"312 510 CURVE SMOOTH",
"165 510 OFFCURVE",
"60 421 OFFCURVE",
"26 245 CURVE"
);
},
{
closed = 1;
nodes = (
"144 115 OFFCURVE",
"152 199 OFFCURVE",
"161 245 CURVE SMOOTH",
"172 301 OFFCURVE",
"196 385 OFFCURVE",
"287 385 CURVE SMOOTH",
"378 385 OFFCURVE",
"370 301 OFFCURVE",
"359 245 CURVE SMOOTH",
"350 199 OFFCURVE",
"326 115 OFFCURVE",
"235 115 CURVE SMOOTH"
);
}
);
width = 522;
}
);
leftKerningGroup = o;
rightKerningGroup = o;
unicode = 006F;
},
{
glyphname = oslash;
lastChange = "2021-06-05 00:12:59 +0000";
layers = (
{
components = (
{
name = o;
transform = "{1, 0, 0, 1, -7, 0}";
}
);
layerId = "DFC09A70-1A82-4D07-97CF-EECDCA771356";
paths = (
{
closed = 1;
nodes = (
"28 6 LINE",
"108 -53 LINE",
"493 487 LINE",
"412 545 LINE"
);
}
);
width = 523;
},
{
components = (
{
name = o;
transform = "{1, 0, 0, 1, -3, 0}";
}
);
layerId = "B950CEFC-B47C-4E26-91C8-4EFB806DAEDB";
paths = (
{
closed = 1;
nodes = (
"73 -16 LINE",
"92 -29 LINE",
"461 514 LINE",
"441 526 LINE"
);
}
);
width = 534;
},
{
components = (
{
alignment = -1;
name = o;
transform = "{1, 0, 0, 1, -5, 0}";
}
);
layerId = "38A022BC-B010-4522-83EC-9E43C5A6F806";
paths = (
{
closed = 1;
nodes = (
"54 -7 LINE",
"99 -39 LINE",
"475 502 LINE",
"429 534 LINE"
);
}
);
width = 529;
},
{
components = (
{
name = o;
transform = "{1, 0, 0, 1, -3, 0}";
}
);
layerId = "8272A2C0-77E7-4CE8-91FB-35293E9750F3";
paths = (
{
closed = 1;
nodes = (
"21 -16 LINE",
"38 -29 LINE",
"512 514 LINE",
"495 526 LINE"
);
}
);
width = 534;
},
{
components = (
{
alignment = -1;
name = o;
transform = "{1, 0, 0, 1, -5, 0}";
}
);
layerId = "49D7192B-8546-40FB-A974-820F9CFADE69";
paths = (
{
closed = 1;
nodes = (
"4 -7 LINE",
"43 -39 LINE",
"524 502 LINE",
"484 534 LINE"
);
}
);
width = 529;
},
{
components = (
{
name = o;
transform = "{1, 0, 0, 1, -7, 0}";
}
);
layerId = "C6B97978-DABE-4FCE-AE9B-6B243E6FFD49";
paths = (
{
closed = 1;
nodes = (
"-19 6 LINE",
"49 -53 LINE",
"539 487 LINE",
"469 545 LINE"
);
}
);
width = 523;
}
);
leftKerningGroup = o;
rightKerningGroup = o;
unicode = 00F8;
},
{
glyphname = oe;
lastChange = "2021-06-05 00:12:59 +0000";
layers = (
{
anchors = (
{
name = top;
position = "{254, 500}";
}
);
layerId = "DFC09A70-1A82-4D07-97CF-EECDCA771356";
paths = (
{
closed = 1;
nodes = (
"401 -10 OFFCURVE",
"488 79 OFFCURVE",
"488 245 CURVE",
"488 421 OFFCURVE",
"401 510 OFFCURVE",
"254 510 CURVE SMOOTH",
"107 510 OFFCURVE",
"20 421 OFFCURVE",
"20 245 CURVE",
"20 79 OFFCURVE",
"107 -10 OFFCURVE",
"254 -10 CURVE"
);
},
{
closed = 1;
nodes = (
"163 115 OFFCURVE",
"155 199 OFFCURVE",
"155 245 CURVE SMOOTH",
"155 301 OFFCURVE",
"163 385 OFFCURVE",
"254 385 CURVE SMOOTH",
"345 385 OFFCURVE",
"353 301 OFFCURVE",
"353 245 CURVE SMOOTH",
"353 199 OFFCURVE",
"345 115 OFFCURVE",
"254 115 CURVE SMOOTH"
);
},
{
closed = 1;
nodes = (
"701 -12 OFFCURVE",
"780 43 OFFCURVE",
"810 148 CURVE",
"674 168 LINE",
"666 133 OFFCURVE",
"639 115 OFFCURVE",
"583 115 CURVE SMOOTH",
"490 115 OFFCURVE",
"488 199 OFFCURVE",
"488 245 CURVE SMOOTH",
"488 301 OFFCURVE",
"496 385 OFFCURVE",
"583 385 CURVE SMOOTH",
"637 385 OFFCURVE",
"687 354 OFFCURVE",
"680 211 CURVE",
"816 211 LINE",
"822 448 OFFCURVE",
"700 510 OFFCURVE",
"583 510 CURVE",
"440 510 OFFCURVE",
"353 421 OFFCURVE",
"353 245 CURVE",
"353 79 OFFCURVE",
"440 -10 OFFCURVE",
"583 -10 CURVE"
);
},
{
closed = 1;
nodes = (
"796 211 LINE",
"796 308 LINE",
"382 308 LINE",
"382 211 LINE"
);
}
);
width = 836;
},
{
anchors = (
{
name = top;
position = "{625, 500}";
}
);
layerId = "B950CEFC-B47C-4E26-91C8-4EFB806DAEDB";
paths = (
{
closed = 1;
nodes = (
"382 -10 OFFCURVE",
"459 79 OFFCURVE",
"459 245 CURVE",
"459 421 OFFCURVE",
"382 510 OFFCURVE",
"249 510 CURVE",
"116 510 OFFCURVE",
"39 421 OFFCURVE",
"39 245 CURVE",
"39 79 OFFCURVE",
"116 -10 OFFCURVE",
"249 -10 CURVE"
);
},
{
closed = 1;
nodes = (
"142 14 OFFCURVE",
"63 79 OFFCURVE",
"63 245 CURVE SMOOTH",
"63 421 OFFCURVE",
"142 486 OFFCURVE",
"249 486 CURVE SMOOTH",
"356 486 OFFCURVE",
"435 421 OFFCURVE",
"435 245 CURVE SMOOTH",
"435 79 OFFCURVE",
"356 14 OFFCURVE",
"249 14 CURVE SMOOTH"
);
},
{
closed = 1;
nodes = (
"730 -11 OFFCURVE",
"782 49 OFFCURVE",
"807 123 CURVE",
"783 127 LINE",
"761 71 OFFCURVE",
"728 14 OFFCURVE",
"624 14 CURVE SMOOTH",
"511 14 OFFCURVE",
"459 129 OFFCURVE",
"459 250 CURVE SMOOTH",
"459 371 OFFCURVE",
"511 486 OFFCURVE",
"624 486 CURVE SMOOTH",
"718 486 OFFCURVE",
"786 424 OFFCURVE",
"786 258 CURVE",
"812 258 LINE",
"812 445 OFFCURVE",
"722 510 OFFCURVE",
"624 510 CURVE",
"522 510 OFFCURVE",
"435 424 OFFCURVE",
"435 250 CURVE",
"435 76 OFFCURVE",
"522 -10 OFFCURVE",
"624 -10 CURVE"
);
},
{
closed = 1;
nodes = (
"807 258 LINE",
"807 282 LINE",
"439 282 LINE",
"437 258 LINE"
);
}
);
width = 851;
},
{
anchors = (
{
name = top;
position = "{466, 500}";
}
);
layerId = "38A022BC-B010-4522-83EC-9E43C5A6F806";
paths = (
{
closed = 1;
nodes = (
"390 -10 OFFCURVE",
"471 79 OFFCURVE",
"471 245 CURVE",
"471 421 OFFCURVE",
"390 510 OFFCURVE",
"251 510 CURVE SMOOTH",
"112 510 OFFCURVE",
"31 421 OFFCURVE",
"31 245 CURVE",
"31 79 OFFCURVE",
"112 -10 OFFCURVE",
"251 -10 CURVE"
);
},
{
closed = 1;
nodes = (
"151 57 OFFCURVE",
"102 130 OFFCURVE",
"102 245 CURVE SMOOTH",
"102 370 OFFCURVE",
"151 443 OFFCURVE",
"251 443 CURVE SMOOTH",
"351 443 OFFCURVE",
"400 370 OFFCURVE",
"400 245 CURVE SMOOTH",
"400 130 OFFCURVE",
"351 57 OFFCURVE",
"251 57 CURVE SMOOTH"
);
},
{
closed = 1;
nodes = (
"718 -11 OFFCURVE",
"781 46 OFFCURVE",
"808 134 CURVE",
"736 145 LINE",
"720 98 OFFCURVE",
"690 57 OFFCURVE",
"606 57 CURVE SMOOTH",
"502 57 OFFCURVE",
"471 159 OFFCURVE",
"471 248 CURVE SMOOTH",
"471 341 OFFCURVE",
"505 443 OFFCURVE",
"606 443 CURVE SMOOTH",
"683 443 OFFCURVE",
"744 394 OFFCURVE",
"741 238 CURVE",
"814 238 LINE",
"816 446 OFFCURVE",
"713 510 OFFCURVE",
"606 510 CURVE",
"487 510 OFFCURVE",
"400 423 OFFCURVE",
"400 248 CURVE",
"400 77 OFFCURVE",
"487 -10 OFFCURVE",
"606 -10 CURVE"
);
},
{
closed = 1;
nodes = (
"802 238 LINE",
"802 293 LINE",
"415 293 LINE",
"413 238 LINE"
);
}
);
width = 845;
},
{
anchors = (
{
name = top;
position = "{674, 500}";
}
);
layerId = "8272A2C0-77E7-4CE8-91FB-35293E9750F3";
paths = (
{
closed = 1;
nodes = (
"331 -10 OFFCURVE",
"426 79 OFFCURVE",
"458 245 CURVE",
"492 421 OFFCURVE",
"433 510 OFFCURVE",
"300 510 CURVE",
"167 510 OFFCURVE",
"72 421 OFFCURVE",
"38 245 CURVE",
"6 79 OFFCURVE",
"65 -10 OFFCURVE",
"198 -10 CURVE"
);
},
{
closed = 1;
nodes = (
"96 14 OFFCURVE",
"30 79 OFFCURVE",
"62 245 CURVE SMOOTH",
"96 421 OFFCURVE",
"188 486 OFFCURVE",
"295 486 CURVE SMOOTH",
"402 486 OFFCURVE",
"468 421 OFFCURVE",
"434 245 CURVE SMOOTH",
"402 79 OFFCURVE",
"310 14 OFFCURVE",
"203 14 CURVE SMOOTH"
);
},
{
closed = 1;
nodes = (
"679 -11 OFFCURVE",
"743 49 OFFCURVE",
"782 123 CURVE",
"759 127 LINE",
"726 71 OFFCURVE",
"682 14 OFFCURVE",
"578 14 CURVE SMOOTH",
"465 14 OFFCURVE",
"435 129 OFFCURVE",
"459 250 CURVE SMOOTH",
"483 371 OFFCURVE",
"557 486 OFFCURVE",
"670 486 CURVE SMOOTH",
"764 486 OFFCURVE",
"820 424 OFFCURVE",
"788 258 CURVE",
"814 258 LINE",
"850 445 OFFCURVE",
"773 510 OFFCURVE",
"675 510 CURVE",
"573 510 OFFCURVE",
"469 424 OFFCURVE",
"435 250 CURVE",
"401 76 OFFCURVE",
"471 -10 OFFCURVE",
"573 -10 CURVE"
);
},
{
closed = 1;
nodes = (
"809 258 LINE",
"813 282 LINE",
"445 282 LINE",
"439 258 LINE"
);
}
);
width = 851;
},
{
anchors = (
{
name = top;
position = "{515, 500}";
}
);
layerId = "49D7192B-8546-40FB-A974-820F9CFADE69";
paths = (
{
closed = 1;
nodes = (
"339 -10 OFFCURVE",
"438 79 OFFCURVE",
"470 245 CURVE",
"504 421 OFFCURVE",
"441 510 OFFCURVE",
"302 510 CURVE SMOOTH",
"163 510 OFFCURVE",
"64 421 OFFCURVE",
"30 245 CURVE",
"-2 79 OFFCURVE",
"61 -10 OFFCURVE",
"200 -10 CURVE"
);
},
{
closed = 1;
nodes = (
"113 57 OFFCURVE",
"79 130 OFFCURVE",
"101 245 CURVE SMOOTH",
"125 370 OFFCURVE",
"189 443 OFFCURVE",
"289 443 CURVE SMOOTH",
"389 443 OFFCURVE",
"423 370 OFFCURVE",
"399 245 CURVE SMOOTH",
"377 130 OFFCURVE",
"313 57 OFFCURVE",
"213 57 CURVE SMOOTH"
);
},
{
closed = 1;
nodes = (
"667 -11 OFFCURVE",
"741 46 OFFCURVE",
"785 134 CURVE",
"716 145 LINE",
"690 98 OFFCURVE",
"652 57 OFFCURVE",
"568 57 CURVE SMOOTH",
"464 57 OFFCURVE",
"453 159 OFFCURVE",
"471 248 CURVE SMOOTH",
"489 341 OFFCURVE",
"543 443 OFFCURVE",
"644 443 CURVE SMOOTH",
"721 443 OFFCURVE",
"772 394 OFFCURVE",
"739 238 CURVE",
"812 238 LINE",
"854 446 OFFCURVE",
"764 510 OFFCURVE",
"657 510 CURVE",
"538 510 OFFCURVE",
"434 423 OFFCURVE",
"400 248 CURVE",
"366 77 OFFCURVE",
"436 -10 OFFCURVE",
"555 -10 CURVE"
);
},
{
closed = 1;
nodes = (
"800 238 LINE",
"810 293 LINE",
"423 293 LINE",
"411 238 LINE"
);
}
);
width = 845;
},
{
anchors = (
{
name = top;
position = "{303, 500}";
}
);
layerId = "C6B97978-DABE-4FCE-AE9B-6B243E6FFD49";
paths = (
{
closed = 1;
nodes = (
"350 -10 OFFCURVE",
"455 79 OFFCURVE",
"487 245 CURVE",
"521 421 OFFCURVE",
"452 510 OFFCURVE",
"305 510 CURVE SMOOTH",
"158 510 OFFCURVE",
"53 421 OFFCURVE",
"19 245 CURVE",
"-13 79 OFFCURVE",
"56 -10 OFFCURVE",
"203 -10 CURVE"
);
},
{
closed = 1;
nodes = (
"137 115 OFFCURVE",
"145 199 OFFCURVE",
"154 245 CURVE SMOOTH",
"165 301 OFFCURVE",
"189 385 OFFCURVE",
"280 385 CURVE SMOOTH",
"371 385 OFFCURVE",
"363 301 OFFCURVE",
"352 245 CURVE SMOOTH",
"343 199 OFFCURVE",
"319 115 OFFCURVE",
"228 115 CURVE SMOOTH"
);
},
{
closed = 1;
nodes = (
"650 -12 OFFCURVE",
"740 43 OFFCURVE",
"790 148 CURVE",
"658 168 LINE",
"643 133 OFFCURVE",
"613 115 OFFCURVE",
"557 115 CURVE SMOOTH",
"464 115 OFFCURVE",
"478 199 OFFCURVE",
"487 245 CURVE SMOOTH",
"498 301 OFFCURVE",
"522 385 OFFCURVE",
"609 385 CURVE SMOOTH",
"663 385 OFFCURVE",
"707 354 OFFCURVE",
"672 211 CURVE",
"808 211 LINE",
"860 448 OFFCURVE",
"751 510 OFFCURVE",
"634 510 CURVE",
"491 510 OFFCURVE",
"386 421 OFFCURVE",
"352 245 CURVE",
"320 79 OFFCURVE",
"389 -10 OFFCURVE",
"532 -10 CURVE"
);
},
{
closed = 1;
nodes = (
"788 211 LINE",
"807 308 LINE",
"393 308 LINE",
"374 211 LINE"
);
}
);
width = 836;
}
);
leftKerningGroup = o;
unicode = 0153;
},
